<svg width="29" height="29" viewBox="0 0 29 29" fill="none" xmlns="http://www.w3.org/2000/svg">
<path d="M18.7566 23.2792C18.6159 23.4196 18.4253 23.4985 18.2266 23.4985C18.0278 23.4985 17.8372 23.4196 17.6966 23.2792L8.94657 14.5292C8.80612 14.3886 8.72723 14.1979 8.72723 13.9992C8.72723 13.8004 8.80612 13.6098 8.94657 13.4692L17.6966 4.71918C17.7652 4.64549 17.848 4.58639 17.94 4.5454C18.032 4.5044 18.1313 4.48236 18.2321 4.48059C18.3328 4.47881 18.4328 4.49733 18.5262 4.53505C18.6196 4.57278 18.7044 4.62892 18.7756 4.70014C18.8468 4.77136 18.903 4.85619 18.9407 4.94958C18.9784 5.04297 18.9969 5.143 18.9952 5.2437C18.9934 5.3444 18.9713 5.44372 18.9304 5.53572C18.8894 5.62771 18.8303 5.71052 18.7566 5.77918L10.5366 13.9992L18.7566 22.2192C18.897 22.3598 18.9759 22.5504 18.9759 22.7492C18.9759 22.9479 18.897 23.1386 18.7566 23.2792Z" fill="#0C0C0D"/>
</svg>
