<svg width="16" height="16" viewBox="0 0 16 16" fill="none" xmlns="http://www.w3.org/2000/svg">
<path d="M8.57522 13.4244C8.68772 13.5368 8.84022 13.5999 8.99922 13.5999C9.15822 13.5999 9.31072 13.5368 9.42322 13.4244L12.6232 10.2244C12.7356 10.1119 12.7987 9.95939 12.7987 9.80039C12.7987 9.64139 12.7356 9.48889 12.6232 9.37639L9.42322 6.17639C9.36829 6.11744 9.30205 6.07016 9.22845 6.03737C9.15485 6.00457 9.0754 5.98694 8.99484 5.98552C8.91427 5.9841 8.83425 5.99892 8.75954 6.02909C8.68483 6.05927 8.61696 6.10418 8.55999 6.16116C8.50301 6.21813 8.4581 6.286 8.42792 6.36071C8.39774 6.43542 8.38292 6.51545 8.38435 6.59601C8.38577 6.67657 8.4034 6.75602 8.43619 6.82962C8.46899 6.90322 8.51627 6.96946 8.57522 7.02439L10.7512 9.20039H5.59922C5.44163 9.20039 5.28559 9.16935 5.14 9.10905C4.99441 9.04874 4.86212 8.96035 4.75069 8.84892C4.63926 8.73749 4.55087 8.6052 4.49056 8.45961C4.43026 8.31402 4.39922 8.15798 4.39922 8.00039V3.00039C4.39922 2.84126 4.336 2.68865 4.22348 2.57613C4.11096 2.4636 3.95835 2.40039 3.79922 2.40039C3.64009 2.40039 3.48748 2.4636 3.37495 2.57613C3.26243 2.68865 3.19922 2.84126 3.19922 3.00039V8.00039C3.19922 8.63691 3.45208 9.24736 3.90216 9.69745C4.35225 10.1475 4.9627 10.4004 5.59922 10.4004H10.7512L8.57522 12.5764C8.46286 12.6889 8.39975 12.8414 8.39975 13.0004C8.39975 13.1594 8.46286 13.3119 8.57522 13.4244Z" fill="#CFD4D9"/>
</svg>
