<svg width="29" height="29" viewBox="0 0 29 29" fill="none" xmlns="http://www.w3.org/2000/svg">
<path d="M10.6965 4.71934C10.8372 4.57889 11.0278 4.5 11.2265 4.5C11.4253 4.5 11.6159 4.57889 11.7565 4.71934L20.5065 13.4693C20.647 13.61 20.7259 13.8006 20.7259 13.9993C20.7259 14.1981 20.647 14.3887 20.5065 14.5293L11.7565 23.2793C11.6879 23.353 11.6051 23.4121 11.5131 23.4531C11.4211 23.4941 11.3218 23.5162 11.2211 23.5179C11.1204 23.5197 11.0203 23.5012 10.9269 23.4635C10.8335 23.4257 10.7487 23.3696 10.6775 23.2984C10.6063 23.2272 10.5501 23.1423 10.5124 23.0489C10.4747 22.9555 10.4562 22.8555 10.4579 22.7548C10.4597 22.6541 10.4818 22.5548 10.5228 22.4628C10.5637 22.3708 10.6228 22.288 10.6965 22.2193L18.9165 13.9993L10.6965 5.77934C10.5561 5.63871 10.4772 5.44809 10.4772 5.24934C10.4772 5.05059 10.5561 4.85997 10.6965 4.71934Z" fill="#0C0C0D" fill-opacity="0.88"/>
</svg>
