<svg width="20" height="20" viewBox="0 0 20 20" fill="none" xmlns="http://www.w3.org/2000/svg">
<path d="M16.0674 12.9433C16.0093 13.0015 15.9403 13.0477 15.8644 13.0792C15.7885 13.1107 15.7071 13.127 15.6249 13.127C15.5427 13.127 15.4612 13.1107 15.3853 13.0792C15.3094 13.0477 15.2404 13.0015 15.1824 12.9433L9.99986 7.75959L4.81736 12.9433C4.7 13.0607 4.54083 13.1266 4.37486 13.1266C4.20889 13.1266 4.04972 13.0607 3.93236 12.9433C3.815 12.826 3.74907 12.6668 3.74907 12.5008C3.74907 12.3349 3.815 12.1757 3.93236 12.0583L9.55736 6.43334C9.61542 6.37513 9.68439 6.32895 9.76032 6.29745C9.83625 6.26594 9.91765 6.24972 9.99986 6.24972C10.0821 6.24972 10.1635 6.26594 10.2394 6.29745C10.3153 6.32895 10.3843 6.37513 10.4424 6.43334L16.0674 12.0583C16.1256 12.1164 16.1717 12.1854 16.2032 12.2613C16.2348 12.3372 16.251 12.4186 16.251 12.5008C16.251 12.583 16.2348 12.6644 16.2032 12.7404C16.1717 12.8163 16.1256 12.8853 16.0674 12.9433Z" fill="#0C0C0D" fill-opacity="0.88"/>
</svg>
