<svg width="20" height="20" viewBox="0 0 20 20" fill="none" xmlns="http://www.w3.org/2000/svg">
<g id="Arrow/ico_dropdown_down_20_bk">
<path id="Vector" d="M3.93264 7.05666C3.9907 6.99846 4.05967 6.95228 4.1356 6.92077C4.21153 6.88926 4.29293 6.87305 4.37514 6.87305C4.45735 6.87305 4.53875 6.88926 4.61468 6.92077C4.69061 6.95228 4.75958 6.99846 4.81764 7.05666L10.0001 12.2404L15.1826 7.05666C15.3 6.93931 15.4592 6.87337 15.6251 6.87337C15.7911 6.87337 15.9503 6.93931 16.0676 7.05666C16.185 7.17402 16.2509 7.33319 16.2509 7.49916C16.2509 7.66513 16.185 7.82431 16.0676 7.94166L10.4426 13.5667C10.3846 13.6249 10.3156 13.671 10.2397 13.7026C10.1638 13.7341 10.0823 13.7503 10.0001 13.7503C9.91793 13.7503 9.83653 13.7341 9.7606 13.7026C9.68467 13.671 9.6157 13.6249 9.55764 13.5667L3.93264 7.94166C3.87444 7.88361 3.82826 7.81464 3.79675 7.73871C3.76524 7.66277 3.74902 7.58137 3.74902 7.49916C3.74902 7.41695 3.76524 7.33555 3.79675 7.25962C3.82826 7.18369 3.87444 7.11472 3.93264 7.05666Z" fill="#CFD4D9"/>
</g>
</svg>
