<svg width="12" height="12" viewBox="0 0 12 12" fill="none" xmlns="http://www.w3.org/2000/svg">
<g id="Arrow/ico_dropdown_up_12_gr">
<path id="Vector" d="M9.85311 8.85311C9.80666 8.89967 9.75149 8.93661 9.69074 8.96182C9.62999 8.98703 9.56487 9 9.49911 9C9.43334 9 9.36822 8.98703 9.30747 8.96182C9.24673 8.93661 9.19155 8.89967 9.14511 8.85311L5.99911 5.70611L2.85311 8.85311C2.75922 8.94699 2.63188 8.99974 2.49911 8.99974C2.36633 8.99974 2.23899 8.94699 2.14511 8.85311C2.05122 8.75922 1.99848 8.63188 1.99848 8.49911C1.99848 8.36633 2.05122 8.23899 2.14511 8.14511L5.64511 4.64511C5.69155 4.59854 5.74673 4.5616 5.80747 4.53639C5.86822 4.51119 5.93334 4.49821 5.99911 4.49821C6.06487 4.49821 6.12999 4.51119 6.19074 4.53639C6.25149 4.5616 6.30666 4.59854 6.35311 4.64511L9.85311 8.14511C9.89967 8.19155 9.93661 8.24673 9.96182 8.30747C9.98703 8.36822 10 8.43334 10 8.49911C10 8.56487 9.98703 8.62999 9.96182 8.69074C9.93661 8.75149 9.89967 8.80666 9.85311 8.85311Z" fill="#A4A9AE"/>
</g>
</svg>
