<svg width="12" height="12" viewBox="0 0 12 12" fill="none" xmlns="http://www.w3.org/2000/svg">
<path d="M4.20251 2.12719C4.94687 0.792397 5.31875 0.125 5.87511 0.125C6.43147 0.125 6.80336 0.792397 7.54772 2.12719L7.74042 2.47264C7.95191 2.85216 8.05766 3.04192 8.22216 3.16706C8.38666 3.2922 8.59229 3.33861 9.00354 3.43143L9.37718 3.51603C10.8224 3.84327 11.5445 4.0066 11.7166 4.55943C11.8881 5.11168 11.3958 5.68801 10.4106 6.84009L10.1556 7.13796C9.87597 7.46519 9.73556 7.6291 9.67269 7.8312C9.60983 8.03389 9.63098 8.25244 9.67328 8.68895L9.71206 9.08668C9.86069 10.6242 9.93531 11.3926 9.48528 11.7339C9.03526 12.0753 8.35846 11.7639 7.00604 11.1412L6.65531 10.9802C6.27108 10.8028 6.07897 10.7146 5.87511 10.7146C5.67125 10.7146 5.47914 10.8028 5.09491 10.9802L4.74477 11.1412C3.39176 11.7639 2.71496 12.0753 2.26553 11.7345C1.81492 11.3926 1.88953 10.6242 2.03817 9.08668L2.07694 8.68954C2.11924 8.25244 2.14039 8.03389 2.07694 7.83179C2.01467 7.6291 1.87425 7.46519 1.59461 7.13854L1.33963 6.84009C0.354399 5.6886 -0.137924 5.11227 0.0336254 4.55943C0.205175 4.0066 0.928384 3.84268 2.37363 3.51603L2.74728 3.43143C3.15794 3.33861 3.36297 3.2922 3.52806 3.16706C3.69315 3.04192 3.79831 2.85216 4.00981 2.47264L4.20251 2.12719Z" fill="white"/>
</svg>
