<svg width="25" height="24" viewBox="0 0 25 24" fill="none" xmlns="http://www.w3.org/2000/svg">
<g id="solar:link-minimalistic-linear">
<path id="Vector" d="M9.72656 12H15.7266M9.72656 18H8.72656C7.13526 18 5.60914 17.3679 4.48392 16.2426C3.3587 15.1174 2.72656 13.5913 2.72656 12C2.72656 10.4087 3.3587 8.88258 4.48392 7.75736C5.60914 6.63214 7.13526 6 8.72656 6H9.72656M15.7266 6H16.7266C18.3179 6 19.844 6.63214 20.9692 7.75736C22.0944 8.88258 22.7266 10.4087 22.7266 12C22.7266 13.5913 22.0944 15.1174 20.9692 16.2426C19.844 17.3679 18.3179 18 16.7266 18H15.7266" stroke="#3996F9" stroke-width="2" stroke-linecap="round"/>
</g>
</svg>
