<svg width="22" height="23" viewBox="0 0 22 23" fill="none" xmlns="http://www.w3.org/2000/svg">
<path fill-rule="evenodd" clip-rule="evenodd" d="M12.8333 20.7669H9.16658C5.70984 20.7669 3.981 20.7669 2.90759 19.6926C1.83417 18.6183 1.83325 16.8903 1.83325 13.4336V9.76693C1.83325 6.31018 1.83325 4.58134 2.90759 3.50793C3.98192 2.43451 5.719 2.43359 9.19408 2.43359C9.74958 2.43359 10.1942 2.43359 10.5691 2.44918C10.5569 2.52251 10.5508 2.59707 10.5508 2.67284L10.5416 5.27068C10.5416 6.27626 10.5416 7.16543 10.6378 7.88134C10.7423 8.65776 10.9816 9.43418 11.6159 10.0685C12.2484 10.701 13.0258 10.9412 13.8022 11.0457C14.5181 11.1419 15.4073 11.1419 16.4128 11.1419H20.1272C20.1666 11.6314 20.1666 12.2328 20.1666 13.033V13.4336C20.1666 16.8903 20.1666 18.6192 19.0923 19.6926C18.0179 20.766 16.29 20.7669 12.8333 20.7669Z" fill="#CFD4D9"/>
<path d="M10.5509 2.67125L10.5417 5.27C10.5417 6.27558 10.5417 7.16383 10.638 7.88067C10.7425 8.65708 10.9817 9.4335 11.6161 10.0669C12.2486 10.7003 13.0259 10.9405 13.8023 11.045C14.5182 11.1413 15.4074 11.1413 16.413 11.1413H20.1273C20.1396 11.283 20.1481 11.4358 20.153 11.5996H20.1667C20.1667 11.3539 20.1667 11.2311 20.1576 11.0862C20.088 10.215 19.7846 9.37862 19.2794 8.66533C19.1932 8.548 19.1346 8.47833 19.0182 8.33808C18.2912 7.46908 17.3342 6.38558 16.5001 5.64125C15.7576 4.97758 14.7392 4.2525 13.8509 3.66033C13.0882 3.15067 12.7069 2.89583 12.1835 2.707C12.031 2.65315 11.8763 2.60605 11.7197 2.56583C11.3677 2.47875 11.0248 2.4485 10.5417 2.4375L10.5509 2.67125Z" fill="#A4A9AE"/>
</svg>
