<svg width="16" height="16" viewBox="0 0 16 16" fill="none" xmlns="http://www.w3.org/2000/svg">
<g id="ico_file">
<path id="Vector" opacity="0.5" fill-rule="evenodd" clip-rule="evenodd" d="M9.33325 14.6654H6.66658C4.15259 14.6654 2.89525 14.6654 2.11459 13.884C1.33392 13.1027 1.33325 11.846 1.33325 9.33203V6.66536C1.33325 4.15136 1.33325 2.89403 2.11459 2.11336C2.89592 1.3327 4.15925 1.33203 6.68658 1.33203C7.09058 1.33203 7.41392 1.33203 7.68658 1.34336C7.6777 1.3967 7.67325 1.45092 7.67325 1.50603L7.66658 3.39536C7.66658 4.1267 7.66658 4.77336 7.73658 5.29403C7.81258 5.8587 7.98658 6.42336 8.44792 6.8847C8.90792 7.3447 9.47325 7.51936 10.0379 7.59536C10.5586 7.66536 11.2053 7.66536 11.9366 7.66536H14.6379C14.6666 8.02136 14.6666 8.4587 14.6666 9.0407V9.33203C14.6666 11.846 14.6666 13.1034 13.8853 13.884C13.1039 14.6647 11.8473 14.6654 9.33325 14.6654Z" fill="#F68486"/>
<path id="Vector_2" d="M7.67341 1.50594L7.66675 3.39594C7.66675 4.12727 7.66675 4.77327 7.73675 5.2946C7.81275 5.85927 7.98675 6.42394 8.44808 6.8846C8.90808 7.34527 9.47341 7.51994 10.0381 7.59594C10.5587 7.66594 11.2054 7.66594 11.9367 7.66594H14.6381C14.647 7.76905 14.6532 7.88016 14.6567 7.99927H14.6667C14.6667 7.8206 14.6667 7.73127 14.6601 7.62594C14.6094 6.99228 14.3888 6.38402 14.0214 5.86527C13.9587 5.77994 13.9161 5.72927 13.8314 5.62727C13.3027 4.99527 12.6067 4.20727 12.0001 3.66594C11.4601 3.18327 10.7194 2.65594 10.0734 2.22527C9.51875 1.8546 9.24141 1.66927 8.86075 1.53194C8.74987 1.49277 8.63731 1.45852 8.52341 1.42927C8.26741 1.36594 8.01808 1.34394 7.66675 1.33594L7.67341 1.50594Z" fill="#E32B31"/>
<g id="Group 3015">
<path id="Vector_3" d="M12.875 13.0023H0V8.62109H12.875V13.0023Z" fill="#DD2025"/>
<path id="Vector_4" d="M4.21975 9.31438H3.38159V12.3925H4.04339V11.3549L4.18961 11.3633C4.3311 11.3613 4.4713 11.336 4.60451 11.2882C4.72163 11.2485 4.82926 11.185 4.92067 11.1016C5.0137 11.0228 5.08667 10.923 5.13357 10.8105C5.1985 10.6237 5.22149 10.4249 5.20091 10.2282C5.19725 10.0877 5.17261 9.94848 5.1278 9.81522C5.08742 9.71891 5.02738 9.63209 4.95152 9.56031C4.87565 9.48853 4.78564 9.43338 4.68724 9.39839C4.60202 9.36667 4.51367 9.3441 4.42367 9.33106C4.35604 9.32004 4.28763 9.31447 4.2191 9.31438M4.0979 10.7855H4.04083V9.83639H4.16524C4.21986 9.83245 4.27467 9.84083 4.32562 9.86092C4.37657 9.88101 4.42235 9.9123 4.45959 9.95246C4.53674 10.0557 4.57796 10.1814 4.57694 10.3103C4.57694 10.468 4.57694 10.6111 4.43458 10.7117C4.33204 10.7682 4.21528 10.7936 4.09854 10.7848M6.45205 9.30605C6.38086 9.30605 6.31161 9.31118 6.26287 9.3131L6.11217 9.31695H5.61197V12.3951H6.20066C6.42561 12.4009 6.64953 12.3628 6.8599 12.2829C7.02927 12.216 7.17919 12.1077 7.29597 11.968C7.41041 11.8277 7.49212 11.6636 7.53517 11.4877C7.58575 11.2888 7.61032 11.0843 7.60828 10.8791C7.62083 10.6368 7.60208 10.3939 7.55248 10.1564C7.50501 9.98176 7.41714 9.82074 7.29597 9.68633C7.20093 9.57764 7.08402 9.49023 6.95289 9.42981C6.84055 9.37774 6.72234 9.33942 6.60082 9.31567C6.5525 9.30775 6.50357 9.3041 6.45461 9.30476M6.3379 11.8295H6.27377V9.8646H6.28211C6.41431 9.84932 6.5481 9.87317 6.66687 9.93322C6.75387 10.0027 6.82476 10.0902 6.87465 10.1897C6.92849 10.2945 6.95952 10.4094 6.96571 10.527C6.97148 10.6681 6.96571 10.7836 6.96571 10.8791C6.96808 10.9892 6.961 11.0992 6.94455 11.2081C6.92437 11.3197 6.88786 11.4278 6.83617 11.5287C6.77779 11.6229 6.69804 11.702 6.60339 11.7596C6.52433 11.8109 6.43059 11.8348 6.33661 11.8276M9.5924 9.31695H8.03409V12.3951H8.69332V11.1741H9.52699V10.6021H8.69332V9.88897H9.59112V9.31695" fill="white"/>
</g>
</g>
</svg>
