<svg width="16" height="16" viewBox="0 0 16 16" fill="none" xmlns="http://www.w3.org/2000/svg">
<g id="ico_file" clip-path="url(#clip0_5907_87132)">
<g id="Group 3010">
<mask id="mask0_5907_87132" style="mask-type:alpha" maskUnits="userSpaceOnUse" x="1" y="1" width="14" height="14">
<rect id="Rectangle 4026" x="1.33325" y="1.33203" width="13.3333" height="13.332" rx="3" fill="#D9D9D9"/>
</mask>
<g mask="url(#mask0_5907_87132)">
<rect id="Rectangle 4029" x="1.33325" y="1.33203" width="13.3333" height="13.332" rx="3" fill="#D1D4D7"/>
<g id="Group 3011">
<path id="Vector" d="M8.21346 7.67422L0.937256 6.69922V13.9037C0.937169 13.982 0.957404 14.0596 0.9968 14.1319C1.0362 14.2043 1.09398 14.27 1.16683 14.3253C1.23969 14.3806 1.32619 14.4245 1.42136 14.4543C1.51654 14.4842 1.61853 14.4994 1.72147 14.4992H14.2769C14.3799 14.4995 14.482 14.4844 14.5774 14.4546C14.6727 14.4248 14.7594 14.381 14.8324 14.3257C14.9053 14.2703 14.9632 14.2046 15.0027 14.1321C15.0422 14.0597 15.0625 13.9821 15.0624 13.9037V11.2492L8.21346 7.67422Z" fill="#185C37"/>
<path id="Vector_2" d="M8.21346 1.5H1.72147C1.61853 1.4998 1.51654 1.51507 1.42136 1.54491C1.32619 1.57475 1.23969 1.6186 1.16683 1.67392C1.09398 1.72924 1.0362 1.79496 0.9968 1.8673C0.957404 1.93965 0.937169 2.0172 0.937256 2.0955V4.75L8.21346 8L12.0662 8.975L15.0624 8V4.75L8.21346 1.5Z" fill="#21A366"/>
<path id="Vector_3" d="M0.937256 4.75H8.21346V8H0.937256V4.75Z" fill="#107C41"/>
<path id="Vector_4" opacity="0.1" d="M6.14478 4.10156H0.937256V12.2266H6.14478C6.35229 12.2258 6.55103 12.1628 6.69794 12.0514C6.84485 11.9399 6.92811 11.7889 6.92966 11.6311V4.69706C6.92811 4.53923 6.84485 4.38822 6.69794 4.27676C6.55103 4.16529 6.35229 4.10235 6.14478 4.10156Z" fill="black"/>
<path id="Vector_5" opacity="0.2" d="M5.71685 4.42578H0.937256V12.5508H5.71685C5.92435 12.55 6.12309 12.4871 6.27001 12.3756C6.41692 12.2641 6.50017 12.1131 6.50172 11.9553V5.02128C6.50017 4.86345 6.41692 4.71244 6.27001 4.60098C6.12309 4.48951 5.92435 4.42657 5.71685 4.42578Z" fill="black"/>
<path id="Vector_6" opacity="0.2" d="M5.28891 4.42578H0.937256V11.9008H5.28891C5.49642 11.9 5.69516 11.8371 5.84207 11.7256C5.98898 11.6141 6.07224 11.4631 6.07379 11.3053V5.02128C6.07224 4.86345 5.98898 4.71244 5.84207 4.60098C5.69516 4.48951 5.49642 4.42657 5.28891 4.42578Z" fill="black"/>
<path id="Vector_7" d="M14.2774 1.5H8.21338V4.75H15.0623V2.0955C15.0624 2.01716 15.0421 1.93957 15.0027 1.86719C14.9633 1.79481 14.9054 1.72907 14.8325 1.67374C14.7596 1.61841 14.673 1.57458 14.5777 1.54477C14.4825 1.51495 14.3804 1.49974 14.2774 1.5Z" fill="#33C481"/>
<path id="Vector_8" d="M8.21338 8H15.0623V11.25H8.21338V8Z" fill="#107C41"/>
</g>
<path id="Vector_9" opacity="0.2" d="M7.48906 4.20312H1.33325V12.6877H7.48906C7.75631 12.6868 8.01228 12.6153 8.20149 12.4888C8.39071 12.3623 8.49793 12.1909 8.49993 12.0118V4.87905C8.49793 4.69991 8.39071 4.5285 8.20149 4.40198C8.01228 4.27546 7.75631 4.20402 7.48906 4.20312Z" fill="black"/>
</g>
</g>
<g id="Group 3009">
<path id="Vector_10" d="M0.67763 4.20313H7.45279C7.63226 4.20298 7.80445 4.27409 7.93151 4.40083C8.05858 4.52758 8.13012 4.69959 8.13042 4.87906V11.6429C8.13012 11.8223 8.05858 11.9943 7.93151 12.1211C7.80445 12.2478 7.63226 12.3189 7.45279 12.3188H0.67763C0.588702 12.3191 0.50059 12.3018 0.418353 12.268C0.336115 12.2341 0.26137 12.1844 0.198409 12.1216C0.135448 12.0588 0.0855104 11.9842 0.051462 11.902C0.0174135 11.8199 -7.49907e-05 11.7318 2.41697e-07 11.6429V4.87906C-7.49907e-05 4.79013 0.0174135 4.70206 0.051462 4.61991C0.0855104 4.53775 0.135448 4.46314 0.198409 4.40033C0.26137 4.33753 0.336115 4.28778 0.418353 4.25394C0.50059 4.2201 0.588702 4.20283 0.67763 4.20313Z" fill="url(#paint0_linear_5907_87132)"/>
<path id="Vector_11" d="M2.09985 10.4586L3.52492 8.2543L2.2196 6.0625H3.26783L3.98008 7.466C4.04591 7.5988 4.09358 7.69755 4.11515 7.76338H4.1248C4.17133 7.65707 4.22052 7.55378 4.27235 7.45351L5.03398 6.06477H5.99878L4.65998 8.24408L6.03283 10.4603H5.00617L4.18325 8.92171C4.14515 8.85551 4.11269 8.78621 4.08621 8.71456H4.07258C4.04853 8.78439 4.01654 8.85123 3.97724 8.91377L3.12992 10.4586H2.09985Z" fill="white"/>
</g>
</g>
<defs>
<linearGradient id="paint0_linear_5907_87132" x1="1.41542" y1="3.67192" x2="6.715" y2="12.85" gradientUnits="userSpaceOnUse">
<stop stop-color="#18884F"/>
<stop offset="0.5" stop-color="#117E43"/>
<stop offset="1" stop-color="#0B6631"/>
</linearGradient>
<clipPath id="clip0_5907_87132">
<rect width="16" height="16" fill="white"/>
</clipPath>
</defs>
</svg>
