<svg xmlns="http://www.w3.org/2000/svg" width="16" height="16" viewBox="0 0 16 16" fill="none">
  <path fill-rule="evenodd" clip-rule="evenodd" d="M9.33325 14.6654H6.66658C4.15259 14.6654 2.89525 14.6654 2.11459 13.884C1.33392 13.1027 1.33325 11.846 1.33325 9.33203V6.66536C1.33325 4.15136 1.33325 2.89403 2.11459 2.11336C2.89592 1.3327 4.15925 1.33203 6.68658 1.33203C7.09058 1.33203 7.41392 1.33203 7.68658 1.34336C7.6777 1.3967 7.67325 1.45092 7.67325 1.50603L7.66658 3.39536C7.66658 4.1267 7.66658 4.77336 7.73658 5.29403C7.81258 5.8587 7.98658 6.42336 8.44792 6.8847C8.90792 7.3447 9.47325 7.51936 10.0379 7.59536C10.5586 7.66536 11.2053 7.66536 11.9366 7.66536H14.6379C14.6666 8.02136 14.6666 8.4587 14.6666 9.0407V9.33203C14.6666 11.846 14.6666 13.1034 13.8853 13.884C13.1039 14.6647 11.8473 14.6654 9.33325 14.6654Z" fill="#5BABFB"/>
  <path d="M7.67341 1.50594L7.66675 3.39594C7.66675 4.12727 7.66675 4.77327 7.73675 5.2946C7.81275 5.85927 7.98675 6.42394 8.44808 6.8846C8.90808 7.34527 9.47341 7.51994 10.0381 7.59594C10.5587 7.66594 11.2054 7.66594 11.9367 7.66594H14.6381C14.647 7.76905 14.6532 7.88016 14.6567 7.99927H14.6667C14.6667 7.8206 14.6667 7.73127 14.6601 7.62594C14.6094 6.99228 14.3888 6.38402 14.0214 5.86527C13.9587 5.77994 13.9161 5.72927 13.8314 5.62727C13.3027 4.99527 12.6067 4.20727 12.0001 3.66594C11.4601 3.18327 10.7194 2.65594 10.0734 2.22527C9.51875 1.8546 9.24142 1.66927 8.86075 1.53194C8.74987 1.49277 8.63731 1.45852 8.52341 1.42927C8.26741 1.36594 8.01808 1.34394 7.66675 1.33594L7.67341 1.50594Z" fill="#0871F3"/>
</svg>