<svg width="16" height="16" viewBox="0 0 16 16" fill="none" xmlns="http://www.w3.org/2000/svg">
<g id="ico_file">
<g id="Group 3014">
<mask id="mask0_5907_87143" style="mask-type:alpha" maskUnits="userSpaceOnUse" x="1" y="1" width="14" height="14">
<rect id="Rectangle 4026" x="1.33325" y="1.33203" width="13.3333" height="13.332" rx="3" fill="#D9D9D9"/>
</mask>
<g mask="url(#mask0_5907_87143)">
<rect id="Rectangle 4029" x="1.33325" y="1.33203" width="13.3333" height="13.332" rx="3" fill="#2166C3"/>
<g id="Group 3013">
<path id="Vector" d="M14.5554 1.33203H1.44391C1.33641 1.33183 1.22991 1.34748 1.13052 1.37808C1.03114 1.40867 0.940813 1.45362 0.864734 1.51034C0.788656 1.56706 0.728317 1.63444 0.687178 1.70861C0.646039 1.78278 0.62491 1.86228 0.625 1.94257V4.66407L8.22306 6.33008L15.375 4.66407V1.94257C15.375 1.86224 15.3539 1.78269 15.3127 1.70849C15.2715 1.63429 15.2111 1.56689 15.135 1.51016C15.0588 1.45343 14.9684 1.4085 14.869 1.37793C14.7695 1.34736 14.6629 1.33176 14.5554 1.33203Z" fill="#41A5EE"/>
<path id="Vector_2" d="M15.375 4.66406H0.625V7.99609L8.22307 8.9957L15.375 7.99609V4.66406Z" fill="#2B7CD3"/>
<path id="Vector_3" d="M0.625 7.99609V11.3281L7.7762 11.9945L15.375 11.3281V7.99609H0.625Z" fill="#185ABD"/>
<path id="Vector_4" d="M1.44391 14.6602H14.5547C14.6623 14.6605 14.7689 14.6449 14.8685 14.6144C14.968 14.5839 15.0585 14.5389 15.1347 14.4822C15.211 14.4255 15.2714 14.3581 15.3126 14.2838C15.3539 14.2096 15.375 14.13 15.375 14.0496V11.3281H0.625V14.0496C0.62491 14.1299 0.646039 14.2094 0.687178 14.2836C0.728317 14.3578 0.788656 14.4251 0.864734 14.4818C0.940813 14.5386 1.03114 14.5835 1.13052 14.6141C1.22991 14.6447 1.33641 14.6604 1.44391 14.6602Z" fill="#103F91"/>
</g>
<path id="Vector_5" opacity="0.2" d="M7.30106 4.01953H0V12.5041H7.30106C7.61804 12.5032 7.92162 12.4318 8.14604 12.3052C8.37045 12.1787 8.49763 12.0073 8.5 11.8282V4.69546C8.49763 4.51631 8.37045 4.34491 8.14604 4.21839C7.92162 4.09187 7.61804 4.02042 7.30106 4.01953Z" fill="black"/>
</g>
</g>
<g id="Group 3012">
<path id="Vector_6" d="M0.677595 3.94141H7.45241C7.63187 3.94126 7.80404 4.01237 7.9311 4.1391C8.05816 4.26584 8.1297 4.43784 8.13 4.6173V11.3808C8.1297 11.5602 8.05816 11.7322 7.9311 11.859C7.80404 11.9857 7.63187 12.0568 7.45241 12.0567H0.677595C0.588671 12.057 0.500564 12.0397 0.418331 12.0058C0.336097 11.972 0.261357 11.9223 0.198399 11.8595C0.135441 11.7967 0.0855059 11.722 0.0514593 11.6399C0.0174126 11.5578 -7.49868e-05 11.4697 2.41685e-07 11.3808V4.6173C-7.49868e-05 4.52838 0.0174126 4.44031 0.0514593 4.35817C0.0855059 4.27602 0.135441 4.2014 0.198399 4.1386C0.261357 4.0758 0.336097 4.02606 0.418331 3.99222C0.500564 3.95838 0.588671 3.94111 0.677595 3.94141Z" fill="url(#paint0_linear_5907_87143)"/>
<path id="Vector_7" d="M2.7806 9.12306C2.79384 9.22748 2.80254 9.31847 2.8067 9.39602H2.82259C2.82827 9.32225 2.84057 9.23334 2.85948 9.1293C2.88786 8.97324 2.89467 8.93748 2.90999 8.86541L3.6222 5.79694H4.54382L5.28157 8.81944C5.32417 9.00648 5.35488 9.19603 5.37351 9.38694H5.38599C5.40015 9.20111 5.42573 9.01632 5.4626 8.83363L6.05224 5.79297H6.89043L5.85531 10.19H4.87524L4.17324 7.28095C4.15281 7.19696 4.12974 7.08762 4.10401 6.95294C4.07828 6.81825 4.06239 6.71989 4.05634 6.65784H4.04442C4.03648 6.72934 4.02059 6.83547 3.99675 6.97621C3.97292 7.11695 3.954 7.22137 3.94 7.28947L3.28 10.1917H2.28347L1.24268 5.79694H2.09393L2.73577 8.87165C2.75448 8.95474 2.76944 9.03863 2.7806 9.12306Z" fill="white"/>
</g>
</g>
<defs>
<linearGradient id="paint0_linear_5907_87143" x1="1.41534" y1="3.41023" x2="6.71466" y2="12.5878" gradientUnits="userSpaceOnUse">
<stop stop-color="#2368C4"/>
<stop offset="0.5" stop-color="#1A5DBE"/>
<stop offset="1" stop-color="#1146AC"/>
</linearGradient>
</defs>
</svg>
