<svg width="16" height="16" viewBox="0 0 16 16" fill="none" xmlns="http://www.w3.org/2000/svg">
<mask id="mask0_5907_87238" style="mask-type:alpha" maskUnits="userSpaceOnUse" x="1" y="1" width="14" height="14">
<rect x="1.33325" y="1.33203" width="13.3333" height="13.332" rx="3" fill="#D9D9D9"/>
</mask>
<g mask="url(#mask0_5907_87238)">
<rect x="1.33325" y="1.33203" width="13.3333" height="13.332" rx="3" fill="#2166C3"/>
<path d="M9.29579 8.8625L8.00005 -0.625H7.90319C5.6411 -0.621157 3.47253 0.278069 1.8715 1.87612C0.270464 3.47417 -0.632806 5.64106 -0.640869 7.90313V8L9.29579 8.8625Z" fill="#ED6C47"/>
<path d="M8.09687 -0.625H8V8L12.3198 9.725L16.6403 8V7.90314C16.6322 5.64117 15.729 3.47438 14.1281 1.87635C12.5272 0.278322 10.3588 -0.620981 8.09687 -0.625Z" fill="#FF8F6B"/>
<path d="M16.6403 8V8.09487C16.6319 10.3573 15.7284 12.5244 14.1272 14.1227C12.526 15.721 10.3573 16.6206 8.09493 16.625H7.90452C5.64223 16.6203 3.47372 15.7205 1.87261 14.1223C0.271501 12.524 -0.63211 10.3572 -0.640869 8.09487V8H16.6403Z" fill="#D35230"/>
<path opacity="0.2" d="M7.30106 4.01953H0V12.5041H7.30106C7.61804 12.5032 7.92162 12.4318 8.14604 12.3052C8.37045 12.1787 8.49763 12.0073 8.5 11.8282V4.69546C8.49763 4.51631 8.37045 4.34491 8.14604 4.21839C7.92162 4.09187 7.61804 4.02042 7.30106 4.01953Z" fill="black"/>
</g>
<path d="M0.677595 3.94141H7.45241C7.63187 3.94126 7.80404 4.01237 7.9311 4.1391C8.05816 4.26584 8.1297 4.43784 8.13 4.6173V11.3808C8.1297 11.5602 8.05816 11.7322 7.9311 11.859C7.80404 11.9857 7.63187 12.0568 7.45241 12.0567H0.677595C0.588671 12.057 0.500564 12.0397 0.418331 12.0058C0.336097 11.972 0.261357 11.9223 0.198399 11.8595C0.135441 11.7967 0.0855059 11.722 0.0514593 11.6399C0.0174126 11.5578 -7.49868e-05 11.4697 2.41685e-07 11.3808V4.6173C-7.49868e-05 4.52838 0.0174126 4.44031 0.0514593 4.35817C0.0855059 4.27602 0.135441 4.2014 0.198399 4.1386C0.261357 4.0758 0.336097 4.02606 0.418331 3.99222C0.500564 3.95838 0.588671 3.94111 0.677595 3.94141Z" fill="url(#paint0_linear_5907_87238)"/>
<path d="M4.41207 5.7973C4.88403 5.76624 5.35176 5.90307 5.73255 6.1836C5.889 6.32287 6.01166 6.49595 6.09123 6.68971C6.17079 6.88346 6.20517 7.09279 6.19175 7.30182C6.19689 7.59624 6.11832 7.88608 5.96519 8.1376C5.80983 8.3848 5.5865 8.58198 5.32195 8.70551C5.01951 8.84594 4.68896 8.91533 4.35559 8.90838H3.43659V10.6091H2.49756V5.7973H4.41207ZM3.43599 8.17343H4.24443C4.50073 8.19163 4.75487 8.11584 4.95934 7.96024C5.04289 7.88054 5.10795 7.78349 5.14993 7.67592C5.19191 7.56835 5.20978 7.45288 5.2023 7.33766C5.2023 6.8076 4.89354 6.54237 4.27602 6.54197H3.43599V8.17343Z" fill="white"/>
<defs>
<linearGradient id="paint0_linear_5907_87238" x1="1.41534" y1="3.41023" x2="6.71466" y2="12.5878" gradientUnits="userSpaceOnUse">
<stop stop-color="#CA4C28"/>
<stop offset="0.5" stop-color="#C5401E"/>
<stop offset="1" stop-color="#B62F14"/>
</linearGradient>
</defs>
</svg>
