<svg width="181" height="24" viewBox="0 0 181 24" fill="none" xmlns="http://www.w3.org/2000/svg">
<g id="Layer 1">
<g id="Group">
<g id="Group_2">
<g id="Group_3">
<path id="Vector" d="M0 8.52344V11.0871H5.32034V23.7714H8.44462V11.0871H13.7695V8.52344H0Z" fill="#301D0E"/>
<path id="Vector_2" d="M35.395 8.52344L33.1446 18.2697L33.0405 18.7958C33.0405 18.7958 32.9907 19.0098 32.9544 19.1747C32.8639 18.8314 32.7688 18.4971 32.7009 18.2786L29.6943 8.5279H27.0545L24.0933 18.0735C24.0933 18.0735 23.9348 18.6888 23.7989 19.2238C23.6767 18.6665 23.5499 18.0646 23.5499 18.0646L21.3176 8.5279H18.1526L21.9832 23.7714H24.9898L28.0099 14.0341C28.0099 14.0341 28.1956 13.3208 28.3495 12.7545C28.5035 13.3431 28.6891 14.0341 28.6891 14.0341L31.5734 23.7714H34.6298L38.4559 8.5279H35.395V8.52344Z" fill="#301D0E"/>
<path id="Vector_3" d="M51.1567 8.28906C46.4205 8.28906 43.2373 11.4501 43.2373 16.1449C43.2373 20.8397 46.4205 24.0007 51.1567 24.0007C55.8929 24.0007 59.1032 20.8486 59.1032 16.1449C59.1032 11.4412 55.911 8.28906 51.1567 8.28906ZM51.1567 21.397C48.1411 21.397 46.4159 19.4798 46.4159 16.1449C46.4159 12.81 48.1456 10.8928 51.1567 10.8928C54.1678 10.8928 55.9156 12.8055 55.9156 16.1449C55.9156 19.4843 54.1859 21.397 51.1567 21.397Z" fill="#301D0E"/>
</g>
<g id="Group_4">
<path id="Vector_4" d="M85.7911 19.6225C84.8221 20.8664 83.663 21.397 81.9197 21.397C78.9313 21.397 77.2016 19.4798 77.2016 16.1449C77.2016 12.81 78.9313 10.8928 81.9197 10.8928C83.8486 10.8928 84.709 11.5215 85.5511 12.6093L85.6508 12.7297L88.4128 11.3297L88.2906 11.1514C86.9548 9.22534 84.8674 8.28906 81.9197 8.28906C77.1835 8.28906 74.0049 11.4501 74.0049 16.1449C74.0049 20.8397 77.1835 24.0007 81.9197 24.0007C84.7225 24.0007 87.0182 22.9575 88.363 21.076L88.4988 20.9066L85.8817 19.4888L85.7866 19.6225H85.7911Z" fill="#301D0E"/>
<path id="Vector_5" d="M105.719 8.52344V14.5335H97.6997V8.52344H94.5664V23.767H97.6997V17.0971H105.719V23.767H108.834V8.52344H105.719Z" fill="#301D0E"/>
<path id="Vector_6" d="M123.581 8.52344H120.566L113.824 23.767H117.084C117.084 23.767 118.501 20.4588 118.601 20.2403H125.651C125.746 20.4588 127.199 23.767 127.199 23.767H130.532L123.708 8.52344H123.586M124.65 17.8684H119.588C119.778 17.4226 120.942 14.7296 120.942 14.7296C121.336 13.8157 121.816 12.5717 122.092 11.787C122.345 12.4469 122.753 13.4055 123.097 14.2348L123.287 14.7118C123.287 14.7118 124.32 17.0926 124.646 17.8684H124.65Z" fill="#301D0E"/>
<path id="Vector_7" d="M135.639 8.52344V23.767H138.764V16.1452V8.52344H138.569H135.639Z" fill="#301D0E"/>
<path id="Vector_8" d="M161.095 13.1959C160.991 10.3291 158.926 8.53235 155.186 8.53235L147.557 8.52344H147.362V23.767H150.437V17.8818H154.263C154.367 18.0557 157.885 23.767 157.885 23.767H161.489C161.489 23.767 157.967 18.0155 157.722 17.6232C159.225 17.2531 161.104 15.8844 161.104 13.1959M150.432 11.0024C150.79 11.0024 155.186 11.0157 155.186 11.0157C157.011 11.0157 158.098 11.8405 158.098 13.2271C158.098 14.6137 157.038 15.4252 155.186 15.4252C155.186 15.4252 150.794 15.4073 150.432 15.4073V11.0024Z" fill="#301D0E"/>
<path id="Vector_9" d="M174.711 14.6469C171.424 13.8488 170.871 13.3405 170.871 12.5157C170.871 11.4769 171.935 10.8527 173.724 10.8527C175.512 10.8527 176.717 11.2762 177.853 12.2304L177.98 12.3374L177.998 12.3151L179.909 10.2642C178.161 8.92217 176.264 8.28906 173.932 8.28906C170.269 8.28906 167.72 10.068 167.72 12.6227C167.72 15.5475 169.929 16.2965 173.579 17.1793C176.59 17.9149 177.55 18.4678 177.55 19.4665C177.55 20.7996 176.377 21.446 173.959 21.446C172.311 21.446 170.532 20.7906 169.341 19.7251L169.223 19.627L169.01 19.7919L167.253 21.669C168.911 23.1804 171.206 24.0097 173.756 24.0097C179.796 24.0097 180.706 21.0715 180.706 19.3193C180.706 16.3812 177.989 15.4717 174.715 14.6558L174.711 14.6469Z" fill="#301D0E"/>
</g>
</g>
<g id="Group_5">
<path id="Vector_10" d="M133.244 5.75144L130.319 2.88018L133.244 0L136.164 2.88018L133.244 5.75144Z" fill="#301D0E"/>
<path id="Vector_11" d="M141.018 5.76371L138.093 2.88799L141.018 0.0078125L143.943 2.88799L141.018 5.76371Z" fill="#301D0E"/>
</g>
</g>
</g>
</svg>
