<svg width="147" height="26" viewBox="0 0 147 26" fill="none" xmlns="http://www.w3.org/2000/svg">
<path d="M4 12.0666C4 8.00852 7.28976 4.71875 11.3479 4.71875H23.702V21.1434H11.3479C7.28977 21.1434 4 17.8537 4 13.7956V12.0666Z" fill="url(#paint0_linear_4522_69327)"/>
<ellipse cx="23.7043" cy="12.9966" rx="10.048" ry="10.2154" fill="#0028A0"/>
<path d="M56.7017 9.78C56.7017 10.8893 56.4417 11.9033 55.9217 12.822C55.419 13.7233 54.6477 14.4513 53.6077 15.006C52.585 15.5433 51.3283 15.812 49.8377 15.812H47.3157V22H42.2197V3.67H49.8377C51.311 3.67 52.559 3.93 53.5817 4.45C54.6217 4.97 55.4017 5.68933 55.9217 6.608C56.4417 7.52667 56.7017 8.584 56.7017 9.78ZM49.3437 11.756C50.7823 11.756 51.5017 11.0973 51.5017 9.78C51.5017 8.44533 50.7823 7.778 49.3437 7.778H47.3157V11.756H49.3437ZM69.449 12.588C70.5236 12.8307 71.373 13.368 71.997 14.2C72.6383 15.0147 72.959 15.9507 72.959 17.008C72.959 18.568 72.4216 19.79 71.347 20.674C70.2723 21.558 68.7643 22 66.823 22H57.749V3.67H66.537C68.409 3.67 69.8736 4.086 70.931 4.918C72.0056 5.75 72.543 6.92 72.543 8.428C72.543 9.50267 72.257 10.404 71.685 11.132C71.1303 11.8427 70.385 12.328 69.449 12.588ZM62.845 10.95H65.419C66.7016 10.95 67.343 10.4213 67.343 9.364C67.343 8.272 66.7016 7.726 65.419 7.726H62.845V10.95ZM65.809 17.892C67.0916 17.892 67.733 17.3547 67.733 16.28C67.733 15.7253 67.5596 15.3007 67.213 15.006C66.8836 14.7113 66.407 14.564 65.783 14.564H62.845V17.892H65.809Z" fill="#0028A0"/>
<path d="M103.361 3.67L98.8629 22H92.5969L90.0749 10.768L87.5009 22H81.2349L76.7889 3.67H82.3009L84.4329 16.202L87.3189 3.67H92.9089L95.7169 16.098L97.8489 3.67H103.361ZM113.311 22.182C111.595 22.182 110.018 21.7833 108.579 20.986C107.141 20.1713 105.997 19.0533 105.147 17.632C104.315 16.1933 103.899 14.5727 103.899 12.77C103.899 10.9673 104.315 9.35533 105.147 7.934C105.997 6.49533 107.141 5.37733 108.579 4.58C110.018 3.78267 111.595 3.384 113.311 3.384C115.045 3.384 116.622 3.78267 118.043 4.58C119.482 5.37733 120.617 6.49533 121.449 7.934C122.281 9.35533 122.697 10.9673 122.697 12.77C122.697 14.5727 122.281 16.1933 121.449 17.632C120.617 19.0533 119.482 20.1713 118.043 20.986C116.605 21.7833 115.027 22.182 113.311 22.182ZM113.311 17.45C114.611 17.45 115.634 17.0253 116.379 16.176C117.142 15.3267 117.523 14.1913 117.523 12.77C117.523 11.314 117.142 10.17 116.379 9.338C115.634 8.48867 114.611 8.064 113.311 8.064C111.994 8.064 110.963 8.48867 110.217 9.338C109.472 10.17 109.099 11.314 109.099 12.77C109.099 14.2087 109.472 15.3527 110.217 16.202C110.963 17.034 111.994 17.45 113.311 17.45ZM140.966 22H135.87L129.084 11.756V22H123.988V3.67H129.084L135.87 14.044V3.67H140.966V22Z" fill="#0CC1F3"/>
<defs>
<linearGradient id="paint0_linear_4522_69327" x1="4" y1="12.9311" x2="23.702" y2="12.9311" gradientUnits="userSpaceOnUse">
<stop stop-color="#33CBF5"/>
<stop offset="1" stop-color="#33CBF5" stop-opacity="0"/>
</linearGradient>
</defs>
</svg>
