<svg width="24" height="24" viewBox="0 0 24 24" fill="none" xmlns="http://www.w3.org/2000/svg">
<circle cx="12" cy="12" r="12" fill="#748495" fill-opacity="0.05"/>
<path d="M8.82032 8.11091C8.72655 8.01714 8.59937 7.96447 8.46676 7.96447C8.33415 7.96447 8.20698 8.01714 8.11321 8.11091C8.01944 8.20468 7.96676 8.33186 7.96676 8.46447C7.96676 8.59707 8.01944 8.72425 8.11321 8.81802L11.2952 12L8.11321 15.182C8.01944 15.2757 7.96676 15.4029 7.96676 15.5355C7.96676 15.6681 8.01944 15.7953 8.11321 15.8891C8.20698 15.9829 8.33415 16.0355 8.46676 16.0355C8.59937 16.0355 8.72655 15.9829 8.82032 15.8891L12.0023 12.7071L15.1843 15.8891C15.278 15.9829 15.4052 16.0355 15.5378 16.0355C15.6704 16.0355 15.7976 15.9829 15.8914 15.8891C15.9852 15.7953 16.0378 15.6681 16.0378 15.5355C16.0378 15.4029 15.9852 15.2757 15.8914 15.182L12.7094 12L15.8914 8.81802C15.9852 8.72425 16.0378 8.59707 16.0378 8.46447C16.0378 8.33186 15.9852 8.20468 15.8914 8.11091C15.7976 8.01714 15.6704 7.96447 15.5378 7.96447C15.4052 7.96447 15.278 8.01714 15.1843 8.11091L12.0023 11.2929L8.82032 8.11091Z" fill="#A4A9AE"/>
</svg>
