<svg width="24" height="24" viewBox="0 0 24 24" fill="none" xmlns="http://www.w3.org/2000/svg">
<path d="M3.71813 12.7352C3.61882 12.5029 3.56763 12.2529 3.56763 12.0002C3.56763 11.7476 3.61882 11.4975 3.71813 11.2652C4.52613 9.34522 5.81813 7.73022 7.43413 6.61822C9.05013 5.50622 10.9221 4.94522 12.8191 5.00422C14.7161 4.94522 16.5871 5.50622 18.2041 6.61822C19.8211 7.73022 21.1121 9.34522 21.9201 11.2652C22.0194 11.4975 22.0706 11.7476 22.0706 12.0002C22.0706 12.2529 22.0194 12.5029 21.9201 12.7352C21.1121 14.6552 19.8201 16.2702 18.2041 17.3822C16.5881 18.4942 14.7161 19.0552 12.8191 18.9962C10.9221 19.0552 9.05113 18.4942 7.43413 17.3822C5.81713 16.2702 4.52613 14.6552 3.71913 12.7352" stroke="#0C0C0D" stroke-opacity="0.88" stroke-width="1.5" stroke-linecap="round" stroke-linejoin="round"/>
<path d="M12.8191 15.5C13.2787 15.5 13.7338 15.4095 14.1585 15.2336C14.5831 15.0577 14.969 14.7999 15.294 14.4749C15.619 14.1499 15.8768 13.764 16.0527 13.3394C16.2286 12.9148 16.3191 12.4596 16.3191 12C16.3191 11.5404 16.2286 11.0852 16.0527 10.6606C15.8768 10.236 15.619 9.85013 15.294 9.52513C14.969 9.20012 14.5831 8.94231 14.1585 8.76642C13.7338 8.59053 13.2787 8.5 12.8191 8.5C11.8908 8.5 11.0006 8.86875 10.3442 9.52513C9.68784 10.1815 9.31909 11.0717 9.31909 12C9.31909 12.9283 9.68784 13.8185 10.3442 14.4749C11.0006 15.1313 11.8908 15.5 12.8191 15.5Z" stroke="#0C0C0D" stroke-opacity="0.88" stroke-width="1.5" stroke-linecap="round" stroke-linejoin="round"/>
</svg>
