<svg width="40" height="40" viewBox="0 0 40 40" fill="none" xmlns="http://www.w3.org/2000/svg">
<g id="ico_round-alt-arrow-down">
<path id="Vector" opacity="0.5" d="M36.6673 19.9948C36.6673 10.7898 29.2057 3.32812 20.0007 3.32812C10.7957 3.32812 3.33398 10.7898 3.33398 19.9948C3.33398 29.1998 10.7957 36.6615 20.0007 36.6615C29.2057 36.6615 36.6673 29.1998 36.6673 19.9948Z" fill="#F8F9FA"/>
<path id="Vector_2" d="M25.8834 18.4157C26.0062 18.3012 26.1047 18.1632 26.173 18.0099C26.2414 17.8566 26.2781 17.6911 26.2811 17.5232C26.284 17.3554 26.2531 17.1887 26.1903 17.033C26.1274 16.8774 26.0338 16.736 25.9151 16.6173C25.7964 16.4986 25.655 16.405 25.4994 16.3421C25.3438 16.2793 25.177 16.2484 25.0092 16.2514C24.8414 16.2543 24.6758 16.2911 24.5225 16.3594C24.3692 16.4277 24.2312 16.5262 24.1167 16.649L20.0001 20.7657L15.8834 16.649C15.769 16.5262 15.631 16.4277 15.4776 16.3594C15.3243 16.2911 15.1588 16.2543 14.9909 16.2514C14.8231 16.2484 14.6564 16.2793 14.5007 16.3421C14.3451 16.405 14.2037 16.4986 14.085 16.6173C13.9663 16.736 13.8727 16.8774 13.8099 17.033C13.747 17.1887 13.7161 17.3554 13.7191 17.5232C13.722 17.6911 13.7588 17.8566 13.8271 18.0099C13.8954 18.1632 13.9939 18.3012 14.1167 18.4157L19.1167 23.4157C19.3511 23.6498 19.6688 23.7812 20.0001 23.7812C20.3313 23.7812 20.649 23.6498 20.8834 23.4157L25.8834 18.4157Z" fill="#0C0C0D" fill-opacity="0.88"/>
</g>
</svg>
