<svg width="14" height="15" viewBox="0 0 14 15" fill="none" xmlns="http://www.w3.org/2000/svg">
<g clip-path="url(#clip0_3154_35167)">
<path d="M2.77284 6.46765C4.61685 3.19734 5.53886 1.5625 6.99928 1.5625C8.45971 1.5625 9.38171 3.19734 11.2257 6.46765L11.4558 6.87463C12.9882 9.59199 13.7548 10.9507 13.0622 11.9441C12.3695 12.9375 10.6557 12.9375 7.22931 12.9375H6.76926C3.34285 12.9375 1.62902 12.9375 0.936409 11.9441C0.243798 10.9507 1.01035 9.59199 2.54281 6.87463L2.77284 6.46765Z" stroke="#EE444A" stroke-width="1.1375"/>
<path d="M7 4.71875V7.87847" stroke="#EE444A" stroke-width="1.1375" stroke-linecap="round"/>
<path d="M6.99913 10.4123C7.34815 10.4123 7.63108 10.1294 7.63108 9.78038C7.63108 9.43137 7.34815 9.14844 6.99913 9.14844C6.65012 9.14844 6.36719 9.43137 6.36719 9.78038C6.36719 10.1294 6.65012 10.4123 6.99913 10.4123Z" fill="#EE444A"/>
</g>
<defs>
<clipPath id="clip0_3154_35167">
<rect width="14" height="14" fill="white" transform="translate(0 0.25)"/>
</clipPath>
</defs>
</svg>
