<svg width="15" height="14" viewBox="0 0 15 14" fill="none" xmlns="http://www.w3.org/2000/svg">
<g clip-path="url(#clip0_5955_60165)">
<path d="M1.97266 5.76465C1.97266 3.80296 1.97266 2.82211 2.21452 2.4921C2.45574 2.16269 3.41742 1.84679 5.34143 1.21559L5.70806 1.09536C6.7107 0.765957 7.2117 0.601562 7.73125 0.601562C8.2508 0.601562 8.7518 0.765957 9.75444 1.09536L10.1211 1.21559C12.0451 1.84679 13.0068 2.16269 13.248 2.4921C13.4898 2.82211 13.4898 3.80357 13.4898 5.76465V6.73016C13.4898 10.1886 10.7775 11.8675 9.07556 12.5797C8.61423 12.7729 8.38389 12.8698 7.73125 12.8698C7.07861 12.8698 6.84827 12.7729 6.38694 12.5797C4.68495 11.8669 1.97266 10.1892 1.97266 6.73016V5.76465Z" stroke="#FEBB10" stroke-width="1.15172"/>
<path d="M7.73108 3.79297V6.99503" stroke="#FEBB10" stroke-width="1.15172" stroke-linecap="round"/>
<path d="M7.72953 10.2026C8.17165 10.2026 8.53005 9.84419 8.53005 9.40208C8.53005 8.95997 8.17165 8.60156 7.72953 8.60156C7.28742 8.60156 6.92902 8.95997 6.92902 9.40208C6.92902 9.84419 7.28742 10.2026 7.72953 10.2026Z" fill="#FEBB10"/>
</g>
<defs>
<clipPath id="clip0_5955_60165">
<rect width="14" height="14" fill="white" transform="translate(0.726562)"/>
</clipPath>
</defs>
</svg>
