<svg width="15" height="14" viewBox="0 0 15 14" fill="none" xmlns="http://www.w3.org/2000/svg">
<g clip-path="url(#clip0_5955_64996)">
<path d="M7.72915 13.3815C11.2528 13.3815 14.1094 10.525 14.1094 7.0013C14.1094 3.47761 11.2528 0.621094 7.72915 0.621094C4.20545 0.621094 1.34894 3.47761 1.34894 7.0013C1.34894 10.525 4.20545 13.3815 7.72915 13.3815Z" stroke="#1AA3C1" stroke-width="1.14844"/>
<path d="M6.263 5.06966C6.26303 4.84878 6.33082 4.63179 6.45957 4.44039C6.58832 4.24899 6.77352 4.08989 6.99665 3.97902C7.21977 3.86814 7.473 3.80938 7.73098 3.8086C7.98896 3.80783 8.24266 3.86507 8.46669 3.9746C8.69072 4.08414 8.87722 4.24212 9.00753 4.43274C9.13785 4.62336 9.20741 4.83994 9.20925 5.06081C9.21109 5.28168 9.14516 5.49909 9.01804 5.69129C8.89092 5.88349 8.70707 6.04373 8.48489 6.156C8.1117 6.34501 7.73614 6.63224 7.73614 7.00354V7.84436" stroke="#1AA3C1" stroke-width="1.14844" stroke-linecap="round"/>
<path d="M7.72863 10.5367C8.10012 10.5367 8.40128 10.2356 8.40128 9.86406C8.40128 9.49256 8.10012 9.19141 7.72863 9.19141C7.35713 9.19141 7.05597 9.49256 7.05597 9.86406C7.05597 10.2356 7.35713 10.5367 7.72863 10.5367Z" fill="#1AA3C1"/>
</g>
<defs>
<clipPath id="clip0_5955_64996">
<rect width="14" height="14" fill="white" transform="translate(0.726562)"/>
</clipPath>
</defs>
</svg>
