<svg width="48" height="48" viewBox="0 0 48 48" fill="none" xmlns="http://www.w3.org/2000/svg">
<path d="M6 20.834C6 14.438 6 11.24 6.756 10.164C7.51 9.09 10.516 8.06 16.53 6.002L17.676 5.61C20.81 4.536 22.376 4 24 4C25.624 4 27.19 4.536 30.324 5.61L31.47 6.002C37.484 8.06 40.49 9.09 41.244 10.164C42 11.24 42 14.44 42 20.834V23.982C42 35.258 33.522 40.732 28.202 43.054C26.76 43.684 26.04 44 24 44C21.96 44 21.24 43.684 19.798 43.054C14.478 40.73 6 35.26 6 23.982V20.834Z" stroke="#CFD4D9" stroke-width="3"/>
<path d="M24 16V24" stroke="#CFD4D9" stroke-width="3" stroke-linecap="round"/>
<path d="M24 32C25.1046 32 26 31.1046 26 30C26 28.8954 25.1046 28 24 28C22.8954 28 22 28.8954 22 30C22 31.1046 22.8954 32 24 32Z" fill="#CFD4D9"/>
</svg>
