<svg width="25" height="25" viewBox="0 0 25 25" fill="none" xmlns="http://www.w3.org/2000/svg">
<g id="fluent:add-16-filled">
<path id="Vector" d="M13.625 4.16406C13.625 3.86569 13.5065 3.57955 13.2955 3.36857C13.0845 3.15759 12.7984 3.03906 12.5 3.03906C12.2016 3.03906 11.9155 3.15759 11.7045 3.36857C11.4935 3.57955 11.375 3.86569 11.375 4.16406V10.5391H5C4.70163 10.5391 4.41548 10.6576 4.2045 10.8686C3.99353 11.0795 3.875 11.3657 3.875 11.6641C3.875 11.9624 3.99353 12.2486 4.2045 12.4596C4.41548 12.6705 4.70163 12.7891 5 12.7891H11.375V19.1641C11.375 19.4624 11.4935 19.7486 11.7045 19.9596C11.9155 20.1705 12.2016 20.2891 12.5 20.2891C12.7984 20.2891 13.0845 20.1705 13.2955 19.9596C13.5065 19.7486 13.625 19.4624 13.625 19.1641V12.7891H20C20.2984 12.7891 20.5845 12.6705 20.7955 12.4596C21.0065 12.2486 21.125 11.9624 21.125 11.6641C21.125 11.3657 21.0065 11.0795 20.7955 10.8686C20.5845 10.6576 20.2984 10.5391 20 10.5391H13.625V4.16406Z" fill="#0C0C0D" fill-opacity="0.88"/>
</g>
</svg>
