<svg width="33" height="32" viewBox="0 0 33 32" fill="none" xmlns="http://www.w3.org/2000/svg">
<g id="solar:calculator-minimalistic-linear">
<g id="Group">
<path id="Vector" d="M5.4213 27.3865C7.37597 29.3385 10.5173 29.3385 16.8026 29.3385C23.088 29.3385 26.2306 29.3385 28.1826 27.3852C30.136 25.4345 30.136 22.2905 30.136 16.0052C30.136 9.71987 30.136 6.57721 28.1826 4.62387C26.232 2.67188 23.088 2.67188 16.8026 2.67188C10.5173 2.67188 7.37463 2.67188 5.4213 4.62387C3.4693 6.57854 3.4693 9.71987 3.4693 16.0052C3.4693 22.2905 3.4693 25.4345 5.4213 27.3865Z" stroke="#CFD4D9" stroke-width="2.25"/>
<path id="Vector_2" d="M24.8026 11.3385H19.4693M24.8026 19.3385H19.4693M24.8026 23.3385H19.4693M14.1359 11.3385H11.4693M11.4693 11.3385H8.80261M11.4693 11.3385V8.67188M11.4693 11.3385V14.0052M13.4693 19.3385L11.4693 21.3385M11.4693 21.3385L9.46928 23.3385M11.4693 21.3385L9.46928 19.3385M11.4693 21.3385L13.4693 23.3385" stroke="#CFD4D9" stroke-width="2.25" stroke-linecap="round"/>
</g>
</g>
</svg>
