<svg width="48" height="48" viewBox="0 0 48 48" fill="none" xmlns="http://www.w3.org/2000/svg">
<g id="solar:chat-square-linear">
<path id="Rectangle 4026" d="M5.5 21.1053C5.5 14.4538 5.5 11.128 7.17182 8.78308C7.75144 7.97011 8.4623 7.25925 9.27527 6.67964C11.6202 5.00781 14.9459 5.00781 21.5975 5.00781H27.1525C33.8041 5.00781 37.1298 5.00781 39.4747 6.67964C40.2877 7.25925 40.9986 7.97011 41.5782 8.78308C43.25 11.128 43.25 14.4538 43.25 21.1053V26.4546C43.25 28.0787 43.25 28.8907 43.1455 29.5706C42.5484 33.454 39.5011 36.5012 35.6177 37.0983C34.9379 37.2028 34.1258 37.2028 32.5018 37.2028V37.2028C31.9375 37.2028 31.6554 37.2028 31.3939 37.2304C29.9256 37.3853 28.6008 38.1811 27.7746 39.4047C27.6274 39.6226 27.4949 39.8717 27.2299 40.3699L26.9105 40.9705C26.2774 42.1606 25.9609 42.7557 25.5883 43.0268C24.8934 43.5325 23.9531 43.5376 23.2527 43.0396C22.8771 42.7726 22.5541 42.1811 21.908 40.998L21.5387 40.3218C21.2663 39.823 21.1301 39.5736 20.979 39.3555C20.1511 38.1603 18.8438 37.3847 17.398 37.2309C17.1342 37.2028 16.85 37.2028 16.2817 37.2028V37.2028C14.6265 37.2028 13.7989 37.2028 13.1063 37.0943C9.24382 36.4888 6.214 33.459 5.60857 29.5965C5.5 28.9039 5.5 28.0763 5.5 26.4211V21.1053Z" stroke="#CFD4D9" stroke-width="3.5"/>
<path id="Vector" d="M21.375 25L27.375 19M27.375 25L21.375 19" stroke="#CFD4D9" stroke-width="3.94" stroke-linecap="round"/>
</g>
</svg>
