<svg width="42" height="45" viewBox="0 0 42 45" fill="none" xmlns="http://www.w3.org/2000/svg">
<g id="Group 3008">
<g id="Group">
<path id="Vector" d="M4 14.5C4 8.844 4 6.014 5.758 4.258C7.514 2.5 10.344 2.5 16 2.5H28C33.656 2.5 36.486 2.5 38.242 4.258C40 6.014 40 8.844 40 14.5V30.5C40 36.156 40 38.986 38.242 40.742C36.486 42.5 33.656 42.5 28 42.5H16C10.344 42.5 7.514 42.5 5.758 40.742C4 38.986 4 36.156 4 30.5V14.5Z" stroke="#CFD4D9" stroke-width="3.5"/>
<path id="Vector_2" d="M14 3.5V42.5M2 22.5H6M2 30.5H6M2 14.5H6" stroke="#CFD4D9" stroke-width="3.5" stroke-linecap="round"/>
</g>
<path id="Vector_3" d="M23.75 20.75L29.75 14.75M29.75 20.75L23.75 14.75" stroke="#CFD4D9" stroke-width="3.94" stroke-linecap="round"/>
</g>
</svg>
