<svg width="36" height="36" viewBox="0 0 36 36" fill="none" xmlns="http://www.w3.org/2000/svg">
<path d="M3 18.5C3 12.8435 3 10.0145 4.758 8.258C6.516 6.5015 9.3435 6.5 15 6.5H21C26.6565 6.5 29.4855 6.5 31.242 8.258C32.9985 10.016 33 12.8435 33 18.5C33 24.1565 33 26.9855 31.242 28.742C29.484 30.4985 26.6565 30.5 21 30.5H15C9.3435 30.5 6.5145 30.5 4.758 28.742C3.0015 26.984 3 24.1565 3 18.5Z" stroke="#3996F9" stroke-width="2.2"/>
<path d="M9 12.5L12.2385 15.2C14.994 17.495 16.371 18.6425 18 18.6425C19.629 18.6425 21.0075 17.495 23.7615 15.1985L27 12.5" stroke="#3996F9" stroke-width="2.2" stroke-linecap="round"/>
</svg>
