<svg width="15" height="15" viewBox="0 0 15 15" fill="none" xmlns="http://www.w3.org/2000/svg">
<path fill-rule="evenodd" clip-rule="evenodd" d="M3.28125 6.28438V5C3.28125 3.88112 3.72572 2.80806 4.51689 2.01689C5.30806 1.22572 6.38112 0.78125 7.5 0.78125C8.61888 0.78125 9.69194 1.22572 10.4831 2.01689C11.2743 2.80806 11.7188 3.88112 11.7188 5V6.28438C12.4156 6.33625 12.8688 6.4675 13.2006 6.79937C13.75 7.34812 13.75 8.2325 13.75 10C13.75 11.7675 13.75 12.6519 13.2006 13.2006C12.6519 13.75 11.7675 13.75 10 13.75H5C3.2325 13.75 2.34812 13.75 1.79937 13.2006C1.25 12.6519 1.25 11.7675 1.25 10C1.25 8.2325 1.25 7.34812 1.79937 6.79937C2.13062 6.4675 2.58438 6.33625 3.28125 6.28438ZM4.21875 5C4.21875 4.12976 4.56445 3.29516 5.17981 2.67981C5.79516 2.06445 6.62976 1.71875 7.5 1.71875C8.37024 1.71875 9.20484 2.06445 9.82019 2.67981C10.4355 3.29516 10.7812 4.12976 10.7812 5V6.2525C10.5421 6.25042 10.2817 6.24958 10 6.25H5C4.71792 6.24958 4.4575 6.25042 4.21875 6.2525V5ZM7.5 8.28125C7.62432 8.28125 7.74355 8.33064 7.83146 8.41854C7.91936 8.50645 7.96875 8.62568 7.96875 8.75V11.25C7.96875 11.3743 7.91936 11.4935 7.83146 11.5815C7.74355 11.6694 7.62432 11.7188 7.5 11.7188C7.37568 11.7188 7.25645 11.6694 7.16854 11.5815C7.08064 11.4935 7.03125 11.3743 7.03125 11.25V8.75C7.03125 8.62568 7.08064 8.50645 7.16854 8.41854C7.25645 8.33064 7.37568 8.28125 7.5 8.28125Z" fill="#1B91AC"/>
</svg>
