<svg width="27" height="30" viewBox="0 0 27 30" fill="none" xmlns="http://www.w3.org/2000/svg">
<path d="M22.5999 11.9441V11.0041C22.5999 5.8454 18.5679 1.66406 13.5999 1.66406C8.63194 1.66406 4.59994 5.8454 4.59994 11.0041V11.9441C4.60154 13.0661 4.28133 14.1651 3.67727 15.1107L2.19994 17.4107C0.851936 19.5107 1.88127 22.3654 4.2266 23.0294C10.355 24.7649 16.8449 24.7649 22.9733 23.0294C25.3186 22.3654 26.3479 19.5107 24.9999 17.4121L23.5226 15.1121C22.9181 14.1666 22.5974 13.0676 22.5986 11.9454L22.5999 11.9441Z" stroke="#CFD4D9" stroke-opacity="0.88" stroke-width="2.25"/>
<path d="M7.59998 24.3333C8.47331 26.664 10.8293 28.3333 13.6 28.3333C16.3706 28.3333 18.7266 26.664 19.6 24.3333M13.6 7V12.3333" stroke="#CFD4D9" stroke-opacity="0.88" stroke-width="2.25" stroke-linecap="round"/>
</svg>
