<svg width="36" height="36" viewBox="0 0 36 36" fill="none" xmlns="http://www.w3.org/2000/svg">
<g id="ico_phone_outlined_36_bl">
<path id="Vector" fill-rule="evenodd" clip-rule="evenodd" d="M17.916 2.375H18.084C20.841 2.375 23.025 2.375 24.7335 2.6045C26.4915 2.8415 27.915 3.3395 29.0385 4.4615C30.1605 5.585 30.6585 7.0085 30.8955 8.7665C31.125 10.4765 31.125 12.659 31.125 15.416V21.584C31.125 24.341 31.125 26.525 30.8955 28.2335C30.6585 29.9915 30.1605 31.415 29.0385 32.5385C27.915 33.6605 26.4915 34.1585 24.7335 34.3955C23.0235 34.625 20.841 34.625 18.084 34.625H17.916C15.159 34.625 12.975 34.625 11.2665 34.3955C9.5085 34.1585 8.085 33.6605 6.9615 32.5385C5.8395 31.415 5.3415 29.9915 5.1045 28.2335C4.875 26.5235 4.875 24.341 4.875 21.584V15.416C4.875 12.659 4.875 10.475 5.1045 8.7665C5.3415 7.0085 5.8395 5.585 6.9615 4.4615C8.085 3.3395 9.5085 2.8415 11.2665 2.6045C12.9765 2.375 15.159 2.375 17.916 2.375ZM11.565 4.835C10.056 5.0375 9.186 5.4185 8.55 6.053C7.917 6.6875 7.536 7.5575 7.3335 9.0665C7.1265 10.6085 7.1235 12.6395 7.1235 15.5V21.5C7.1235 24.3605 7.1265 26.393 7.3335 27.935C7.536 29.4425 7.917 30.3125 8.5515 30.947C9.186 31.5815 10.056 31.9625 11.565 32.165C13.107 32.372 15.138 32.375 17.9985 32.375C20.859 32.375 22.8915 32.372 24.4335 32.165C25.941 31.9625 26.811 31.5815 27.4455 30.947C28.08 30.3125 28.461 29.4425 28.6635 27.9335C28.8705 26.393 28.8735 24.3605 28.8735 21.5V15.5C28.8735 12.6395 28.8705 10.6085 28.6635 9.065C28.461 7.5575 28.08 6.6875 27.4455 6.053C26.811 5.4185 25.941 5.0375 24.432 4.835C22.89 4.628 20.859 4.625 17.9985 4.625C15.138 4.625 13.1085 4.628 11.565 4.835ZM12.375 8C12.375 7.70163 12.4935 7.41548 12.7045 7.2045C12.9155 6.99353 13.2016 6.875 13.5 6.875H22.5C22.7984 6.875 23.0845 6.99353 23.2955 7.2045C23.5065 7.41548 23.625 7.70163 23.625 8C23.625 8.29837 23.5065 8.58452 23.2955 8.7955C23.0845 9.00647 22.7984 9.125 22.5 9.125H13.5C13.2016 9.125 12.9155 9.00647 12.7045 8.7955C12.4935 8.58452 12.375 8.29837 12.375 8ZM18 24.125C17.5027 24.125 17.0258 24.3225 16.6742 24.6742C16.3225 25.0258 16.125 25.5027 16.125 26C16.125 26.4973 16.3225 26.9742 16.6742 27.3258C17.0258 27.6775 17.5027 27.875 18 27.875C18.4973 27.875 18.9742 27.6775 19.3258 27.3258C19.6775 26.9742 19.875 26.4973 19.875 26C19.875 25.5027 19.6775 25.0258 19.3258 24.6742C18.9742 24.3225 18.4973 24.125 18 24.125ZM13.875 26C13.875 24.906 14.3096 23.8568 15.0832 23.0832C15.8568 22.3096 16.906 21.875 18 21.875C19.094 21.875 20.1432 22.3096 20.9168 23.0832C21.6904 23.8568 22.125 24.906 22.125 26C22.125 27.094 21.6904 28.1432 20.9168 28.9168C20.1432 29.6904 19.094 30.125 18 30.125C16.906 30.125 15.8568 29.6904 15.0832 28.9168C14.3096 28.1432 13.875 27.094 13.875 26Z" fill="#3996F9"/>
</g>
</svg>
