<svg width="24" height="24" viewBox="0 0 24 24" fill="none" xmlns="http://www.w3.org/2000/svg">
<g id="solar:calendar-mark-bold">
<path id="Vector" d="M7.74998 2.5C7.74998 2.30109 7.67096 2.11032 7.53031 1.96967C7.38966 1.82902 7.19889 1.75 6.99998 1.75C6.80107 1.75 6.6103 1.82902 6.46965 1.96967C6.329 2.11032 6.24998 2.30109 6.24998 2.5V4.08C4.80998 4.195 3.86598 4.477 3.17198 5.172C2.47698 5.866 2.19498 6.811 2.07898 8.25H21.921C21.805 6.81 21.523 5.866 20.828 5.172C20.134 4.477 19.189 4.195 17.75 4.079V2.5C17.75 2.30109 17.671 2.11032 17.5303 1.96967C17.3897 1.82902 17.1989 1.75 17 1.75C16.8011 1.75 16.6103 1.82902 16.4696 1.96967C16.329 2.11032 16.25 2.30109 16.25 2.5V4.013C15.585 4 14.839 4 14 4H9.99998C9.16098 4 8.41498 4 7.74998 4.013V2.5Z" fill="#FF9819"/>
<path id="Vector_2" fill-rule="evenodd" clip-rule="evenodd" d="M22 12V14C22 17.771 22 19.657 20.828 20.828C19.656 21.999 17.771 22 14 22H10C6.229 22 4.343 22 3.172 20.828C2.001 19.656 2 17.771 2 14V12C2 11.161 2 10.415 2.013 9.75H21.987C22 10.415 22 11.161 22 12ZM16.5 18C16.8978 18 17.2794 17.842 17.5607 17.5607C17.842 17.2794 18 16.8978 18 16.5C18 16.1022 17.842 15.7206 17.5607 15.4393C17.2794 15.158 16.8978 15 16.5 15C16.1022 15 15.7206 15.158 15.4393 15.4393C15.158 15.7206 15 16.1022 15 16.5C15 16.8978 15.158 17.2794 15.4393 17.5607C15.7206 17.842 16.1022 18 16.5 18Z" fill="#FF9819"/>
</g>
</svg>
