<svg width="24" height="24" viewBox="0 0 24 24" fill="none" xmlns="http://www.w3.org/2000/svg">
<circle cx="12" cy="12" r="12" fill="#8295A7" fill-opacity="0.11"/>
<g clip-path="url(#clip0_3648_44545)">
<path d="M6.70636 7.3699C6.55324 6.94333 6.05558 6.71482 5.59894 6.85447C5.1423 6.99411 4.89347 7.45876 5.04386 7.88279L6.41105 11.6888H5.87511C5.39113 11.6888 5.00011 12.0519 5.00011 12.5013C5.00011 12.9508 5.39113 13.3138 5.87511 13.3138H6.99347L8.54387 17.6328C8.66691 17.9756 9.01965 18.2015 9.40793 18.1888C9.79621 18.1761 10.1298 17.9248 10.2228 17.5744L11.3712 13.3138H12.629L13.7775 17.5744C13.8704 17.9248 14.204 18.1761 14.5923 18.1888C14.9806 18.2015 15.3333 17.9756 15.4564 17.6328L17.0068 13.3138H18.1251C18.6091 13.3138 19.0001 12.9508 19.0001 12.5013C19.0001 12.0519 18.6091 11.6888 18.1251 11.6888H17.5892L18.9564 7.88279C19.1095 7.45622 18.8607 6.99665 18.404 6.85447C17.9474 6.71228 17.4497 6.94333 17.2966 7.36736L15.7435 11.6888H13.9935L12.8478 7.42829C12.7521 7.06775 12.4021 6.81384 12.0001 6.81384C11.5982 6.81384 11.2482 7.06775 11.1525 7.42829L10.004 11.6888H8.25402L6.70636 7.3699ZM8.83918 13.3138H9.56652L9.2548 14.4717L8.83918 13.3138ZM11.8087 11.6888L12.0001 10.9754L12.1915 11.6888H11.8087ZM14.4337 13.3138H15.1611L14.7454 14.4717L14.4337 13.3138Z" fill="#0C0C0D" fill-opacity="0.88"/>
</g>
<defs>
<clipPath id="clip0_3648_44545">
<rect width="14" height="13" fill="white" transform="translate(5 6)"/>
</clipPath>
</defs>
</svg>
