<svg width="20" height="20" viewBox="0 0 20 20" fill="none" xmlns="http://www.w3.org/2000/svg">
<g id="solar:skip-next-bold">
<path id="Vector" d="M13.8837 12.2034C15.3728 11.2417 15.3728 8.75338 13.8837 7.79171L4.89199 1.98505C3.44616 1.05088 1.66699 2.26755 1.66699 4.19171V15.8034C1.66699 17.7284 3.44533 18.9442 4.89199 18.01L13.8837 12.2034ZM18.9587 4.16421C18.9587 3.99845 18.8928 3.83948 18.7756 3.72227C18.6584 3.60506 18.4994 3.53921 18.3337 3.53921C18.1679 3.53921 18.0089 3.60506 17.8917 3.72227C17.7745 3.83948 17.7087 3.99845 17.7087 4.16421V15.8309C17.7087 15.9966 17.7745 16.1556 17.8917 16.2728C18.0089 16.39 18.1679 16.4559 18.3337 16.4559C18.4994 16.4559 18.6584 16.39 18.7756 16.2728C18.8928 16.1556 18.9587 15.9966 18.9587 15.8309V4.16421Z" fill="white"/>
</g>
</svg>
