<svg width="36" height="36" viewBox="0 0 36 36" fill="none" xmlns="http://www.w3.org/2000/svg">
<path d="M18.0029 10.0739C15.1225 3.55182 8.42263 2.97175 5.30289 5.81558C2.76155 8.09764 1.54158 13.5692 3.86186 18.6054C7.86417 27.2649 18.0029 31.8124 18.0029 31.8124C18.0029 31.8124 28.1433 27.2649 32.144 18.6054C34.4643 13.5692 33.2443 8.09764 30.703 5.81558C27.5832 2.97175 20.8833 3.55348 18.0029 10.0739Z" fill="#2589F4" stroke="#2589F4" stroke-width="1.6875" stroke-linecap="round" stroke-linejoin="round"/>
<!-- <path d="M22.886 14.6144C22.9882 14.723 23.0431 14.8678 23.0386 15.0168C23.0341 15.1659 22.9706 15.3071 22.862 15.4094L16.9145 21.0149C16.7932 21.129 16.6321 21.1912 16.4656 21.1882C16.2991 21.1851 16.1404 21.117 16.0235 20.9984L14.0135 18.9584C13.9603 18.9061 13.918 18.8437 13.8891 18.7749C13.8602 18.7061 13.8453 18.6322 13.8452 18.5576C13.8452 18.483 13.8599 18.4091 13.8887 18.3403C13.9175 18.2714 13.9597 18.209 14.0128 18.1566C14.0659 18.1042 14.129 18.0629 14.1982 18.0351C14.2675 18.0073 14.3415 17.9936 14.4162 17.9947C14.4908 17.9958 14.5644 18.0118 14.6328 18.0416C14.7012 18.0715 14.7629 18.1147 14.8145 18.1686L16.49 19.8689L22.091 14.5904C22.1996 14.4881 22.3444 14.4333 22.4935 14.4378C22.6425 14.4423 22.7837 14.5058 22.886 14.6144Z" fill="white"/> -->
</svg>
