<svg width="48" height="48" viewBox="0 0 48 48" fill="none" xmlns="http://www.w3.org/2000/svg">
<g id="General/ico_lock_keyhole_48_bk">
<path id="Vector" d="M4 30.5C4 24.844 4 22.014 5.758 20.258C7.514 18.5 10.344 18.5 16 18.5H32C37.656 18.5 40.486 18.5 42.242 20.258C44 22.014 44 24.844 44 30.5C44 36.156 44 38.986 42.242 40.742C40.486 42.5 37.656 42.5 32 42.5H16C10.344 42.5 7.514 42.5 5.758 40.742C4 38.986 4 36.156 4 30.5Z" stroke="#CFD4D9" stroke-width="2.5"/>
<path id="Vector_2" d="M24 26.5V34.5M12 18.5V14.5C12 11.3174 13.2643 8.26516 15.5147 6.01472C17.7652 3.76428 20.8174 2.5 24 2.5C27.1826 2.5 30.2348 3.76428 32.4853 6.01472C34.7357 8.26516 36 11.3174 36 14.5V18.5" stroke="#CFD4D9" stroke-width="2.5" stroke-linecap="round"/>
</g>
</svg>
