<svg width="24" height="24" viewBox="0 0 24 24" fill="none" xmlns="http://www.w3.org/2000/svg">
<g id="badge_percent">
<circle id="Ellipse 481" cx="12" cy="12" r="12" fill="#8295A7" fill-opacity="0.11"/>
<path id="&#237;&#133;&#141;&#236;&#138;&#164;&#237;&#138;&#184;" d="M7.70215 12.1367C5.80371 12.1367 4.7666 10.748 4.7666 8.74414C4.7666 6.72266 5.83887 5.33398 7.70215 5.33398C9.61816 5.33398 10.6201 6.72266 10.6377 8.74414C10.6201 10.7656 9.58301 12.1367 7.70215 12.1367ZM7.70215 10.5723C8.45801 10.5723 8.82715 9.83398 8.84473 8.74414C8.82715 7.6543 8.49316 6.89844 7.70215 6.89844C6.94629 6.89844 6.55957 7.67188 6.55957 8.74414C6.55957 9.83398 6.96387 10.5723 7.70215 10.5723ZM16.2803 18.9219C14.3994 18.9219 13.3623 17.5332 13.3623 15.5293C13.3623 13.5078 14.4346 12.1191 16.2803 12.1191C18.1963 12.1191 19.2158 13.5078 19.2334 15.5293C19.2158 17.5508 18.1787 18.9219 16.2803 18.9219ZM16.2803 17.3574C17.0537 17.3574 17.4229 16.6367 17.4404 15.5293C17.4229 14.4395 17.0889 13.6836 16.2803 13.7012C15.542 13.7012 15.1553 14.457 15.1553 15.5293C15.1553 16.6367 15.5596 17.3574 16.2803 17.3574ZM6.59473 18.5L15.3486 5.77344H17.3174L8.56348 18.5H6.59473Z" fill="#0C0C0D" fill-opacity="0.88"/>
</g>
</svg>
