<svg width="32" height="32" viewBox="0 0 32 32" fill="none" xmlns="http://www.w3.org/2000/svg">
<g id="Group 2996">
<path id="Vector" d="M30.8379 29.9297H1.96289" stroke="#CFD4D9" stroke-width="2.25" stroke-linecap="round"/>
<g id="Group 2995">
<path id="Rectangle 4022" d="M3.46289 14.0781C3.46289 12.8561 3.46289 12.2451 3.63826 11.755C3.94087 10.9092 4.6065 10.2436 5.45222 9.94099C5.94234 9.76562 6.55336 9.76562 7.7754 9.76562V9.76562C8.99743 9.76562 9.60845 9.76562 10.0986 9.94099C10.9443 10.2436 11.6099 10.9092 11.9125 11.755C12.0879 12.2451 12.0879 12.8561 12.0879 14.0781V29.9111H3.46289V14.0781Z" stroke="#CFD4D9" stroke-width="2.25" stroke-linecap="round"/>
<path id="Rectangle 4023" d="M12.0879 5.58595C12.0879 4.36391 12.0879 3.75289 12.2633 3.26276C12.5659 2.41704 13.2315 1.75141 14.0772 1.44881C14.5673 1.27344 15.1784 1.27344 16.4004 1.27344V1.27344C17.6224 1.27344 18.2335 1.27344 18.7236 1.44881C19.5693 1.75141 20.2349 2.41704 20.5375 3.26276C20.7129 3.75289 20.7129 4.3639 20.7129 5.58594V29.9227H12.0879V5.58595Z" stroke="#CFD4D9" stroke-width="2.25" stroke-linecap="round"/>
<path id="Rectangle 4024" d="M20.7129 21.4141C20.7129 20.192 20.7129 19.581 20.8883 19.0909C21.1909 18.2452 21.8565 17.5795 22.7022 17.2769C23.1923 17.1016 23.8034 17.1016 25.0254 17.1016V17.1016C26.2474 17.1016 26.8585 17.1016 27.3486 17.2769C28.1943 17.5795 28.8599 18.2452 29.1625 19.0909C29.3379 19.581 29.3379 20.192 29.3379 21.4141V29.9255H20.7129V21.4141Z" stroke="#CFD4D9" stroke-width="2.25" stroke-linecap="round"/>
</g>
</g>
</svg>
