<svg width="24" height="25" viewBox="0 0 24 25" fill="none" xmlns="http://www.w3.org/2000/svg">
<g id="Header/ico_setting_24_bk">
<path id="Vector" d="M12.012 2.75C12.746 2.758 13.477 2.843 14.194 3.003C14.3465 3.03705 14.4846 3.1179 14.5889 3.23426C14.6933 3.35062 14.7587 3.49667 14.776 3.652L14.946 5.179C14.97 5.39428 15.0442 5.60093 15.1626 5.78231C15.281 5.96368 15.4404 6.11473 15.6278 6.22329C15.8153 6.33185 16.0256 6.39489 16.2419 6.40735C16.4581 6.4198 16.6743 6.38132 16.873 6.295L18.273 5.68C18.4152 5.61735 18.5734 5.60044 18.7257 5.63161C18.878 5.66278 19.0168 5.74049 19.123 5.854C20.135 6.93516 20.8889 8.23163 21.328 9.646C21.3738 9.79474 21.3723 9.95406 21.3236 10.1019C21.2748 10.2497 21.1813 10.3787 21.056 10.471L19.815 11.387C19.6401 11.5152 19.4979 11.6827 19.3999 11.8761C19.3019 12.0695 19.2508 12.2832 19.2508 12.5C19.2508 12.7168 19.3019 12.9305 19.3999 13.1239C19.4979 13.3173 19.6401 13.4848 19.815 13.613L21.058 14.528C21.1835 14.6204 21.2772 14.7495 21.3259 14.8976C21.3747 15.0456 21.3761 15.2051 21.33 15.354C20.8912 16.7683 20.1377 18.0647 19.126 19.146C19.02 19.2595 18.8814 19.3372 18.7293 19.3686C18.5772 19.3999 18.4192 19.3833 18.277 19.321L16.871 18.704C16.6726 18.617 16.4565 18.5779 16.2402 18.59C16.0238 18.602 15.8134 18.6648 15.6259 18.7733C15.4383 18.8817 15.279 19.0328 15.1607 19.2143C15.0424 19.3958 14.9685 19.6026 14.945 19.818L14.775 21.344C14.758 21.4975 14.694 21.642 14.5918 21.7578C14.4896 21.8736 14.3542 21.9551 14.204 21.991C12.7556 22.3363 11.2463 22.3363 9.79797 21.991C9.64757 21.9553 9.5119 21.8739 9.4095 21.7581C9.30711 21.6423 9.24301 21.4976 9.22597 21.344L9.05697 19.82C9.03242 19.6053 8.95787 19.3994 8.83931 19.2187C8.72074 19.0381 8.56146 18.8877 8.37426 18.7798C8.18707 18.6718 7.97716 18.6093 7.76141 18.5972C7.54566 18.5851 7.33008 18.6237 7.13197 18.71L5.72597 19.326C5.58363 19.3885 5.42537 19.4053 5.27309 19.3739C5.12081 19.3426 4.98204 19.2647 4.87597 19.151C3.8641 18.0685 3.11088 16.7706 2.67297 15.355C2.62687 15.2061 2.62829 15.0466 2.67703 14.8986C2.72578 14.7505 2.81943 14.6214 2.94497 14.529L4.18797 13.613C4.36282 13.4848 4.50501 13.3173 4.60302 13.1239C4.70103 12.9305 4.75211 12.7168 4.75211 12.5C4.75211 12.2832 4.70103 12.0695 4.60302 11.8761C4.50501 11.6827 4.36282 11.5152 4.18797 11.387L2.94497 10.473C2.81943 10.3806 2.72578 10.2515 2.67703 10.1034C2.62829 9.95542 2.62687 9.79588 2.67297 9.647C3.11201 8.23263 3.8659 6.93616 4.87797 5.855C4.98416 5.74149 5.12298 5.66378 5.27526 5.63261C5.42753 5.60144 5.58573 5.61835 5.72797 5.681L7.12797 6.296C7.32699 6.38227 7.54347 6.42066 7.76002 6.40809C7.97657 6.39551 8.18715 6.33232 8.37484 6.2236C8.56254 6.11487 8.72212 5.96363 8.84076 5.78204C8.9594 5.60045 9.0338 5.39356 9.05797 5.178L9.22797 3.652C9.24513 3.49635 9.31058 3.34998 9.41513 3.23341C9.51968 3.11684 9.6581 3.03592 9.81097 3.002C10.527 2.84333 11.2606 2.75933 12.012 2.75ZM12.012 4.25C11.5583 4.25482 11.1057 4.29393 10.658 4.367L10.548 5.344C10.4979 5.7933 10.3431 6.22457 10.0958 6.60305C9.84857 6.98152 9.51586 7.29662 9.12451 7.52294C8.73316 7.74927 8.29412 7.88049 7.84276 7.90603C7.3914 7.93158 6.94036 7.85073 6.52597 7.67L5.62697 7.276C5.05551 7.96996 4.60059 8.75215 4.27997 9.592L5.07697 10.179C5.44143 10.4465 5.73781 10.796 5.94212 11.1992C6.14644 11.6025 6.25296 12.0482 6.25305 12.5002C6.25315 12.9523 6.14683 13.3981 5.94268 13.8014C5.73854 14.2048 5.44231 14.5544 5.07797 14.822L4.27897 15.41C4.59897 16.252 5.05497 17.036 5.62697 17.732L6.53197 17.335C6.94546 17.1545 7.39556 17.0735 7.84604 17.0987C8.29653 17.1239 8.7348 17.2545 9.12559 17.48C9.51638 17.7055 9.84876 18.0196 10.096 18.397C10.3432 18.7745 10.4984 19.2047 10.549 19.653L10.658 20.637C11.548 20.787 12.457 20.787 13.346 20.637L13.456 19.653C13.5055 19.204 13.6601 18.7729 13.907 18.3947C14.154 18.0164 14.4864 17.7015 14.8775 17.4755C15.2687 17.2495 15.7075 17.1186 16.1585 17.0935C16.6096 17.0684 17.0602 17.1498 17.474 17.331L18.378 17.727C18.95 17.0325 19.4052 16.2496 19.726 15.409L18.928 14.821C18.5635 14.5535 18.2671 14.204 18.0628 13.8008C17.8585 13.3975 17.752 12.9518 17.7519 12.4998C17.7518 12.0477 17.8581 11.6019 18.0623 11.1986C18.2664 10.7952 18.5626 10.4456 18.927 10.178L19.724 9.591C19.4031 8.75073 18.9479 7.96819 18.376 7.274L17.479 7.667C17.0647 7.84835 16.6136 7.92974 16.1621 7.90461C15.7106 7.87949 15.2713 7.74853 14.8798 7.52233C14.4882 7.29613 14.1553 6.98103 13.908 6.60245C13.6607 6.22388 13.5058 5.79245 13.456 5.343L13.347 4.367C12.9058 4.29493 12.4589 4.25582 12.012 4.25ZM12 8.75C12.9945 8.75 13.9484 9.14509 14.6516 9.84835C15.3549 10.5516 15.75 11.5054 15.75 12.5C15.75 13.4946 15.3549 14.4484 14.6516 15.1517C13.9484 15.8549 12.9945 16.25 12 16.25C11.0054 16.25 10.0516 15.8549 9.34832 15.1517C8.64506 14.4484 8.24997 13.4946 8.24997 12.5C8.24997 11.5054 8.64506 10.5516 9.34832 9.84835C10.0516 9.14509 11.0054 8.75 12 8.75ZM12 10.25C11.4032 10.25 10.8309 10.4871 10.409 10.909C9.98702 11.331 9.74997 11.9033 9.74997 12.5C9.74997 13.0967 9.98702 13.669 10.409 14.091C10.8309 14.5129 11.4032 14.75 12 14.75C12.5967 14.75 13.169 14.5129 13.591 14.091C14.0129 13.669 14.25 13.0967 14.25 12.5C14.25 11.9033 14.0129 11.331 13.591 10.909C13.169 10.4871 12.5967 10.25 12 10.25Z" fill="#CFD4D9"/>
</g>
</svg>
