<svg width="48" height="48" viewBox="0 0 48 48" fill="none" xmlns="http://www.w3.org/2000/svg">
<g id="General/ico_info_outlined_48_bk">
<path id="Vector" d="M24 6.5C14.335 6.5 6.5 14.335 6.5 24C6.5 33.665 14.335 41.5 24 41.5C33.665 41.5 41.5 33.665 41.5 24C41.5 14.335 33.665 6.5 24 6.5ZM4 24C4 12.954 12.954 4 24 4C35.046 4 44 12.954 44 24C44 35.046 35.046 44 24 44C12.954 44 4 35.046 4 24ZM24 20C24.69 20 25.25 20.56 25.25 21.25V33.75C25.25 34.0815 25.1183 34.3995 24.8839 34.6339C24.6495 34.8683 24.3315 35 24 35C23.6685 35 23.3505 34.8683 23.1161 34.6339C22.8817 34.3995 22.75 34.0815 22.75 33.75V21.25C22.75 20.56 23.31 20 24 20ZM24 17C24.5304 17 25.0391 16.7893 25.4142 16.4142C25.7893 16.0391 26 15.5304 26 15C26 14.4696 25.7893 13.9609 25.4142 13.5858C25.0391 13.2107 24.5304 13 24 13C23.4696 13 22.9609 13.2107 22.5858 13.5858C22.2107 13.9609 22 14.4696 22 15C22 15.5304 22.2107 16.0391 22.5858 16.4142C22.9609 16.7893 23.4696 17 24 17Z" fill="#0C0C0D" fill-opacity="0.88"/>
</g>
</svg>
