<svg width="32" height="32" viewBox="0 0 32 32" fill="none" xmlns="http://www.w3.org/2000/svg">
<g id="General/ico_info_outlined_32_bk">
<path id="Vector" d="M16 13C16.2652 13 16.5196 13.1054 16.7071 13.2929C16.8946 13.4804 17 13.7348 17 14V23C17 23.2652 16.8946 23.5196 16.7071 23.7071C16.5196 23.8946 16.2652 24 16 24C15.7348 24 15.4804 23.8946 15.2929 23.7071C15.1054 23.5196 15 23.2652 15 23V14C15 13.7348 15.1054 13.4804 15.2929 13.2929C15.4804 13.1054 15.7348 13 16 13ZM16 11C16.3978 11 16.7794 10.842 17.0607 10.5607C17.342 10.2794 17.5 9.89782 17.5 9.5C17.5 9.10218 17.342 8.72064 17.0607 8.43934C16.7794 8.15804 16.3978 8 16 8C15.6022 8 15.2206 8.15804 14.9393 8.43934C14.658 8.72064 14.5 9.10218 14.5 9.5C14.5 9.89782 14.658 10.2794 14.9393 10.5607C15.2206 10.842 15.6022 11 16 11ZM2 16C2 8.268 8.268 2 16 2C23.732 2 30 8.268 30 16C30 23.732 23.732 30 16 30C8.268 30 2 23.732 2 16ZM16 4C9.373 4 4 9.373 4 16C4 22.627 9.373 28 16 28C22.627 28 28 22.627 28 16C28 9.373 22.627 4 16 4Z" fill="#0C0C0D" fill-opacity="0.88"/>
</g>
</svg>
