<svg width="24" height="24" viewBox="0 0 24 24" fill="none" xmlns="http://www.w3.org/2000/svg">
<circle cx="12" cy="12" r="12" fill="#8295A7" fill-opacity="0.11"/>
<path d="M8.19531 15.7418L15.6754 8.26172" stroke="#A4A9AE" stroke-width="2" stroke-linecap="round"/>
<path d="M16.2113 15.131C16.2113 15.5772 15.8496 15.9389 15.4035 15.9389C14.9573 15.9389 14.5957 15.5772 14.5957 15.131C14.5957 14.6849 14.9573 14.3232 15.4035 14.3232C15.8496 14.3232 16.2113 14.6849 16.2113 15.131Z" fill="#A4A9AE" stroke="#A4A9AE" stroke-width="1.74795"/>
<path d="M9.40467 8.87321C9.40467 9.31936 9.04299 9.68104 8.59684 9.68104C8.15069 9.68104 7.78901 9.31936 7.78901 8.87321C7.78901 8.42706 8.15069 8.06538 8.59684 8.06538C9.04299 8.06538 9.40467 8.42706 9.40467 8.87321Z" fill="#A4A9AE" stroke="#A4A9AE" stroke-width="1.74795"/>
</svg>
