<svg width="20" height="20" viewBox="0 0 20 20" fill="none" xmlns="http://www.w3.org/2000/svg">
<g id="solar:shield-keyhole-minimalistic-bold-duotone" clip-path="url(#clip0_5617_99871)">
<path id="Vector" d="M1.65727 3.72611C1.2959 4.24044 1.2959 5.77007 1.2959 8.82646V10.3312C1.2959 15.7213 5.34846 18.3379 7.89146 19.4478C8.58075 19.749 8.92587 19.9 9.90005 19.9C10.8752 19.9 11.2194 19.749 11.9086 19.4478C14.4517 18.3369 18.5042 15.7222 18.5042 10.3312V8.82646C18.5042 5.76912 18.5042 4.24044 18.1428 3.72611C17.7824 3.21273 16.3455 2.72038 13.4708 1.73664L12.923 1.54926C11.4249 1.03588 10.6763 0.779663 9.90005 0.779663C9.12377 0.779663 8.37521 1.03588 6.87713 1.54926L6.32933 1.73568C3.45459 2.72038 2.01769 3.21273 1.65727 3.72611Z" fill="#3F72FD"/>
<path id="Vector_2" fill-rule="evenodd" clip-rule="evenodd" d="M8.10793 5.80166C8.51543 5.56569 8.96548 5.41243 9.4323 5.35065C9.89912 5.28887 10.3735 5.31978 10.8284 5.44162C11.2833 5.56346 11.7096 5.77383 12.083 6.06069C12.4565 6.34754 12.7697 6.70525 13.0046 7.11331C13.2406 7.52082 13.3939 7.97087 13.4557 8.43769C13.5174 8.90451 13.4865 9.37893 13.3647 9.83379C13.2428 10.2886 13.0325 10.715 12.7456 11.0884C12.4588 11.4619 12.1011 11.775 11.693 12.01C11.3585 12.2027 10.9954 12.3408 10.6175 12.4192V14.642C10.6175 14.8321 10.5419 15.0145 10.4075 15.149C10.273 15.2834 10.0906 15.359 9.90046 15.359C9.71029 15.359 9.52792 15.2834 9.39345 15.149C9.25899 15.0145 9.18345 14.8321 9.18345 14.642V12.4183C8.47085 12.2726 7.81941 11.9136 7.31563 11.389C6.81185 10.8644 6.47955 10.1989 6.36285 9.48103C6.24616 8.76312 6.35058 8.02669 6.66227 7.36952C6.97395 6.71235 7.47815 6.16553 8.10793 5.80166ZM8.82494 7.04353C9.06936 6.90171 9.33937 6.80956 9.61949 6.77236C9.89961 6.73516 10.1843 6.75364 10.4573 6.82675C10.7302 6.89985 10.9861 7.02613 11.2101 7.19835C11.4341 7.37057 11.622 7.58534 11.7628 7.83033C11.9046 8.07474 11.9967 8.34476 12.0339 8.62488C12.0711 8.905 12.0527 9.18971 11.9796 9.46266C11.9065 9.73562 11.7802 9.99146 11.608 10.2155C11.4357 10.4395 11.221 10.6273 10.976 10.7682C10.7311 10.9164 10.4592 11.0143 10.176 11.0561C9.89285 11.0979 9.60419 11.0828 9.32696 11.0116C9.04972 10.9404 8.78948 10.8146 8.56148 10.6416C8.33348 10.4685 8.14231 10.2517 7.99916 10.0039C7.85602 9.75601 7.76378 9.48207 7.72786 9.19811C7.69193 8.91415 7.71304 8.62587 7.78995 8.35017C7.86685 8.07446 7.99801 7.81688 8.17573 7.59252C8.35345 7.36815 8.57417 7.18151 8.82494 7.04353Z" fill="white"/>
</g>
<defs>
<clipPath id="clip0_5617_99871">
<rect width="19.8" height="19.8" fill="white" transform="translate(0 0.0999756)"/>
</clipPath>
</defs>
</svg>
