<svg width="21" height="20" viewBox="0 0 21 20" fill="none" xmlns="http://www.w3.org/2000/svg">
<g id="solar:like-bold">
<path id="Vector" d="M17.6182 13.5556L18.2057 10.1556C18.2402 9.95636 18.2307 9.75196 18.1779 9.55672C18.1252 9.36149 18.0304 9.18014 17.9002 9.02537C17.77 8.87059 17.6076 8.74612 17.4243 8.66067C17.241 8.57521 17.0413 8.53083 16.839 8.53064H12.5215C12.4208 8.53066 12.3212 8.50874 12.2298 8.46642C12.1384 8.42409 12.0572 8.36236 11.992 8.28552C11.9269 8.20868 11.8792 8.11858 11.8523 8.02146C11.8255 7.92434 11.8201 7.82255 11.8365 7.72314L12.389 4.3523C12.4783 3.80497 12.4528 3.24507 12.314 2.70814C12.2542 2.48648 12.1394 2.28347 11.9804 2.11787C11.8213 1.95227 11.6231 1.82941 11.404 1.76064L11.2832 1.72147C11.01 1.63405 10.7137 1.65432 10.4549 1.77814C10.1715 1.9148 9.96488 2.16397 9.88821 2.4598L9.49155 3.98814C9.36548 4.47456 9.18196 4.94425 8.94488 5.3873C8.59905 6.0348 8.06405 6.55397 7.50738 7.03314L6.30821 8.06647C6.14186 8.21023 6.01193 8.39136 5.92907 8.59502C5.84622 8.79868 5.8128 9.01907 5.83155 9.23814L6.50821 17.0656C6.53804 17.4118 6.69658 17.7342 6.95254 17.9692C7.2085 18.2042 7.54326 18.3346 7.89071 18.3348H11.764C14.6657 18.3348 17.1415 16.3131 17.6182 13.5556Z" fill="#CFD4D9"/>
<path id="Vector_2" fill-rule="evenodd" clip-rule="evenodd" d="M3.1999 7.90294C3.36095 7.8959 3.51849 7.95136 3.63962 8.05773C3.76074 8.1641 3.83608 8.31316 3.8499 8.47377L4.65823 17.8371C4.67193 17.9765 4.65705 18.1173 4.61452 18.2508C4.57198 18.3843 4.50269 18.5077 4.41085 18.6135C4.31902 18.7193 4.20658 18.8053 4.0804 18.8662C3.95423 18.9271 3.81696 18.9617 3.67698 18.9677C3.53701 18.9738 3.39727 18.9513 3.2663 18.9015C3.13532 18.8518 3.01586 18.7758 2.91522 18.6784C2.81457 18.5809 2.73485 18.4639 2.68092 18.3346C2.62699 18.2053 2.59999 18.0664 2.60157 17.9263V8.52711C2.60163 8.36601 2.66391 8.21116 2.77539 8.09487C2.88687 7.97857 3.03895 7.90981 3.1999 7.90294Z" fill="#CFD4D9"/>
</g>
</svg>
