<svg width="33" height="33" viewBox="0 0 33 33" fill="none" xmlns="http://www.w3.org/2000/svg">
<g id="GNB/ico_money_32_gr" clip-path="url(#clip0_5308_67118)">
<path id="Vector" d="M18.9817 2.35938V8.1495C18.9817 8.91732 19.3287 9.65369 19.9464 10.1966C20.564 10.7396 21.4017 11.0446 22.2752 11.0446H28.8621M22.7383 17.9769L16.9748 23.0433L13.6813 20.1482L9.56445 23.767" stroke="#CFD4D9" stroke-width="2.25" stroke-linecap="round" stroke-linejoin="round"/>
<path id="Rectangle 4025" d="M3.49219 12.0547C3.49219 7.34064 3.49219 4.98362 4.95665 3.51915C6.42112 2.05469 8.77814 2.05469 13.4922 2.05469H16.2166C18.0204 2.05469 18.9223 2.05469 19.7518 2.35709C20.5813 2.65949 21.2716 3.23991 22.6522 4.40074L25.761 7.0147C27.5141 8.48872 28.3906 9.22573 28.858 10.2294C29.3254 11.233 29.3254 12.3782 29.3254 14.6687V20.1911C29.3254 24.9051 29.3254 27.2622 27.861 28.7266C26.3965 30.1911 24.0395 30.1911 19.3254 30.1911H13.4922C8.77814 30.1911 6.42112 30.1911 4.95665 28.7266C3.49219 27.2622 3.49219 24.9051 3.49219 20.1911V12.0547Z" stroke="#CFD4D9" stroke-width="2.25" stroke-linecap="round" stroke-linejoin="round"/>
</g>
<defs>
<clipPath id="clip0_5308_67118">
<rect width="32" height="32" fill="white" transform="translate(0.200195 0.5)"/>
</clipPath>
</defs>
</svg>
