<svg width="36" height="36" viewBox="0 0 36 36" fill="none" xmlns="http://www.w3.org/2000/svg">
<g id="icon_memo_outlined_36_bl">
<path id="Vector" fill-rule="evenodd" clip-rule="evenodd" d="M17.9145 2.375H20.25C20.5484 2.375 20.8345 2.49353 21.0455 2.7045C21.2565 2.91548 21.375 3.20163 21.375 3.5C21.375 3.79837 21.2565 4.08452 21.0455 4.2955C20.8345 4.50647 20.5484 4.625 20.25 4.625H18C14.433 4.625 11.871 4.628 9.921 4.889C8.0025 5.147 6.846 5.639 5.991 6.4925C5.1375 7.3475 4.647 8.5025 4.389 10.421C4.128 12.371 4.125 14.933 4.125 18.5C4.125 22.067 4.128 24.629 4.389 26.579C4.647 28.4975 5.139 29.654 5.9925 30.509C6.8475 31.3625 8.0025 31.853 9.921 32.111C11.871 32.372 14.433 32.375 18 32.375C21.567 32.375 24.129 32.372 26.079 32.111C27.9975 31.853 29.154 31.361 30.009 30.5075C30.8625 29.6525 31.353 28.4975 31.611 26.579C31.872 24.629 31.875 22.067 31.875 18.5V16.25C31.875 15.9516 31.9935 15.6655 32.2045 15.4545C32.4155 15.2435 32.7016 15.125 33 15.125C33.2984 15.125 33.5845 15.2435 33.7955 15.4545C34.0065 15.6655 34.125 15.9516 34.125 16.25V18.5855C34.125 22.049 34.125 24.7625 33.84 26.8805C33.549 29.0465 32.94 30.7565 31.599 32.099C30.2565 33.4415 28.5465 34.049 26.379 34.34C24.2625 34.625 21.549 34.625 18.0855 34.625H17.9145C14.451 34.625 11.7375 34.625 9.6195 34.34C7.4535 34.049 5.7435 33.44 4.401 32.099C3.0585 30.7565 2.451 29.0465 2.16 26.879C1.875 24.7625 1.875 22.049 1.875 18.5855V18.4145C1.875 14.951 1.875 12.2375 2.16 10.1195C2.451 7.9535 3.06 6.2435 4.401 4.901C5.7435 3.5585 7.4535 2.951 9.621 2.66C11.7375 2.375 14.451 2.375 17.9145 2.375ZM25.155 3.914C26.1449 2.95137 27.4739 2.41707 28.8547 2.42664C30.2354 2.43621 31.5569 2.98889 32.5334 3.96515C33.5098 4.94141 34.0628 6.26279 34.0726 7.64353C34.0825 9.02427 33.5484 10.3534 32.586 11.3435L22.614 21.317C22.0575 21.872 21.708 22.223 21.3195 22.526C20.861 22.8843 20.3645 23.1911 19.839 23.441C19.3935 23.6525 18.924 23.8085 18.1785 24.0575L13.821 25.5095C13.4268 25.6408 13.0038 25.6597 12.5994 25.5642C12.195 25.4687 11.8252 25.2625 11.5313 24.9687C11.2375 24.6748 11.0313 24.305 10.9358 23.9006C10.8403 23.4962 10.8592 23.0732 10.9905 22.679L12.4425 18.3215C12.6915 17.5745 12.8475 17.1065 13.059 16.661C13.311 16.135 13.616 15.6415 13.974 15.1805C14.277 14.7905 14.6265 14.4425 15.183 13.886L25.155 3.914ZM30.9945 5.504C30.4311 4.94085 29.6671 4.6245 28.8705 4.6245C28.0739 4.6245 27.3099 4.94085 26.7465 5.504L26.1825 6.0695C26.2145 6.2145 26.2635 6.3835 26.3295 6.5765C26.544 7.196 26.952 8.012 27.72 8.78C28.4679 9.52814 29.4046 10.0595 30.4305 10.3175L30.9945 9.7535C31.5576 9.19009 31.874 8.4261 31.874 7.6295C31.874 6.8329 31.5576 6.06741 30.9945 5.504ZM28.6575 12.092C27.713 11.6848 26.8547 11.1014 26.1285 10.373C25.4001 9.64679 24.8167 8.78849 24.4095 7.844L16.827 15.425C16.2015 16.0505 15.957 16.298 15.747 16.565C15.492 16.8962 15.2723 17.2531 15.0915 17.63C14.9445 17.9345 14.8335 18.2645 14.553 19.103L13.9065 21.0455L15.4545 22.595L17.397 21.947C18.237 21.6665 18.5655 21.5555 18.8715 21.41C19.2495 21.23 19.6045 21.0105 19.9365 20.7515C20.202 20.543 20.4495 20.2985 21.075 19.6745L28.6575 12.092Z" fill="#3996F9"/>
</g>
</svg>
