<svg width="48" height="49" viewBox="0 0 48 49" fill="none" xmlns="http://www.w3.org/2000/svg">
<g id="solar:bell-bing-linear">
<g id="Group">
<path id="Vector" d="M37.4999 19.92V18.51C37.4999 10.772 31.4519 4.5 23.9999 4.5C16.5479 4.5 10.4999 10.772 10.4999 18.51V19.92C10.5023 21.6031 10.022 23.2516 9.11588 24.67L6.89988 28.12C4.87788 31.27 6.42188 35.552 9.93988 36.548C19.1325 39.1513 28.8673 39.1513 38.0599 36.548C41.5779 35.552 43.1219 31.27 41.0999 28.122L38.8839 24.672C37.9771 23.2538 37.4961 21.6053 37.4979 19.922L37.4999 19.92Z" stroke="#CFD4D9" stroke-width="3"/>
<path id="Vector_2" d="M15 38.5C16.31 41.996 19.844 44.5 24 44.5C28.156 44.5 31.69 41.996 33 38.5M24 12.5V20.5" stroke="#CFD4D9" stroke-width="3" stroke-linecap="round"/>
</g>
</g>
</svg>
