<svg width="17" height="17" viewBox="0 0 17 17" fill="none" xmlns="http://www.w3.org/2000/svg">
<path fill-rule="evenodd" clip-rule="evenodd" d="M16.25 8.5C16.25 4.0824 12.6684 0.5 8.25 0.5C3.8316 0.5 0.25 4.0824 0.25 8.5C0.25 12.9176 3.8316 16.5 8.25 16.5C12.6684 16.5 16.25 12.9176 16.25 8.5ZM8.82675 5.67113C8.65204 5.58571 8.44801 5.53843 8.23612 5.53907C8.02423 5.5397 7.82074 5.5882 7.64698 5.67455C7.47336 5.76082 7.342 5.87833 7.25643 6.00553C7.17167 6.13153 7.13283 6.26476 7.13281 6.39276C7.13276 6.7552 6.8389 7.04897 6.47646 7.04891C6.11402 7.04885 5.82026 6.75499 5.82031 6.39256C5.82037 5.99167 5.94385 5.60529 6.16739 5.27296C6.39013 4.94185 6.70225 4.67838 7.06291 4.49917C7.42345 4.32001 7.82631 4.22779 8.23218 4.22657C8.63805 4.22536 9.04151 4.31515 9.40325 4.49202C9.76511 4.66894 10.0791 4.93029 10.3043 5.25973C10.5303 5.59036 10.6569 5.97574 10.6603 6.37659C10.6636 6.77749 10.5434 7.16489 10.3225 7.49895C10.1024 7.83169 9.79237 8.09726 9.43312 8.27886C9.24221 8.37557 9.08651 8.48048 8.98719 8.58073C8.93953 8.62884 8.91557 8.66521 8.90456 8.68723C8.89939 8.69758 8.89756 8.70375 8.89698 8.70607L8.89659 8.70796L8.89658 8.70807V9.71477C8.89658 10.0772 8.60277 10.371 8.24033 10.371C7.8779 10.371 7.58408 10.0772 7.58408 9.71477V8.70807C7.58408 8.24977 7.81783 7.89617 8.05482 7.65696C8.29199 7.41759 8.58447 7.23744 8.84028 7.10787L8.84084 7.10759C9.01346 7.02037 9.14351 6.90229 9.22776 6.7749C9.31121 6.64874 9.3489 6.51553 9.34783 6.38755C9.34676 6.25952 9.30681 6.12628 9.22079 6.00045C9.13396 5.87343 9.00134 5.75649 8.82675 5.67113ZM8.23505 12.931C8.67984 12.931 9.04041 12.5705 9.04041 12.1257C9.04041 11.6809 8.67984 11.3203 8.23505 11.3203C7.79026 11.3203 7.42969 11.6809 7.42969 12.1257C7.42969 12.5705 7.79026 12.931 8.23505 12.931Z" fill="#CFD4D9"/>
</svg>
