<svg width="82" height="82" viewBox="0 0 82 82" fill="none" xmlns="http://www.w3.org/2000/svg">
<g id="General/ico_smartphone_52_bk">
<g id="Group">
<path id="Vector" d="M11.9336 33.7328C11.9336 20.0232 11.9336 13.1665 16.1902 8.9093C20.4467 4.65207 27.2928 4.64844 40.9886 4.64844C54.6844 4.64844 61.5341 4.64844 65.7871 8.9093C70.04 13.1702 70.0436 20.0232 70.0436 33.7328V48.275C70.0436 61.9846 70.0436 68.8413 65.7871 73.0985C61.5305 77.3557 54.6844 77.3594 40.9886 77.3594C27.2928 77.3594 20.4431 77.3594 16.1902 73.0985C11.9372 68.8377 11.9336 61.9846 11.9336 48.275V33.7328Z" stroke="#CFD4D9" stroke-width="5.5"/>
<path id="Vector_2" d="M51.2388 14.9648H30.7388" stroke="#CFD4D9" stroke-width="5.5" stroke-linecap="round"/>
</g>
<path id="Vector_3" d="M35.0874 50.7586L46.9143 38.9316M46.9143 50.7586L35.0874 38.9316" stroke="#CFD4D9" stroke-width="5.5" stroke-linecap="round"/>
</g>
</svg>
