<svg width="32" height="32" viewBox="0 0 32 32" fill="none" xmlns="http://www.w3.org/2000/svg">
<path d="M2.66663 16.2694C2.66663 13.2174 2.66663 11.6921 3.35996 10.4281C4.05063 9.16273 5.31596 8.37873 7.84529 6.80806L10.512 5.1534C13.1853 3.4934 14.5226 2.66406 16 2.66406C17.4773 2.66406 18.8133 3.4934 21.488 5.1534L24.1546 6.80806C26.684 8.37873 27.9493 9.16273 28.6413 10.4281C29.3333 11.6934 29.3333 13.2174 29.3333 16.2681V18.2974C29.3333 23.4974 29.3333 26.0987 27.7706 27.7147C26.208 29.3307 23.6946 29.3307 18.6666 29.3307H13.3333C8.30529 29.3307 5.79063 29.3307 4.22929 27.7147C2.66796 26.0987 2.66663 23.4987 2.66663 18.2974V16.2694Z" stroke="#CFD4D9" stroke-width="2.25"/>
<path d="M16 20V24" stroke="#CFD4D9" stroke-width="2.25" stroke-linecap="round"/>
</svg>
