<svg width="20" height="20" viewBox="0 0 20 20" fill="none" xmlns="http://www.w3.org/2000/svg">
<g id="solar:skip-previous-bold">
<path id="Vector" d="M6.74199 12.2034C5.25283 11.2417 5.25283 8.75338 6.74199 7.79171L15.7337 1.98505C17.1803 1.05088 18.9587 2.26755 18.9587 4.19171V15.8034C18.9587 17.7284 17.1803 18.9442 15.7337 18.01L6.74199 12.2034ZM1.66699 4.16421C1.66699 3.99845 1.73284 3.83948 1.85005 3.72227C1.96726 3.60506 2.12623 3.53921 2.29199 3.53921C2.45775 3.53921 2.61672 3.60506 2.73393 3.72227C2.85114 3.83948 2.91699 3.99845 2.91699 4.16421V15.8309C2.91699 15.9966 2.85114 16.1556 2.73393 16.2728C2.61672 16.39 2.45775 16.4559 2.29199 16.4559C2.12623 16.4559 1.96726 16.39 1.85005 16.2728C1.73284 16.1556 1.66699 15.9966 1.66699 15.8309V4.16421Z" fill="white"/>
</g>
</svg>
