<svg width="16" height="12" viewBox="0 0 16 12" fill="none" xmlns="http://www.w3.org/2000/svg">
<g id="Group">
<path id="Vector" d="M1.07581 5.3691C1.1219 4.6064 1.14526 4.22442 1.34351 3.85759C1.54437 3.50226 1.84814 3.2161 2.21481 3.0368C2.59427 2.8619 3.02803 2.8619 3.89491 2.8619C4.21818 2.8619 4.37981 2.8619 4.53639 2.83539C4.69126 2.80916 4.84227 2.76378 4.98593 2.70027C5.13115 2.6365 5.26626 2.54748 5.53586 2.36943L5.67476 2.27851C7.27909 1.21969 8.08221 0.689966 8.75652 0.920419C8.88595 0.964615 9.01096 1.02775 9.12272 1.10668C9.70485 1.51581 9.74967 2.46856 9.83807 4.37342C9.86689 4.92148 9.8852 5.47003 9.893 6.01879C9.893 6.35468 9.8709 6.95828 9.83807 7.66353C9.74967 9.56903 9.70548 10.5211 9.12272 10.9309C9.01009 11.01 8.88679 11.0727 8.75652 11.1172C8.08284 11.347 7.27972 10.8179 5.67413 9.75907L5.53649 9.66815C5.26689 9.49011 5.13241 9.40108 4.98656 9.33668C4.84287 9.27339 4.69186 9.22822 4.53702 9.2022C4.37981 9.17568 4.21818 9.17568 3.89491 9.17568C3.0274 9.17568 2.59427 9.17568 2.21545 9.00079C1.84854 8.82159 1.54454 8.53542 1.34351 8.18C1.14526 7.81254 1.12253 7.43118 1.07581 6.66785C1.0619 6.45177 1.05453 6.23532 1.05371 6.01879C1.05371 5.81486 1.06192 5.59514 1.07581 5.3691Z" stroke="white"/>
<g id="Group 3021">
<path id="Vector 63" d="M14.6592 2.85938C14.9334 3.14262 15.4819 4.1423 15.4819 5.87509C15.4819 7.60787 14.9334 8.79083 14.6592 9.16571" stroke="white" stroke-width="1.00571" stroke-linecap="round"/>
<path id="Vector 64" d="M12.5625 4.10156C12.7288 4.2733 13.0614 4.87945 13.0614 5.93011C13.0614 6.98077 12.7288 7.69805 12.5625 7.92535" stroke="white" stroke-width="1.00571" stroke-linecap="round"/>
</g>
</g>
</svg>
