<svg width="36" height="36" viewBox="0 0 36 36" fill="none" xmlns="http://www.w3.org/2000/svg">
<g id="ico_message_outlined_36_bl">
<g id="Vector">
<path fill-rule="evenodd" clip-rule="evenodd" d="M15.691 2.375H20.309C22.7141 2.37499 24.5996 2.37498 26.1058 2.5182C27.6412 2.66418 28.8983 2.96685 30.0066 3.64598C31.1671 4.35716 32.1428 5.33291 32.854 6.49345C33.5331 7.60168 33.8358 8.85884 33.9818 10.3942C34.125 11.9004 34.125 13.7859 34.125 16.1909V17.7918C34.125 19.5037 34.125 20.846 34.051 21.9302C33.9758 23.0335 33.8202 23.9516 33.4685 24.8006C32.5931 26.914 30.914 28.5931 28.8006 29.4685C27.5932 29.9686 26.2179 30.0796 24.335 30.112C23.6763 30.1234 23.2591 30.1317 22.9411 30.1669C22.644 30.1998 22.5288 30.248 22.4614 30.2872C22.3902 30.3286 22.2934 30.404 22.1252 30.6348C21.9431 30.8845 21.7374 31.2297 21.4112 31.7808L20.5981 33.1546C19.4377 35.115 16.5622 35.115 15.4018 33.1546L14.5887 31.7808C14.2625 31.2297 14.0568 30.8845 13.8748 30.6348C13.7066 30.404 13.6097 30.3286 13.5386 30.2872C13.4712 30.248 13.356 30.1998 13.0588 30.1669C12.7408 30.1317 12.3236 30.1234 11.665 30.112C9.78206 30.0796 8.40682 29.9686 7.19935 29.4685C5.08599 28.5931 3.40692 26.914 2.53154 24.8006C2.17984 23.9516 2.02424 23.0335 1.94897 21.9302C1.87499 20.8459 1.875 19.5037 1.875 17.7918L1.875 16.191C1.87499 13.7859 1.87498 11.9004 2.0182 10.3942C2.16418 8.85884 2.46685 7.60168 3.14598 6.49345C3.85716 5.33291 4.83291 4.35716 5.99345 3.64598C7.10168 2.96685 8.35884 2.66418 9.89416 2.5182C11.4004 2.37498 13.2859 2.37499 15.691 2.375ZM10.1071 4.7581C8.7365 4.88842 7.86436 5.13835 7.16907 5.56442C6.31128 6.09007 5.59007 6.81128 5.06442 7.66907C4.63835 8.36436 4.38842 9.2365 4.2581 10.6071C4.12619 11.9945 4.125 13.7731 4.125 16.25V17.75C4.125 19.5127 4.12561 20.7783 4.19375 21.7771C4.26121 22.7657 4.39106 23.4104 4.61027 23.9396C5.25729 25.5017 6.49834 26.7427 8.06039 27.3897C8.83385 27.7101 9.82059 27.8299 11.7037 27.8623L11.7515 27.8632C12.3485 27.8734 12.8716 27.8824 13.3065 27.9306C13.7737 27.9823 14.2307 28.0869 14.6698 28.3423C15.1052 28.5955 15.4193 28.9339 15.6931 29.3095C15.9461 29.6566 16.2061 30.0959 16.5005 30.5935L17.3381 32.0085C17.6272 32.497 18.3727 32.497 18.6619 32.0085L19.4994 30.5935C19.7939 30.0959 20.0539 29.6566 20.3068 29.3095C20.5806 28.9339 20.8947 28.5955 21.3301 28.3423C21.7693 28.0869 22.2262 27.9823 22.6935 27.9306C23.1283 27.8824 23.6515 27.8734 24.2485 27.8632L24.2962 27.8623C26.1794 27.8299 27.1662 27.7101 27.9396 27.3897C29.5017 26.7427 30.7427 25.5017 31.3897 23.9396C31.6089 23.4104 31.7388 22.7657 31.8062 21.7771C31.8744 20.7783 31.875 19.5127 31.875 17.75V16.25C31.875 13.7731 31.8738 11.9945 31.7419 10.6071C31.6116 9.2365 31.3617 8.36436 30.9356 7.66907C30.4099 6.81128 29.6887 6.09007 28.8309 5.56442C28.1356 5.13835 27.2635 4.88842 25.8929 4.7581C24.5055 4.62619 22.7269 4.625 20.25 4.625H15.75C13.2731 4.625 11.4945 4.62619 10.1071 4.7581Z" fill="#3996F9"/>
<path d="M13.5 17C13.5 17.8284 12.8284 18.5 12 18.5C11.1716 18.5 10.5 17.8284 10.5 17C10.5 16.1716 11.1716 15.5 12 15.5C12.8284 15.5 13.5 16.1716 13.5 17Z" fill="#3996F9"/>
<path d="M19.5 17C19.5 17.8284 18.8284 18.5 18 18.5C17.1716 18.5 16.5 17.8284 16.5 17C16.5 16.1716 17.1716 15.5 18 15.5C18.8284 15.5 19.5 16.1716 19.5 17Z" fill="#3996F9"/>
<path d="M25.5 17C25.5 17.8284 24.8284 18.5 24 18.5C23.1716 18.5 22.5 17.8284 22.5 17C22.5 16.1716 23.1716 15.5 24 15.5C24.8284 15.5 25.5 16.1716 25.5 17Z" fill="#3996F9"/>
</g>
</g>
</svg>
