<svg width="29" height="28" viewBox="0 0 29 28" fill="none" xmlns="http://www.w3.org/2000/svg">
<g id="General/ico_close_28_bk">
<path id="Vector" d="M14.2421 12.6913L7.70415 6.15338C7.5635 6.01273 7.37273 5.93371 7.17382 5.93371C6.97491 5.93371 6.78414 6.01273 6.64349 6.15338C6.50284 6.29404 6.42382 6.4848 6.42382 6.68371C6.42382 6.88263 6.50284 7.07339 6.64349 7.21404L13.1814 13.752L6.64349 20.2899C6.50284 20.4305 6.42382 20.6213 6.42382 20.8202C6.42382 21.0191 6.50284 21.2099 6.64349 21.3505C6.78414 21.4912 6.97491 21.5702 7.17382 21.5702C7.37273 21.5702 7.5635 21.4912 7.70415 21.3505L14.2421 14.8126L20.7849 21.3555C20.9256 21.4961 21.1163 21.5751 21.3153 21.5751C21.5142 21.5751 21.7049 21.4961 21.8456 21.3555C21.9862 21.2148 22.0652 21.0241 22.0653 20.8251C22.0653 20.6262 21.9862 20.4355 21.8456 20.2948L15.3027 13.752L21.8456 7.21334C21.9862 7.07269 22.0653 6.88192 22.0653 6.68301C22.0652 6.48409 21.9862 6.29333 21.8456 6.15268C21.7049 6.01202 21.5142 5.93301 21.3153 5.93301C21.1163 5.93301 20.9256 6.01203 20.7849 6.15268L14.2421 12.6913Z" fill="#0C0C0D" fill-opacity="0.88"/>
</g>
</svg>
