<svg width="20" height="21" viewBox="0 0 20 21" fill="none" xmlns="http://www.w3.org/2000/svg">
<g id="solar:pause-bold">
<path id="Vector" d="M1.66699 5.2474C1.66699 3.67573 1.66699 2.89073 2.15533 2.4024C2.64366 1.91406 3.42866 1.91406 5.00033 1.91406C6.57199 1.91406 7.35699 1.91406 7.84532 2.4024C8.33366 2.89073 8.33366 3.67573 8.33366 5.2474V15.2474C8.33366 16.8191 8.33366 17.6041 7.84532 18.0924C7.35699 18.5807 6.57199 18.5807 5.00033 18.5807C3.42866 18.5807 2.64366 18.5807 2.15533 18.0924C1.66699 17.6041 1.66699 16.8191 1.66699 15.2474V5.2474ZM11.667 5.2474C11.667 3.67573 11.667 2.89073 12.1553 2.4024C12.6437 1.91406 13.4287 1.91406 15.0003 1.91406C16.572 1.91406 17.357 1.91406 17.8453 2.4024C18.3337 2.89073 18.3337 3.67573 18.3337 5.2474V15.2474C18.3337 16.8191 18.3337 17.6041 17.8453 18.0924C17.357 18.5807 16.572 18.5807 15.0003 18.5807C13.4287 18.5807 12.6437 18.5807 12.1553 18.0924C11.667 17.6041 11.667 16.8191 11.667 15.2474V5.2474Z" fill="white"/>
</g>
</svg>
