<svg width="17" height="16" viewBox="0 0 17 16" fill="none" xmlns="http://www.w3.org/2000/svg">
<g id="ico_user_26">
<path id="Vector" opacity="0.5" d="M16.5 8C16.5 12.4184 12.9184 16 8.5 16C4.0816 16 0.5 12.4184 0.5 8C0.5 3.5816 4.0816 0 8.5 0C12.9184 0 16.5 3.5816 16.5 8Z" fill="#EBE9FB"/>
<g id="Union">
<path fill-rule="evenodd" clip-rule="evenodd" d="M8.49888 8.30425C9.94312 8.30425 11.1139 7.13347 11.1139 5.68924C11.1139 4.245 9.94312 3.07422 8.49888 3.07422C7.05465 3.07422 5.88386 4.245 5.88386 5.68924C5.88386 7.13347 7.05465 8.30425 8.49888 8.30425ZM8.4743 12.9209C11.4866 12.9209 12.6073 12.1306 12.6073 11.2934C12.6073 10.4561 12.1864 9.3146 8.4743 9.3146C4.76225 9.3146 4.38867 10.4561 4.38867 11.2934C4.38867 12.1306 5.50939 12.9209 8.4743 12.9209Z" fill="#F9AA01"/>
<path fill-rule="evenodd" clip-rule="evenodd" d="M8.49888 8.30425C9.94312 8.30425 11.1139 7.13347 11.1139 5.68924C11.1139 4.245 9.94312 3.07422 8.49888 3.07422C7.05465 3.07422 5.88386 4.245 5.88386 5.68924C5.88386 7.13347 7.05465 8.30425 8.49888 8.30425ZM8.4743 12.9209C11.4866 12.9209 12.6073 12.1306 12.6073 11.2934C12.6073 10.4561 12.1864 9.3146 8.4743 9.3146C4.76225 9.3146 4.38867 10.4561 4.38867 11.2934C4.38867 12.1306 5.50939 12.9209 8.4743 12.9209Z" fill="#5682FB"/>
</g>
</g>
</svg>
