<svg width="36" height="36" viewBox="0 0 36 36" fill="none" xmlns="http://www.w3.org/2000/svg">
<g id="ico_call_outlined_36_bl">
<path id="Vector" d="M21.0005 3.5C21.0005 3.5 24.3005 3.8 28.5005 8C32.7005 12.2 33.0005 15.5 33.0005 15.5M21.311 8.804C21.311 8.804 22.796 9.227 25.0235 11.4545C27.251 13.682 27.6755 15.167 27.6755 15.167M15.0575 8.474L16.031 10.2185C16.9085 11.7935 16.556 13.8575 15.173 15.242C15.173 15.242 13.493 16.9205 16.538 19.964C19.5785 23.0045 21.2585 21.329 21.2585 21.329C22.643 19.9445 24.7085 19.592 26.282 20.4695L28.0265 21.4445C30.404 22.7705 30.6845 26.1035 28.595 28.1945C27.3395 29.4485 25.8005 30.4265 24.101 30.4895C21.239 30.599 16.3775 29.8745 11.501 24.9995C6.62597 20.123 5.90147 15.2615 6.01097 12.3995C6.07547 10.7 7.05197 9.161 8.30597 7.9055C10.397 5.816 13.73 6.0965 15.056 8.4755L15.0575 8.474Z" stroke="#3996F9" stroke-width="2.2" stroke-linecap="round"/>
</g>
</svg>
