<svg width="21" height="20" viewBox="0 0 21 20" fill="none" xmlns="http://www.w3.org/2000/svg">
<g id="solar:dislike-bold">
<path id="Vector" d="M17.6182 7.07214L18.2057 10.4721C18.2402 10.6714 18.2307 10.8758 18.1779 11.0711C18.1252 11.2663 18.0304 11.4476 17.9002 11.6024C17.77 11.7572 17.6076 11.8817 17.4243 11.9671C17.241 12.0526 17.0413 12.0969 16.839 12.0971H12.5215C12.4208 12.0971 12.3212 12.119 12.2298 12.1614C12.1384 12.2037 12.0572 12.2654 11.992 12.3423C11.9269 12.4191 11.8792 12.5092 11.8523 12.6063C11.8255 12.7034 11.8201 12.8052 11.8365 12.9046L12.389 16.2755C12.4784 16.8231 12.4529 17.3833 12.314 17.9205C12.1982 18.3646 11.8557 18.7221 11.404 18.8671L11.2832 18.9063C11.0099 18.9938 10.7124 18.973 10.4549 18.8496C10.3164 18.7842 10.194 18.6893 10.0961 18.5715C9.9982 18.4538 9.92725 18.316 9.88821 18.168L9.49155 16.6396C9.36548 16.1532 9.18196 15.6835 8.94488 15.2405C8.59905 14.593 8.06405 14.0738 7.50738 13.5946L6.30821 12.5613C6.14186 12.4175 6.01193 12.2364 5.92907 12.0328C5.84622 11.8291 5.8128 11.6087 5.83155 11.3896L6.50821 3.56214C6.53804 3.21596 6.69658 2.89355 6.95254 2.65858C7.2085 2.4236 7.54326 2.29315 7.89071 2.29297H11.764C14.6657 2.29297 17.1415 4.31464 17.6182 7.07214Z" fill="#CFD4D9"/>
<path id="Vector_2" fill-rule="evenodd" clip-rule="evenodd" d="M3.1999 12.722C3.36095 12.729 3.51849 12.6736 3.63962 12.5672C3.76074 12.4608 3.83608 12.3118 3.8499 12.1512L4.65823 2.78783C4.67193 2.6484 4.65705 2.50763 4.61452 2.37414C4.57198 2.24065 4.50269 2.11723 4.41085 2.01142C4.31902 1.9056 4.20658 1.81962 4.0804 1.75872C3.95423 1.69782 3.81696 1.66329 3.67698 1.65722C3.53701 1.65115 3.39727 1.67368 3.2663 1.72343C3.13532 1.77318 3.01586 1.8491 2.91522 1.94657C2.81457 2.04404 2.73485 2.161 2.68092 2.29031C2.62699 2.41962 2.59999 2.55857 2.60157 2.69866V12.0978C2.60142 12.2591 2.66359 12.4141 2.7751 12.5306C2.8866 12.6471 3.0388 12.7151 3.1999 12.722Z" fill="#CFD4D9"/>
</g>
</svg>
