<svg width="48" height="49" viewBox="0 0 48 49" fill="none" xmlns="http://www.w3.org/2000/svg">
<path d="M31.7859 8.60729L30.7824 9.72223L31.7859 8.60729ZM39.7034 15.7331L38.7 16.848L39.7034 15.7331ZM44.308 20.8082L42.9377 21.4184V21.4185L44.308 20.8082ZM7.34315 42.1569L8.40381 41.0962H8.40381L7.34315 42.1569ZM42.6569 42.1569L41.5962 41.0962L41.5962 41.0962L42.6569 42.1569ZM29 43H21V46H29V43ZM6.5 28.5V20.5H3.5V28.5H6.5ZM43.5 27.6258V28.5H46.5V27.6258H43.5ZM30.7824 9.72223L38.7 16.848L40.7069 14.6181L32.7893 7.49235L30.7824 9.72223ZM46.5 27.6258C46.5 24.2491 46.5303 22.111 45.6782 20.1979L42.9377 21.4185C43.4697 22.6129 43.5 23.9841 43.5 27.6258H46.5ZM38.7 16.848C41.4068 19.2842 42.4058 20.224 42.9377 21.4184L45.6782 20.1979C44.8262 18.2848 43.2168 16.8771 40.7069 14.6181L38.7 16.848ZM21.0596 6C24.2232 6 25.417 6.02316 26.4811 6.43147L27.5558 3.63061C25.8522 2.97684 23.996 3 21.0596 3V6ZM32.7893 7.49235C30.6173 5.53756 29.2593 4.28429 27.5558 3.63061L26.4811 6.43147C27.5453 6.83986 28.443 7.61673 30.7824 9.72223L32.7893 7.49235ZM21 43C17.1864 43 14.477 42.9968 12.4217 42.7205C10.4095 42.45 9.25023 41.9426 8.40381 41.0962L6.28249 43.2175C7.77921 44.7142 9.67711 45.3785 12.022 45.6937C14.3236 46.0032 17.2712 46 21 46V43ZM3.5 28.5C3.5 32.2288 3.49681 35.1764 3.80627 37.478C4.12153 39.8229 4.78576 41.7208 6.28249 43.2175L8.40381 41.0962C7.55739 40.2498 7.05005 39.0905 6.77952 37.0783C6.50319 35.023 6.5 32.3136 6.5 28.5H3.5ZM29 46C32.7288 46 35.6764 46.0032 37.978 45.6937C40.3229 45.3785 42.2208 44.7142 43.7175 43.2175L41.5962 41.0962C40.7498 41.9426 39.5905 42.45 37.5783 42.7205C35.523 42.9968 32.8136 43 29 43V46ZM43.5 28.5C43.5 32.3136 43.4968 35.023 43.2205 37.0783C42.95 39.0905 42.4426 40.2498 41.5962 41.0962L43.7175 43.2175C45.2142 41.7208 45.8785 39.8229 46.1937 37.478C46.5032 35.1764 46.5 32.2288 46.5 28.5H43.5ZM6.5 20.5C6.5 16.6864 6.50319 13.977 6.77952 11.9217C7.05005 9.90952 7.55739 8.75023 8.40381 7.90381L6.28249 5.78249C4.78576 7.27921 4.12153 9.17711 3.80627 11.522C3.49681 13.8236 3.5 16.7712 3.5 20.5H6.5ZM21.0596 3C17.3108 3 14.3488 2.99684 12.0377 3.30615C9.68463 3.62108 7.78038 4.28459 6.28249 5.78249L8.40381 7.90381C9.24906 7.05856 10.4119 6.55049 12.4357 6.27964C14.5015 6.00316 17.2262 6 21.0596 6V3Z" fill="#CFD4D9"/>
<path d="M27 5.5V10.5C27 15.214 27 17.5711 28.4645 19.0355C29.9289 20.5 32.286 20.5 37 20.5H45" stroke="#CFD4D9" stroke-width="3"/>
<path d="M13 36.5L19 30.5M19 36.5L13 30.5" stroke="#CFD4D9" stroke-width="3" stroke-linecap="round"/>
</svg>
