<svg width="48" height="49" viewBox="0 0 48 49" fill="none" xmlns="http://www.w3.org/2000/svg">
<path d="M6 16.5C6 10.844 6 8.014 7.758 6.258C9.514 4.5 12.344 4.5 18 4.5H30C35.656 4.5 38.486 4.5 40.242 6.258C42 8.014 42 10.844 42 16.5V32.5C42 38.156 42 40.986 40.242 42.742C38.486 44.5 35.656 44.5 30 44.5H18C12.344 44.5 9.514 44.5 7.758 42.742C6 40.986 6 38.156 6 32.5V16.5Z" stroke="#CFD4D9" stroke-width="3"/>
<path d="M16 5.5V44.5M4 24.5H8M4 32.5H8M4 16.5H8M23 13.5H33M23 20.5H33" stroke="#CFD4D9" stroke-width="3" stroke-linecap="round"/>
</svg>
