<svg width="24" height="24" viewBox="0 0 24 24" fill="none" xmlns="http://www.w3.org/2000/svg">
<path d="M7.74998 2.5C7.74998 2.30109 7.67096 2.11032 7.53031 1.96967C7.38966 1.82902 7.19889 1.75 6.99998 1.75C6.80107 1.75 6.6103 1.82902 6.46965 1.96967C6.329 2.11032 6.24998 2.30109 6.24998 2.5V4.08C4.80998 4.195 3.86598 4.477 3.17198 5.172C2.47698 5.866 2.19498 6.811 2.07898 8.25H21.921C21.805 6.81 21.523 5.866 20.828 5.172C20.134 4.477 19.189 4.195 17.75 4.079V2.5C17.75 2.30109 17.671 2.11032 17.5303 1.96967C17.3897 1.82902 17.1989 1.75 17 1.75C16.8011 1.75 16.6103 1.82902 16.4696 1.96967C16.329 2.11032 16.25 2.30109 16.25 2.5V4.013C15.585 4 14.839 4 14 4H9.99998C9.16098 4 8.41498 4 7.74998 4.013V2.5Z" fill="#FF9819"/>
<path fill-rule="evenodd" clip-rule="evenodd" d="M22 14V12C22 11.161 22 10.415 21.987 9.75H2.013C2 10.415 2 11.161 2 12V14C2 17.771 2.001 19.656 3.172 20.828C4.343 22 6.229 22 10 22H14C17.771 22 19.656 21.999 20.828 20.828C22 19.657 22 17.771 22 14Z" fill="#FF9819"/>
<g clip-path="url(#clip0_4205_92013)">
<path d="M11.2 11.2623C11.2794 11.1829 11.3846 11.1347 11.4966 11.1263C11.6085 11.1179 11.7197 11.15 11.81 11.2167L11.8625 11.2623L13.1138 12.513L13.1594 12.5661C13.2183 12.6457 13.2504 12.742 13.2512 12.841C13.252 12.94 13.2214 13.0368 13.1638 13.1173L13.1138 13.1761L11.8625 14.4273L11.81 14.4723C11.7304 14.5313 11.6342 14.5635 11.5352 14.5644C11.4362 14.5653 11.3394 14.5348 11.2588 14.4773L11.2 14.4273L11.1544 14.3748C11.0954 14.2951 11.0632 14.1988 11.0624 14.0996C11.0616 14.0004 11.0923 13.9036 11.15 13.823L11.2 13.7642L11.6506 13.313H10.125C9.72833 13.3129 9.34645 13.4637 9.05687 13.7349C8.76729 14.006 8.59167 14.3771 8.56565 14.773L8.56252 14.8761C8.56252 15.1392 8.62752 15.3873 8.74252 15.6055L8.81127 15.7205C8.87434 15.8267 8.89288 15.9536 8.86286 16.0735C8.83284 16.1934 8.75669 16.2966 8.65098 16.3606C8.54526 16.4246 8.41854 16.4443 8.29839 16.4154C8.17823 16.3864 8.07437 16.3112 8.0094 16.2061C7.7774 15.8369 7.64602 15.4134 7.62829 14.9777C7.61056 14.542 7.7071 14.1092 7.90833 13.7223C8.10956 13.3355 8.40848 13.008 8.77541 12.7724C9.14234 12.5368 9.56452 12.4012 10 12.3792L10.125 12.3761L11.65 12.3755L11.2 11.9255L11.1544 11.8723C11.0877 11.782 11.0556 11.6708 11.064 11.5589C11.0724 11.4469 11.1206 11.3417 11.2 11.2623Z" fill="white"/>
<path d="M12.8415 19.5658C12.7621 19.6452 12.6569 19.6934 12.5449 19.7018C12.433 19.7102 12.3218 19.6781 12.2315 19.6114L12.179 19.5658L10.9277 18.3152L10.8821 18.262C10.8232 18.1824 10.7911 18.0862 10.7903 17.9871C10.7895 17.8881 10.8201 17.7914 10.8777 17.7108L10.9277 17.652L12.179 16.4008L12.2315 16.3558C12.3111 16.2968 12.4073 16.2646 12.5063 16.2637C12.6053 16.2628 12.7021 16.2933 12.7827 16.3508L12.8415 16.4008L12.8871 16.4533C12.9461 16.533 12.9783 16.6294 12.9791 16.7285C12.9799 16.8277 12.9492 16.9245 12.8915 17.0052L12.8415 17.0639L12.3909 17.5152H13.9165C14.3132 17.5152 14.695 17.3644 14.9846 17.0933C15.2742 16.8221 15.4498 16.451 15.4759 16.0552L15.479 15.952C15.479 15.6889 15.414 15.4408 15.299 15.2227L15.2302 15.1077C15.1672 15.0014 15.1486 14.8745 15.1786 14.7546C15.2087 14.6347 15.2848 14.5315 15.3905 14.4675C15.4962 14.4035 15.623 14.3838 15.7431 14.4127C15.8633 14.4417 15.9671 14.5169 16.0321 14.622C16.2641 14.9913 16.3955 15.4148 16.4132 15.8505C16.4309 16.2862 16.3344 16.7189 16.1332 17.1058C15.9319 17.4926 15.633 17.8201 15.2661 18.0557C14.8992 18.2914 14.477 18.4269 14.0415 18.4489L13.9165 18.452L12.3915 18.4527L12.8415 18.9027L12.8871 18.9558C12.9538 19.0461 12.9859 19.1573 12.9775 19.2693C12.9691 19.3812 12.9209 19.4864 12.8415 19.5658Z" fill="white"/>
</g>
<defs>
<clipPath id="clip0_4205_92013">
<rect width="10" height="10" fill="white" transform="translate(7 10.5)"/>
</clipPath>
</defs>
</svg>
