<svg width="24" height="24" viewBox="0 0 24 24" fill="none" xmlns="http://www.w3.org/2000/svg">
<path d="M2.15902 11.7292C2.1944 9.96712 2.21257 9.08655 2.7977 8.33313C2.9153 8.18299 3.04758 8.04494 3.19258 7.92105C3.91157 7.31297 4.86194 7.31297 6.76173 7.31297C7.44056 7.31297 7.77998 7.31297 8.10315 7.22501C8.17007 7.20588 8.23668 7.18453 8.30297 7.16095C8.61849 7.04526 8.90245 6.84543 9.46942 6.44769C11.7048 4.87489 12.8234 4.08897 13.7614 4.4303C13.9411 4.49627 14.1152 4.59093 14.271 4.70757C15.0818 5.3147 15.1439 6.72974 15.2673 9.55791C15.3132 10.6058 15.3438 11.5026 15.3438 12.0008C15.3438 12.4989 15.3132 13.3967 15.2673 14.4436C15.143 17.2718 15.0818 18.6868 14.271 19.294C14.1154 19.4106 13.9438 19.504 13.7614 19.5712C12.8225 19.9126 11.7058 19.1266 9.46847 17.5538C8.90245 17.1561 8.61849 16.9563 8.30202 16.8406C8.23653 16.8168 8.17019 16.7955 8.10315 16.7765C7.77998 16.6886 7.44056 16.6886 6.76173 16.6886C4.86194 16.6886 3.91253 16.6886 3.19258 16.0805C3.04763 15.9569 2.91535 15.8192 2.7977 15.6693C2.21257 14.914 2.19536 14.0344 2.15902 12.2733C2.15533 12.0916 2.15533 11.9109 2.15902 11.7292Z" fill="white"/>
<path d="M20.5381 7C20.9732 7.44939 21.8434 9.03545 21.8434 11.7846C21.8434 14.5338 20.9732 16.4107 20.5381 17.0054" stroke="white" stroke-width="1.4" stroke-linecap="round"/>
<path d="M17.8574 8.97656C18.1212 9.24904 18.6489 10.2107 18.6489 11.8777C18.6489 13.5446 18.1212 14.6826 17.8574 15.0433" stroke="white" stroke-width="1.4" stroke-linecap="round"/>
</svg>
