<svg width="53" height="52" viewBox="0 0 53 52" fill="none" xmlns="http://www.w3.org/2000/svg">
<path d="M35.1667 7.67188C39.8792 7.69864 42.4315 7.91498 44.0955 9.62783C46 11.5883 46 14.7419 46 21.0491V34.4308C46 40.7403 46 43.8939 44.0955 45.8543C42.1932 47.8125 39.1273 47.8125 33 47.8125H20C13.8727 47.8125 10.8068 47.8125 8.9045 45.8543C7 43.8917 7 40.7403 7 34.4308V21.0491C7 14.7419 7 11.5883 8.9045 9.62783C10.5685 7.91498 13.1208 7.69864 17.8333 7.67188" fill="white"/>
<path d="M35.1667 7.67188C39.8792 7.69864 42.4315 7.91498 44.0955 9.62783C46 11.5883 46 14.7419 46 21.0491V34.4308C46 40.7403 46 43.8939 44.0955 45.8543C42.1932 47.8125 39.1273 47.8125 33 47.8125H20C13.8727 47.8125 10.8068 47.8125 8.9045 45.8543C7 43.8917 7 40.7403 7 34.4308V21.0491C7 14.7419 7 11.5883 8.9045 9.62783C10.5685 7.91498 13.1208 7.69864 17.8333 7.67188" stroke="#2589F4" stroke-width="3" stroke-linecap="round"/>
<path d="M40.75 40.0938L12.25 40.1875L40.75 40.0938Z" fill="white"/>
<path d="M40.75 40.0938L12.25 40.1875" stroke="#0871F3" stroke-width="2.9" stroke-linecap="round"/>
<path d="M18.7878 5.51463C19.3973 5.12509 20.224 4.90625 21.0859 4.90625H31.9193C32.7812 4.90625 33.6079 5.12509 34.2174 5.51463C35.0668 6.05752 35.4688 6.76519 35.4688 7.67578C35.4688 8.58638 35.0668 9.29404 34.2174 9.83693C33.6079 10.2265 32.7812 10.4453 31.9193 10.4453H21.0859C20.224 10.4453 19.3973 10.2265 18.7878 9.83693C17.9384 9.29404 17.5312 8.58638 17.5312 7.67578C17.5312 6.76519 17.9384 6.05752 18.7878 5.51463Z" fill="white" stroke="#0871F3" stroke-width="3"/>
<path d="M14.815 27.8203C14.815 26.4396 15.9343 25.3203 17.315 25.3203H20.1086C21.4893 25.3203 22.6086 26.4396 22.6086 27.8203V40.0852H14.815V27.8203Z" fill="white" stroke="#0871F3" stroke-width="2.9" stroke-linecap="round"/>
<path d="M22.6071 21.5937C22.6071 20.213 23.7264 19.0938 25.1071 19.0938H27.9008C29.2815 19.0938 30.4008 20.213 30.4008 21.5938V40.0912H22.6071V21.5937Z" fill="white" stroke="#0871F3" stroke-width="2.9" stroke-linecap="round"/>
<path d="M30.3992 33.1953C30.3992 31.8146 31.5185 30.6953 32.8992 30.6953H35.6929C37.0736 30.6953 38.1929 31.8146 38.1929 33.1953V40.0942H30.3992V33.1953Z" fill="white" stroke="#0871F3" stroke-width="2.9" stroke-linecap="round"/>
</svg>
