<svg width="53" height="52" viewBox="0 0 53 52" fill="none" xmlns="http://www.w3.org/2000/svg">
<path d="M23.0289 13.9231C20.6759 16.8951 18.2206 19.0991 16.7762 20.2878C15.9927 20.9326 15.52 21.8981 15.5607 22.912L16.3078 41.4827C16.3565 42.693 17.1291 43.7512 18.296 44.0762C20.6666 44.7365 25.0279 45.7105 30.1281 45.7105C37.8436 45.7105 38.6237 45.4467 39.6282 44.2191C40.6327 42.9914 40.372 41.0566 40.8157 40.4066C41.2593 39.7565 42.6266 39.516 43.268 38.2522C43.9094 36.9885 43.6327 35.2012 43.9094 34.5003C44.1862 33.7994 46.2806 33.2559 46.6107 30.9094C46.9407 28.5628 45.0713 28.2367 45.0992 26.3673C45.1271 24.4979 47.2532 24.0316 47.7532 22.0628C48.2532 20.0941 47.3167 18.2396 45.6907 17.4292C44.0646 16.6187 33.6784 17.4292 33.6784 17.4292C33.6784 17.4292 35.5698 13.4405 35.8157 11.7503C36.0616 10.0601 36.1444 8.10288 35.2219 6.18921C34.2994 4.27555 32.1501 2.94229 29.7253 4.26857C27.3005 5.59485 26.6729 9.3203 23.0289 13.9231Z" fill="white" stroke="#0871F3" stroke-width="3" stroke-linecap="round" stroke-linejoin="round"/>
<path d="M16.5983 32.3852C16.5983 29.1776 16.5074 26.6391 16.3929 24.7139C16.3268 23.6014 16.2937 23.0451 16.0482 22.4376C15.6447 21.4394 14.6362 20.489 13.6158 20.1455C12.9948 19.9365 12.3739 19.9365 11.1321 19.9365C10.0145 19.9365 9.45561 19.9365 8.84445 20.1384C7.87228 20.4596 6.82528 21.4207 6.42224 22.3619C6.16886 22.9536 6.12824 23.4275 6.04699 24.3753C5.87942 26.3302 5.74219 28.9729 5.74219 32.3852C5.74219 35.6543 5.86815 38.1987 6.02606 40.104C6.11826 41.2164 6.16436 41.7726 6.4872 42.4412C6.87902 43.2528 7.81256 44.1122 8.65374 44.4356C9.34681 44.7021 9.99483 44.7021 11.2908 44.7021C12.3893 44.7021 12.9386 44.7021 13.5077 44.5291C14.6046 44.1954 15.6931 43.1712 16.0928 42.0966C16.3002 41.5391 16.3297 41.0535 16.3889 40.0824C16.5053 38.1722 16.5983 35.6304 16.5983 32.3852Z" fill="white" stroke="#0871F3" stroke-width="3" stroke-linecap="round" stroke-linejoin="round"/>
<path d="M25.4453 37.6094C27.0976 37.8827 30.824 38.4158 32.5112 38.3614" stroke="#2589F4" stroke-width="3" stroke-linecap="round" stroke-linejoin="round"/>
</svg>
