<svg width="53" height="52" viewBox="0 0 53 52" fill="none" xmlns="http://www.w3.org/2000/svg">
<path d="M10.7891 10.8359L8.7329 11.5206C6.5879 12.2356 5.5154 12.5931 4.90223 13.4446C4.28906 14.2961 4.28906 15.4293 4.28906 17.6869V17.8451C4.28906 19.7084 4.28906 20.6423 4.73756 21.4049C5.18606 22.1676 6.0029 22.6204 7.63223 23.5283L14.0391 27.0859" stroke="#2589F4" stroke-width="3"/>
<path d="M41.6641 10.8359L43.7202 11.5206C45.8652 12.2356 46.9377 12.5931 47.5509 13.4446C48.1641 14.2961 48.1641 15.4293 48.1641 17.6869V17.8451C48.1641 19.7084 48.1641 20.6423 47.7156 21.4049C47.2671 22.1676 46.4502 22.6204 44.8209 23.5283L38.4141 27.0859" stroke="#2589F4" stroke-width="3"/>
<path d="M26.4974 34.6699V41.1699" stroke="#2589F4" stroke-width="3" stroke-linecap="round"/>
<path d="M26.4946 34.6698C13.2481 34.6698 10.9024 22.2331 10.4884 12.3661C10.3711 9.62309 10.3136 8.24943 11.4083 6.98193C12.5007 5.71226 13.8092 5.50426 16.4286 5.08826C19.7559 4.57475 23.1229 4.32327 26.4946 4.33643C30.5973 4.33643 33.9756 4.67659 36.5605 5.08826C39.1799 5.50426 40.4884 5.71226 41.5831 6.98193C42.6778 8.25159 42.618 9.62309 42.503 12.3661C42.089 22.2331 39.7433 34.6698 26.4969 34.6698H26.4946Z" fill="white" stroke="#0871F3" stroke-width="3"/>
<path d="M34.0807 47.6696H18.9141L19.6507 43.9949C19.7489 43.5039 20.014 43.0621 20.4011 42.7445C20.7882 42.4269 21.2734 42.2532 21.7741 42.2529H31.2207C31.7214 42.2532 32.2066 42.4269 32.5937 42.7445C32.9808 43.0621 33.2459 43.5039 33.3441 43.9949L34.0807 47.6696Z" stroke="#2589F4" stroke-width="3" stroke-linecap="round" stroke-linejoin="round"/>
<path d="M24.6471 13.0534C25.4704 11.5736 25.8821 10.8369 26.4974 10.8369C27.1128 10.8369 27.5244 11.5736 28.3478 13.0534L28.5601 13.4347C28.7941 13.8551 28.9111 14.0631 29.0931 14.2017C29.2773 14.3404 29.5048 14.3924 29.9598 14.4942L30.3714 14.5896C31.9704 14.9514 32.7699 15.1312 32.9606 15.7422C33.1513 16.3532 32.6053 16.9924 31.5154 18.2664L31.2338 18.5957C30.9239 18.9576 30.7679 19.1374 30.6986 19.3627C30.6293 19.5881 30.6531 19.8286 30.6986 20.3117L30.7419 20.7516C30.9066 22.4524 30.9889 23.3039 30.4928 23.6809C29.9944 24.0579 29.2448 23.7134 27.7476 23.0244L27.3619 22.8467C26.9351 22.6517 26.7228 22.5542 26.4974 22.5542C26.2721 22.5542 26.0598 22.6517 25.6329 22.8467L25.2473 23.0244C23.7501 23.7156 23.0004 24.0579 22.5021 23.6809C22.0038 23.3039 22.0883 22.4524 22.2529 20.7516L22.2963 20.3117C22.3418 19.8286 22.3656 19.5881 22.2963 19.3627C22.2269 19.1374 22.0709 18.9576 21.7611 18.5957L21.4794 18.2664C20.3896 16.9924 19.8436 16.3554 20.0343 15.7422C20.2249 15.1312 21.0244 14.9514 22.6234 14.5896L23.0351 14.4942C23.4901 14.3924 23.7176 14.3426 23.9018 14.2017C24.0838 14.0631 24.2008 13.8551 24.4348 13.4347L24.6471 13.0534Z" stroke="#0871F3" stroke-width="3"/>
<path d="M39.4974 47.6699H13.4974" stroke="#0871F3" stroke-width="3" stroke-linecap="round"/>
</svg>
