<svg width="33" height="33" viewBox="0 0 33 33" fill="none" xmlns="http://www.w3.org/2000/svg">
<g id="GNB/ico_money_32_gr" clip-path="url(#clip0_6087_61097)">
<path id="Vector" d="M18.9814 2.35938V8.1495C18.9814 8.91732 19.3284 9.65369 19.946 10.1966C20.5637 10.7396 21.4014 11.0446 22.2749 11.0446H28.8618M22.738 17.9769L16.9745 23.0433L13.681 20.1482L9.56415 23.767" stroke="#CFD4D9" stroke-width="2.25" stroke-linecap="round" stroke-linejoin="round"/>
<path id="Rectangle 4025" d="M3.49176 12.0547C3.49176 7.34064 3.49176 4.98362 4.95623 3.51915C6.42069 2.05469 8.77772 2.05469 13.4918 2.05469H16.2162C18.02 2.05469 18.9218 2.05469 19.7514 2.35709C20.5809 2.65949 21.2712 3.23991 22.6518 4.40074L25.7606 7.0147C27.5137 8.48872 28.3902 9.22573 28.8576 10.2294C29.325 11.233 29.325 12.3782 29.325 14.6687V20.1911C29.325 24.9051 29.325 27.2622 27.8605 28.7266C26.3961 30.1911 24.0391 30.1911 19.325 30.1911H13.4918C8.77772 30.1911 6.42069 30.1911 4.95623 28.7266C3.49176 27.2622 3.49176 24.9051 3.49176 20.1911V12.0547Z" stroke="#CFD4D9" stroke-width="2.25" stroke-linecap="round" stroke-linejoin="round"/>
</g>
<defs>
<clipPath id="clip0_6087_61097">
<rect width="32" height="32" fill="white" transform="translate(0.200012 0.5)"/>
</clipPath>
</defs>
</svg>
