<svg width="33" height="33" viewBox="0 0 33 33" fill="none" xmlns="http://www.w3.org/2000/svg">
<g id="GNB/ico_fund_outlined_32_gr" clip-path="url(#clip0_6087_61877)">
<path id="Union" fill-rule="evenodd" clip-rule="evenodd" d="M16.4486 1.14844H16.3565H16.3565H16.3564C15.5485 1.14842 14.8741 1.14841 14.3233 1.19378C13.7488 1.24111 13.2096 1.34346 12.7004 1.60542C11.9356 1.99888 11.313 2.62154 10.9195 3.38631C10.6575 3.8955 10.5552 4.43471 10.5079 5.00923C10.4625 5.56003 10.4625 6.23442 10.4625 7.04239V7.0424V9.69537C10.4274 9.69201 10.3921 9.68889 10.3567 9.68597C9.80594 9.6406 9.13155 9.64061 8.32358 9.64063H8.32357H8.23148H8.23147C7.4235 9.64061 6.74911 9.6406 6.19832 9.68597C5.62379 9.7333 5.08458 9.83564 4.5754 10.0976C3.81063 10.4911 3.18797 11.1137 2.79451 11.8785C2.53254 12.3877 2.43019 12.9269 2.38287 13.5014C2.3375 14.0522 2.33751 14.7266 2.33753 15.5345V15.5346V29.8047H1.96252C1.3412 29.8047 0.837524 30.3084 0.837524 30.9297C0.837524 31.551 1.3412 32.0547 1.96252 32.0547H30.8375C31.4588 32.0547 31.9625 31.551 31.9625 30.9297C31.9625 30.3084 31.4588 29.8047 30.8375 29.8047H30.4675V22.8705V22.8704V22.8703V22.8703C30.4675 22.0624 30.4676 21.3881 30.4222 20.8374C30.3749 20.2628 30.2725 19.7236 30.0105 19.2144C29.6171 18.4497 28.9944 17.827 28.2297 17.4335C27.7205 17.1716 27.1813 17.0692 26.6067 17.0219C26.0559 16.9765 25.3815 16.9766 24.5736 16.9766H24.4815C23.6735 16.9766 22.9991 16.9765 22.4483 17.0219C22.4129 17.0248 22.3777 17.0279 22.3425 17.0313V7.04238V7.04234C22.3425 6.23439 22.3426 5.56001 22.2972 5.00923C22.2499 4.43471 22.1475 3.89549 21.8855 3.38631C21.4921 2.62154 20.8694 1.99888 20.1047 1.60542C19.5955 1.34346 19.0563 1.24111 18.4817 1.19378C17.931 1.14841 17.2566 1.14842 16.4487 1.14844H16.4486H16.4486ZM10.172 11.9284C10.2827 11.9375 10.3787 11.9484 10.4625 11.9609V29.7861H4.58753V15.5806C4.58753 14.7147 4.58842 14.1336 4.62527 13.6861C4.66103 13.252 4.72486 13.0446 4.79525 12.9078C4.97409 12.5602 5.25712 12.2772 5.60474 12.0983C5.74154 12.028 5.9489 11.9641 6.38303 11.9284C6.83046 11.8915 7.41165 11.8906 8.27753 11.8906C9.14341 11.8906 9.72459 11.8915 10.172 11.9284ZM18.5875 22.8705L18.5875 29.7977H12.7125V7.08845C12.7125 6.22256 12.7134 5.64138 12.7503 5.19395C12.786 4.75982 12.8499 4.55246 12.9202 4.41565C13.0991 4.06803 13.3821 3.785 13.7297 3.60616C13.8665 3.53578 14.0739 3.47195 14.508 3.43619C14.9555 3.39933 15.5366 3.39844 16.4025 3.39844C17.2684 3.39844 17.8496 3.39933 18.297 3.43619C18.7311 3.47195 18.9385 3.53578 19.0753 3.60616C19.4229 3.785 19.706 4.06803 19.8848 4.41565C19.9552 4.55246 20.019 4.75982 20.0548 5.19395C20.0916 5.64138 20.0925 6.22256 20.0925 7.08844V17.9155C19.6607 18.2706 19.3031 18.7118 19.0445 19.2144C18.7825 19.7236 18.6802 20.2628 18.6329 20.8374C18.5875 21.3881 18.5875 22.0625 18.5875 22.8704V22.8705V22.8705V22.8705ZM21.8547 19.4343C21.9915 19.3639 22.1989 19.3001 22.633 19.2643C23.0805 19.2275 23.6616 19.2266 24.5275 19.2266C25.3934 19.2266 25.9746 19.2275 26.422 19.2643C26.8561 19.3001 27.0635 19.3639 27.2003 19.4343C27.5479 19.6131 27.831 19.8962 28.0098 20.2438C28.0802 20.3806 28.144 20.5879 28.1798 21.0221C28.2166 21.4695 28.2175 22.0507 28.2175 22.9166V29.8005H20.8375V22.9166C20.8375 22.0507 20.8384 21.4695 20.8753 21.0221C20.911 20.5879 20.9749 20.3806 21.0452 20.2438C21.2241 19.8962 21.5071 19.6131 21.8547 19.4343Z" fill="#CFD4D9"/>
</g>
<defs>
<clipPath id="clip0_6087_61877">
<rect width="32" height="32" fill="white" transform="translate(0.400024 0.5)"/>
</clipPath>
</defs>
</svg>
