<svg width="33" height="33" viewBox="0 0 33 33" fill="none" xmlns="http://www.w3.org/2000/svg">
<g id="GNB/ico_financePlus_32_bk">
<path id="Vector" d="M5.4213 27.8865C7.37597 29.8385 10.5173 29.8385 16.8026 29.8385C23.088 29.8385 26.2306 29.8385 28.1826 27.8852C30.136 25.9345 30.136 22.7905 30.136 16.5052C30.136 10.2199 30.136 7.07721 28.1826 5.12387C26.232 3.17188 23.088 3.17188 16.8026 3.17188C10.5173 3.17188 7.37463 3.17188 5.4213 5.12387C3.4693 7.07854 3.4693 10.2199 3.4693 16.5052C3.4693 22.7905 3.4693 25.9345 5.4213 27.8865Z" stroke="#CFD4D9" stroke-width="2.25"/>
<path id="Vector_2" d="M24.8 11.3932H19.4667M24.8 19.3932H19.4667M24.8 23.3932H19.4667M14.1334 11.3932H11.4667M11.4667 11.3932H8.80005M11.4667 11.3932V8.72656M11.4667 11.3932V14.0599M13.4667 19.3932L11.4667 21.3932M11.4667 21.3932L9.46672 23.3932M11.4667 21.3932L9.46672 19.3932M11.4667 21.3932L13.4667 23.3932" stroke="#CFD4D9" stroke-width="2.25" stroke-linecap="round"/>
</g>
</svg>
