<svg width="32" height="32" viewBox="0 0 32 32" fill="none" xmlns="http://www.w3.org/2000/svg">
<g id="solar:home-2-linear" clip-path="url(#clip0_6087_74099)">
<g id="Group">
<path id="Vector" d="M2.66675 16.2694C2.66675 13.2174 2.66675 11.6921 3.36008 10.4281C4.05075 9.16273 5.31608 8.37873 7.84541 6.80806L10.5121 5.1534C13.1854 3.4934 14.5227 2.66406 16.0001 2.66406C17.4774 2.66406 18.8134 3.4934 21.4881 5.1534L24.1547 6.80806C26.6841 8.37873 27.9494 9.16273 28.6414 10.4281C29.3334 11.6934 29.3334 13.2174 29.3334 16.2681V18.2974C29.3334 23.4974 29.3334 26.0987 27.7707 27.7147C26.2081 29.3307 23.6947 29.3307 18.6667 29.3307H13.3334C8.30541 29.3307 5.79075 29.3307 4.22941 27.7147C2.66808 26.0987 2.66675 23.4987 2.66675 18.2974V16.2694Z" fill="#2589F4" stroke="#2589F4" stroke-width="4" stroke-linejoin="round"/>
<path id="Vector_2" d="M16.0001 20V24" stroke="white" stroke-width="2.25" stroke-linecap="round"/>
</g>
</g>
<defs>
<clipPath id="clip0_6087_74099">
<rect width="32" height="32" fill="white"/>
</clipPath>
</defs>
</svg>
