<svg width="29" height="31" viewBox="0 0 29 31" fill="none" xmlns="http://www.w3.org/2000/svg">
<g id="Group">
<path id="Vector" d="M23.7353 11.9394V10.9849C23.7353 5.74619 19.6383 1.5 14.5903 1.5C9.54227 1.5 5.44532 5.74619 5.44532 10.9849V11.9394C5.44695 13.0789 5.12158 14.195 4.50779 15.1552L3.00666 17.4909C1.63695 19.6235 2.68286 22.5224 5.06598 23.1967C11.2931 24.9592 17.8875 24.9592 24.1146 23.1967C26.4978 22.5224 27.5437 19.6235 26.1739 17.4922L24.6728 15.1566C24.0586 14.1965 23.7327 13.0804 23.7339 11.9408L23.7353 11.9394Z" fill="#2589F4" stroke="#2589F4" stroke-width="3"/>
<path id="Vector_2" d="M7.58978 24.5156C8.60981 27.2378 11.3615 29.1875 14.5976 29.1875C17.8336 29.1875 20.5854 27.2378 21.6054 24.5156" stroke="#2589F4" stroke-width="2.5" stroke-linecap="round"/>
<path id="Vector_3" d="M14.5976 7.1875V12.5208" stroke="white" stroke-width="2.25" stroke-linecap="round"/>
</g>
</svg>
