<svg width="33" height="33" viewBox="0 0 33 33" fill="none" xmlns="http://www.w3.org/2000/svg">
<g id="GNB/ico_financePlus_32_bl_filled">
<path id="Vector" d="M5.4213 27.8865C7.37597 29.8385 10.5173 29.8385 16.8026 29.8385C23.088 29.8385 26.2306 29.8385 28.1826 27.8852C30.136 25.9345 30.136 22.7905 30.136 16.5052C30.136 10.2199 30.136 7.07721 28.1826 5.12387C26.232 3.17188 23.088 3.17188 16.8026 3.17188C10.5173 3.17188 7.37463 3.17188 5.4213 5.12387C3.4693 7.07854 3.4693 10.2199 3.4693 16.5052C3.4693 22.7905 3.4693 25.9345 5.4213 27.8865Z" fill="#2589F4" stroke="#2589F4" stroke-width="4"/>
<path id="Vector_2" d="M24.9875 11.5182H19.6542M24.9875 19.5182H19.6542M24.9875 23.5182H19.6542M14.3209 11.5182H11.6542M11.6542 11.5182H8.98755M11.6542 11.5182V8.85156M11.6542 11.5182V14.1849M13.6542 19.5182L11.6542 21.5182M11.6542 21.5182L9.65422 23.5182M11.6542 21.5182L9.65422 19.5182M11.6542 21.5182L13.6542 23.5182" stroke="white" stroke-width="2.25" stroke-linecap="round"/>
</g>
</svg>
