<svg width="33" height="33" viewBox="0 0 33 33" fill="none" xmlns="http://www.w3.org/2000/svg">
<g id="solar:chart-linear">
<g clip-path="url(#clip0_6087_74017)">
<path id="Union" fill-rule="evenodd" clip-rule="evenodd" d="M25.0565 16.9768L24.8641 16.9767C23.8322 16.9758 23.033 16.9751 22.3543 17.2179C21.1914 17.634 20.2762 18.5492 19.8601 19.7121C19.6173 20.3907 19.618 21.19 19.6189 22.2218L19.619 22.4143V32.0507H30.494V22.4143L30.4941 22.2218V22.2218C30.495 21.19 30.4957 20.3907 30.2529 19.7121C29.8368 18.5492 28.9215 17.634 27.7587 17.2179C27.08 16.9751 26.2808 16.9758 25.2489 16.9767L25.0565 16.9768Z" fill="#0871F3"/>
<path id="Subtract" fill-rule="evenodd" clip-rule="evenodd" d="M16.3685 1.14844H16.4629L16.4632 1.14844C17.2909 1.14842 17.6069 1.14842 18.1708 1.19598C18.7592 1.24562 19.3109 1.35302 19.8296 1.62759C20.5609 2.01461 21.1589 2.61258 21.5459 3.34383C21.8204 3.86261 21.9278 4.41429 21.9775 5.00271C22.0251 5.56664 22.025 6.25768 22.025 7.08563V15.2267C21.9094 15.2587 21.7946 15.2947 21.6811 15.3353C19.9544 15.9532 18.5954 17.3122 17.9776 19.0388C17.6144 20.0539 17.617 21.1717 17.6191 22.0669L17.6194 22.2241L17.6195 32.0477H11.0875V7.0856V7.08557C11.0875 6.25765 11.0875 5.56663 11.1351 5.00271C11.1847 4.41429 11.2921 3.86261 11.5667 3.34383C11.9537 2.61258 12.5517 2.01461 13.2829 1.62759C13.8017 1.35302 14.3534 1.24562 14.9418 1.19598C15.5056 1.14842 15.5405 1.14842 16.3678 1.14844L16.3685 1.14844Z" fill="#2589F4"/>
<path id="Subtract_2" fill-rule="evenodd" clip-rule="evenodd" d="M9.25938 9.66359C8.87106 9.63995 8.44417 9.64032 7.96768 9.64073L7.77525 9.64084L7.58281 9.64073C6.55097 9.63984 5.7517 9.63915 5.07306 9.88197C3.9102 10.2981 2.99495 11.2133 2.57887 12.3762C2.33605 13.0548 2.33674 13.8541 2.33763 14.8859L2.33774 15.0783V32.0363H13.2128V30.7187H9.25938L9.25938 9.66359Z" fill="#0871F3"/>
<path id="Vector" d="M30.8375 30.9297H1.96252" stroke="#0871F3" stroke-width="2.25" stroke-linecap="round"/>
</g>
</g>
<defs>
<clipPath id="clip0_6087_74017">
<path d="M0.400024 3.5C0.400024 1.84315 1.74317 0.5 3.40002 0.5H29.4C31.0569 0.5 32.4 1.84315 32.4 3.5V32.5H0.400024V3.5Z" fill="white"/>
</clipPath>
</defs>
</svg>
