<svg width="32" height="33" viewBox="0 0 32 33" fill="none" xmlns="http://www.w3.org/2000/svg">
<g id="solar:home-2-linear">
<g id="Group">
<path id="Vector" d="M2.66669 16.7694C2.66669 13.7174 2.66669 12.1921 3.36002 10.9281C4.05069 9.66273 5.31602 8.87873 7.84535 7.30806L10.512 5.6534C13.1854 3.9934 14.5227 3.16406 16 3.16406C17.4774 3.16406 18.8134 3.9934 21.488 5.6534L24.1547 7.30806C26.684 8.87873 27.9494 9.66273 28.6414 10.9281C29.3334 12.1934 29.3334 13.7174 29.3334 16.7681V18.7974C29.3334 23.9974 29.3334 26.5987 27.7707 28.2147C26.208 29.8307 23.6947 29.8307 18.6667 29.8307H13.3334C8.30535 29.8307 5.79069 29.8307 4.22935 28.2147C2.66802 26.5987 2.66669 23.9987 2.66669 18.7974V16.7694Z" stroke="#CFD4D9" stroke-width="2.25" stroke-linecap="round" stroke-linejoin="round"/>
<path id="Vector_2" d="M16 20.5V24.5" stroke="#CFD4D9" stroke-width="2.25" stroke-linecap="round" stroke-linejoin="round"/>
</g>
</g>
</svg>
