<svg width="33" height="33" viewBox="0 0 33 33" fill="none" xmlns="http://www.w3.org/2000/svg">
<g id="lucide:file-chart-line">
<mask id="mask0_6087_73952" style="mask-type:alpha" maskUnits="userSpaceOnUse" x="2" y="0" width="29" height="32">
<path id="Rectangle 4026" d="M3.48907 12.0547C3.48907 7.34064 3.48907 4.98362 4.95354 3.51915C6.41801 2.05469 8.77503 2.05469 13.4891 2.05469H16.2135C18.0173 2.05469 18.9191 2.05469 19.7487 2.35709C20.5782 2.65949 21.2685 3.23991 22.6491 4.40074L25.7579 7.0147C27.511 8.48872 28.3875 9.22573 28.8549 10.2294C29.3223 11.233 29.3223 12.3782 29.3223 14.6687V20.1911C29.3223 24.9051 29.3223 27.2622 27.8579 28.7266C26.3934 30.1911 24.0364 30.1911 19.3223 30.1911H13.4891C8.77503 30.1911 6.41801 30.1911 4.95354 28.7266C3.48907 27.2622 3.48907 24.9051 3.48907 20.1911V12.0547Z" fill="#2589F4" stroke="#2589F4" stroke-width="2.25" stroke-linecap="round" stroke-linejoin="round"/>
</mask>
<g mask="url(#mask0_6087_73952)">
<path id="Rectangle 4025" d="M3.49176 12.0547C3.49176 7.34064 3.49176 4.98362 4.95623 3.51915C6.42069 2.05469 8.77772 2.05469 13.4918 2.05469H16.2162C18.02 2.05469 18.9218 2.05469 19.7514 2.35709C20.5809 2.65949 21.2712 3.23991 22.6518 4.40074L25.7606 7.0147C27.5137 8.48872 28.3902 9.22573 28.8576 10.2294C29.325 11.233 29.325 12.3782 29.325 14.6687V20.1911C29.325 24.9051 29.325 27.2622 27.8605 28.7266C26.3961 30.1911 24.0391 30.1911 19.325 30.1911H13.4918C8.77772 30.1911 6.42069 30.1911 4.95623 28.7266C3.49176 27.2622 3.49176 24.9051 3.49176 20.1911V12.0547Z" fill="#2589F4" stroke="#2589F4" stroke-width="2.25" stroke-linecap="round" stroke-linejoin="round"/>
<path id="Vector" d="M22.7411 17.9766L16.9775 23.0429L13.684 20.1479L9.5672 23.7667" stroke="white" stroke-width="2.25" stroke-linecap="round" stroke-linejoin="round"/>
<path id="Vector_2" d="M18.9813 7.10263V-0.78125L32.4345 11.0446H23.4657C22.2763 11.0446 21.1357 10.6293 20.2947 9.89C19.4537 9.15074 18.9813 8.1481 18.9813 7.10263Z" fill="#0871F3"/>
</g>
</g>
</svg>
