<svg width="27" height="29" viewBox="0 0 27 29" fill="none" xmlns="http://www.w3.org/2000/svg">
<g id="Group">
<path id="Vector" d="M22.6001 11.4441V10.5041C22.6001 5.3454 18.5681 1.16406 13.6001 1.16406C8.63206 1.16406 4.60006 5.3454 4.60006 10.5041V11.4441C4.60166 12.5661 4.28145 13.6651 3.67739 14.6107L2.20006 16.9107C0.852058 19.0107 1.88139 21.8654 4.22672 22.5294C10.3551 24.2649 16.845 24.2649 22.9734 22.5294C25.3187 21.8654 26.3481 19.0107 25.0001 16.9121L23.5227 14.6121C22.9182 13.6666 22.5975 12.5676 22.5987 11.4454L22.6001 11.4441Z" stroke="#CFD4D9" stroke-width="2.25"/>
<path id="Vector_2" d="M7.60004 23.8333C8.47337 26.164 10.8294 27.8333 13.6 27.8333C16.3707 27.8333 18.7267 26.164 19.6 23.8333M13.6 6.5V11.8333" stroke="#CFD4D9" stroke-width="2.25" stroke-linecap="round"/>
</g>
</svg>
