<svg width="53" height="52" viewBox="0 0 53 52" fill="none" xmlns="http://www.w3.org/2000/svg">
<g clip-path="url(#clip0_4756_106393)">
<mask id="mask0_4756_106393" style="mask-type:alpha" maskUnits="userSpaceOnUse" x="2" y="3" width="46" height="44">
<path fill-rule="evenodd" clip-rule="evenodd" d="M25.164 3.23438C19.3606 3.23438 13.6115 4.83433 9.32803 9.11783C5.12807 13.3178 2.76855 19.0142 2.76855 24.9538C2.76855 30.8547 5.15547 36.6172 9.32803 40.7898C13.6106 45.0724 19.4518 46.4375 25.164 46.4375C30.8762 46.4375 36.7174 45.0724 41 40.7898C45.1726 36.6172 47.5595 30.8547 47.5595 24.9538C47.5595 19.0142 45.2 13.3178 41 9.11783C36.7165 4.83433 30.9675 3.23438 25.164 3.23438Z" fill="#0871F3"/>
</mask>
<g mask="url(#mask0_4756_106393)">
<path d="M46.0614 24.8041C46.0614 27.4397 45.5209 30.0495 44.4707 32.4845C43.4206 34.9195 41.8814 37.132 39.9409 38.9956C38.0005 40.8593 35.6969 42.3376 33.1617 43.3462C30.6264 44.3548 27.9091 44.8739 25.165 44.8739C22.4208 44.8739 19.7035 44.3548 17.1683 43.3462C14.633 42.3376 12.3294 40.8593 10.389 38.9956C8.44856 37.132 6.90934 34.9195 5.8592 32.4845C4.80906 30.0495 4.26855 27.4397 4.26855 24.8041C4.26855 19.4813 6.47013 14.3765 10.389 10.6127C14.3078 6.84886 19.6229 4.73437 25.165 4.73438C30.707 4.73438 36.0221 6.84886 39.9409 10.6127C43.8598 14.3765 46.0614 19.4813 46.0614 24.8041Z" fill="white"/>
<path d="M34.3001 25.0314C34.3001 27.8337 34.0625 30.6105 33.6031 33.1994C33.1459 35.7883 32.4717 38.1403 31.6215 40.1231C30.5657 42.5918 28.5293 45.0625 25.1579 45.0625C21.7877 45.0625 19.7507 42.5905 18.6944 40.1231C17.8442 38.1403 17.17 35.7905 16.7106 33.1994C16.2418 30.4989 16.0094 27.7671 16.0158 25.0314C16.0158 22.229 16.2512 19.4523 16.7106 16.8633C17.17 14.2744 17.8442 11.9224 18.6944 9.93961C19.7499 7.47157 21.9776 4.57031 25.3485 4.57031C28.7188 4.57031 30.5652 7.47222 31.6215 9.93961C32.4717 11.9224 33.1459 14.2723 33.6031 16.8633C34.0647 19.4523 34.3001 22.229 34.3001 25.0314Z" stroke="#2589F4" stroke-width="3.2"/>
<path d="M4.91699 26.3672L45.4795 26.3672" stroke="#2589F4" stroke-width="3.2" stroke-linecap="round"/>
<path d="M46.0595 24.9538C46.0595 30.4569 43.8306 35.8379 39.9393 39.7291C36.0481 43.6204 30.6671 44.9375 25.164 44.9375C19.6609 44.9375 14.28 43.6204 10.3887 39.7291C6.49743 35.8379 4.26855 30.4569 4.26855 24.9538C4.26855 19.412 6.47003 14.0971 10.3887 10.1785C14.3074 6.25983 19.6222 4.73437 25.164 4.73438C30.7058 4.73438 36.0207 6.25983 39.9393 10.1785C43.858 14.0971 46.0595 19.412 46.0595 24.9538Z" stroke="#0871F3" stroke-width="3"/>
</g>
<circle cx="40.167" cy="35.6641" r="12" fill="#0871F3"/>
<path d="M40.1701 40.9825C41.9251 40.9825 43.3466 39.7976 43.3466 38.3365C43.3466 36.8753 41.9251 35.6889 40.1701 35.6889C38.4151 35.6889 36.9937 34.5041 36.9937 33.0413C36.9937 31.5801 38.4151 30.3953 40.1701 30.3953M40.1701 40.9825C38.4151 40.9825 36.9937 39.7976 36.9937 38.3365M40.1701 40.9825V42.0418M40.1701 30.3953V29.3359M40.1701 30.3953C41.9251 30.3953 43.3466 31.5801 43.3466 33.0413" stroke="white" stroke-width="2" stroke-linecap="round"/>
</g>
<defs>
<clipPath id="clip0_4756_106393">
<rect width="52" height="52" fill="white" transform="translate(0.166992)"/>
</clipPath>
</defs>
</svg>
