<svg width="53" height="52" viewBox="0 0 53 52" fill="none" xmlns="http://www.w3.org/2000/svg">
<path d="M23.4288 13.9231C21.0758 16.8951 18.6205 19.0991 17.1761 20.2878C16.3926 20.9326 15.9199 21.8981 15.9606 22.912L16.7077 41.4827C16.7564 42.693 17.529 43.7512 18.6959 44.0762C21.0665 44.7365 25.4278 45.7105 30.528 45.7105C38.2435 45.7105 39.0236 45.4467 40.0281 44.2191C41.0326 42.9914 40.7719 41.0566 41.2156 40.4066C41.6592 39.7565 43.0265 39.516 43.6679 38.2522C44.3093 36.9885 44.0326 35.2012 44.3093 34.5003C44.5861 33.7994 46.6805 33.2559 47.0106 30.9094C47.3406 28.5628 45.4712 28.2367 45.4991 26.3673C45.527 24.4979 47.6531 24.0316 48.1531 22.0628C48.6531 20.0941 47.7166 18.2396 46.0906 17.4292C44.4645 16.6187 34.0783 17.4292 34.0783 17.4292C34.0783 17.4292 35.9697 13.4405 36.2156 11.7503C36.4615 10.0601 36.5443 8.10288 35.6218 6.18921C34.6993 4.27555 32.55 2.94229 30.1252 4.26857C27.7004 5.59485 27.0728 9.3203 23.4288 13.9231Z" fill="white" stroke="#0871F3" stroke-width="3" stroke-linecap="round" stroke-linejoin="round"/>
<path d="M16.9982 32.3862C16.9982 29.1785 16.9073 26.6401 16.7928 24.7149C16.7267 23.6023 16.6936 23.0461 16.4481 22.4386C16.0446 21.4404 15.0361 20.49 14.0157 20.1465C13.3947 19.9375 12.7738 19.9375 11.532 19.9375C10.4144 19.9375 9.85552 19.9375 9.24435 20.1394C8.27218 20.4606 7.22518 21.4217 6.82214 22.3629C6.56876 22.9546 6.52814 23.4285 6.44689 24.3763C6.27932 26.3312 6.14209 28.9739 6.14209 32.3862C6.14209 35.6553 6.26805 38.1996 6.42597 40.105C6.51816 41.2173 6.56426 41.7735 6.8871 42.4422C7.27893 43.2538 8.21247 44.1132 9.05365 44.4366C9.74672 44.7031 10.3947 44.7031 11.6908 44.7031C12.7892 44.7031 13.3385 44.7031 13.9076 44.53C15.0045 44.1964 16.093 43.1722 16.4927 42.0976C16.7001 41.5401 16.7296 41.0545 16.7888 40.0834C16.9052 38.1732 16.9982 35.6314 16.9982 32.3862Z" fill="white" stroke="#0871F3" stroke-width="3" stroke-linecap="round" stroke-linejoin="round"/>
<path d="M25.8452 37.6094C27.4975 37.8827 31.2239 38.4158 32.9111 38.3614" stroke="#2589F4" stroke-width="3" stroke-linecap="round" stroke-linejoin="round"/>
</svg>
