<svg width="53" height="52" viewBox="0 0 53 52" fill="none" xmlns="http://www.w3.org/2000/svg">
<path d="M30.3484 12.5078C33.0163 11.2088 34.8378 7.96523 34.8378 5.98112C34.8378 3.14084 31.105 3.12829 26.5004 3.12829C21.8958 3.12829 18.1631 3.14084 18.1631 5.98112C18.1631 7.96523 19.9846 11.2088 22.6524 12.5078" stroke="#2589F4" stroke-width="3" stroke-linecap="round"/>
<path d="M47.4431 34.2898C47.4431 43.7068 42.9239 46.3722 26.5418 46.3722C10.1598 46.3722 5.64062 43.7068 5.64062 34.2898C5.64062 23.9656 12.4194 12.2656 26.5418 12.2656C40.6643 12.2656 47.4431 23.9656 47.4431 34.2898Z" fill="white" stroke="#0871F3" stroke-width="3"/>
<path d="M16.3252 24.0625L21.021 37.2864C21.3474 38.2054 22.6616 38.1615 22.9259 37.2229L26.6323 24.0625L30.2906 37.1466C30.5551 38.0927 31.8824 38.1302 32.1999 37.2007L36.6091 24.2937" stroke="#2589F4" stroke-width="3.2" stroke-linecap="round" stroke-linejoin="round"/>
<path d="M15.6562 29.5781H37.3442" stroke="#2589F4" stroke-width="3.2" stroke-linecap="round" stroke-linejoin="round"/>
</svg>
