<svg width="53" height="52" viewBox="0 0 53 52" fill="none" xmlns="http://www.w3.org/2000/svg">
<g clip-path="url(#clip0_4756_106378)">
<path d="M5.17106 25.7516C5.1703 18.2085 5.16991 14.4369 7.51311 12.0934C9.8563 9.75 13.6279 9.75 21.1711 9.75H31.5808C39.1233 9.75 42.8945 9.75 45.2376 12.0931C47.5808 14.4363 47.5808 18.2075 47.5808 25.75V27.5585C47.5808 34.1582 47.5808 37.458 45.5305 39.5083C43.4803 41.5585 40.1804 41.5585 33.5808 41.5585H19.1713C12.5722 41.5585 9.27268 41.5585 7.22247 39.5085C5.17226 37.4585 5.17192 34.159 5.17125 27.5599L5.17106 25.7516Z" fill="white"/>
<rect x="5.24756" y="14.8203" width="41.412" height="7" fill="#3996F9"/>
<path d="M4.17106 25.1579C4.1703 17.6147 4.16991 13.8431 6.51311 11.4997C8.8563 9.15625 12.6279 9.15625 20.1711 9.15625H30.8335C38.376 9.15625 42.1472 9.15625 44.4903 11.4994C46.8335 13.8425 46.8335 17.6138 46.8335 25.1563V27.1543C46.8335 33.754 46.8335 37.0538 44.7832 39.104C42.733 41.1543 39.4332 41.1543 32.8335 41.1543H18.1713C11.5722 41.1543 8.2727 41.1543 6.22249 39.1043C4.17228 37.0543 4.17194 33.7548 4.17127 27.1557L4.17106 25.1579Z" stroke="#0871F3" stroke-width="3" stroke-linejoin="round"/>
<circle cx="40.8359" cy="35.6641" r="12" fill="#0871F3"/>
<path fill-rule="evenodd" clip-rule="evenodd" d="M45.9893 30.8291C46.4013 31.2686 46.379 31.9589 45.9395 32.3709L37.2133 40.5518C36.7738 40.9638 36.0835 40.9415 35.6715 40.502C35.2595 40.0625 35.2817 39.3723 35.7212 38.9602L44.4475 30.7794C44.8869 30.3674 45.5772 30.3896 45.9893 30.8291Z" fill="white"/>
<path d="M46.6968 39.5078C46.6968 40.4743 45.9133 41.2578 44.9468 41.2578C43.9803 41.2578 43.1968 40.4743 43.1968 39.5078C43.1968 38.5413 43.9803 37.7578 44.9468 37.7578C45.9133 37.7578 46.6968 38.5413 46.6968 39.5078Z" fill="white"/>
<path d="M38.4702 31.8281C38.4702 32.7946 37.6867 33.5781 36.7202 33.5781C35.7537 33.5781 34.9702 32.7946 34.9702 31.8281C34.9702 30.8616 35.7537 30.0781 36.7202 30.0781C37.6867 30.0781 38.4702 30.8616 38.4702 31.8281Z" fill="white"/>
</g>
<defs>
<clipPath id="clip0_4756_106378">
<rect width="52" height="52" fill="white" transform="translate(0.833496)"/>
</clipPath>
</defs>
</svg>
