<svg width="53" height="52" viewBox="0 0 53 52" fill="none" xmlns="http://www.w3.org/2000/svg">
<path d="M10.8557 10.8359L8.79955 11.5206C6.65455 12.2356 5.58205 12.5931 4.96888 13.4446C4.35571 14.2961 4.35571 15.4293 4.35571 17.6869V17.8451C4.35571 19.7084 4.35571 20.6423 4.80421 21.4049C5.25271 22.1676 6.06955 22.6204 7.69888 23.5283L14.1057 27.0859" stroke="#2589F4" stroke-width="3"/>
<path d="M41.7307 10.8359L43.7869 11.5206C45.9319 12.2356 47.0044 12.5931 47.6175 13.4446C48.2307 14.2961 48.2307 15.4293 48.2307 17.6869V17.8451C48.2307 19.7084 48.2307 20.6423 47.7822 21.4049C47.3337 22.1676 46.5169 22.6204 44.8875 23.5283L38.4807 27.0859" stroke="#2589F4" stroke-width="3"/>
<path d="M26.564 34.6719V41.1719" stroke="#2589F4" stroke-width="3" stroke-linecap="round"/>
<path d="M26.5613 34.6698C13.3148 34.6698 10.9691 22.2331 10.5551 12.3661C10.4378 9.62309 10.3803 8.24943 11.475 6.98193C12.5674 5.71226 13.8759 5.50426 16.4953 5.08826C19.8227 4.57475 23.1896 4.32327 26.5613 4.33643C30.664 4.33643 34.0423 4.67659 36.6272 5.08826C39.2466 5.50426 40.5551 5.71226 41.6498 6.98193C42.7445 8.25159 42.6847 9.62309 42.5697 12.3661C42.1558 22.2331 39.81 34.6698 26.5636 34.6698H26.5613Z" fill="white" stroke="#0871F3" stroke-width="3"/>
<path d="M34.1474 47.6667H18.9807L19.7174 43.992C19.8155 43.501 20.0807 43.0592 20.4678 42.7416C20.8549 42.424 21.34 42.2503 21.8407 42.25H31.2874C31.7881 42.2503 32.2732 42.424 32.6603 42.7416C33.0474 43.0592 33.3126 43.501 33.4107 43.992L34.1474 47.6667Z" stroke="#2589F4" stroke-width="3" stroke-linecap="round" stroke-linejoin="round"/>
<path d="M24.7138 13.0524C25.5371 11.5726 25.9488 10.8359 26.5641 10.8359C27.1794 10.8359 27.5911 11.5726 28.4144 13.0524L28.6267 13.4338C28.8607 13.8541 28.9777 14.0621 29.1597 14.2008C29.3439 14.3394 29.5714 14.3914 30.0264 14.4933L30.4381 14.5886C32.0371 14.9504 32.8366 15.1303 33.0272 15.7413C33.2179 16.3523 32.6719 16.9914 31.5821 18.2654L31.3004 18.5948C30.9906 18.9566 30.8346 19.1364 30.7653 19.3618C30.6959 19.5871 30.7198 19.8276 30.7653 20.3108L30.8086 20.7506C30.9732 22.4514 31.0556 23.3029 30.5594 23.6799C30.0611 24.0569 29.3114 23.7124 27.8142 23.0234L27.4286 22.8458C27.0018 22.6508 26.7894 22.5533 26.5641 22.5533C26.3388 22.5533 26.1264 22.6508 25.6996 22.8458L25.3139 23.0234C23.8168 23.7146 23.0671 24.0569 22.5688 23.6799C22.0704 23.3029 22.1549 22.4514 22.3196 20.7506L22.3629 20.3108C22.4084 19.8276 22.4323 19.5871 22.3629 19.3618C22.2936 19.1364 22.1376 18.9566 21.8278 18.5948L21.5461 18.2654C20.4563 16.9914 19.9103 16.3544 20.1009 15.7413C20.2916 15.1303 21.0911 14.9504 22.6901 14.5886L23.1018 14.4933C23.5568 14.3914 23.7843 14.3416 23.9684 14.2008C24.1504 14.0621 24.2674 13.8541 24.5014 13.4338L24.7138 13.0524Z" stroke="#0871F3" stroke-width="3"/>
<path d="M39.564 47.6719H13.564" stroke="#0871F3" stroke-width="3" stroke-linecap="round"/>
</svg>
