<svg width="120" height="74" viewBox="0 0 120 74" fill="none" xmlns="http://www.w3.org/2000/svg">
<path d="M0 8C0 3.58172 3.58172 0 8 0H112C116.418 0 120 3.58172 120 8V66C120 70.4183 116.418 74 112 74H8C3.58172 74 0 70.4183 0 66V8Z" fill="#F8F9FA"/>
<path d="M0.5 8C0.5 3.85786 3.85786 0.5 8 0.5H112C116.142 0.5 119.5 3.85786 119.5 8V66C119.5 70.1421 116.142 73.5 112 73.5H8C3.85786 73.5 0.5 70.1421 0.5 66V8Z" stroke="#0C0C0D" stroke-opacity="0.08"/>
<path d="M49 29.75C49 28.7554 49.3951 27.8016 50.0983 27.0983C50.8016 26.3951 51.7554 26 52.75 26H67.25C68.2446 26 69.1984 26.3951 69.9017 27.0983C70.6049 27.8016 71 28.7554 71 29.75V44.25C71 45.2446 70.6049 46.1984 69.9017 46.9017C69.1984 47.6049 68.2446 48 67.25 48H52.75C51.7554 48 50.8016 47.6049 50.0983 46.9017C49.3951 46.1984 49 45.2446 49 44.25V29.75ZM52.75 27.5C52.1533 27.5 51.581 27.7371 51.159 28.159C50.7371 28.581 50.5 29.1533 50.5 29.75V44.25C50.5 44.611 50.585 44.952 50.736 45.255L58.602 37.567C58.9757 37.2017 59.4775 36.9972 60 36.9972C60.5225 36.9972 61.0243 37.2017 61.398 37.567L69.264 45.255C69.4191 44.9427 69.4999 44.5987 69.5 44.25V29.75C69.5 29.1533 69.2629 28.581 68.841 28.159C68.419 27.7371 67.8467 27.5 67.25 27.5H52.75ZM68.185 46.297L60.349 38.64C60.2556 38.5487 60.1301 38.4976 59.9995 38.4976C59.8689 38.4976 59.7434 38.5487 59.65 38.64L51.815 46.297C52.1 46.427 52.416 46.5 52.75 46.5H67.25C67.583 46.5 67.901 46.427 68.185 46.297ZM64.5 34C64.2348 34 63.9804 33.8946 63.7929 33.7071C63.6054 33.5196 63.5 33.2652 63.5 33C63.5 32.7348 63.6054 32.4804 63.7929 32.2929C63.9804 32.1054 64.2348 32 64.5 32C64.7652 32 65.0196 32.1054 65.2071 32.2929C65.3946 32.4804 65.5 32.7348 65.5 33C65.5 33.2652 65.3946 33.5196 65.2071 33.7071C65.0196 33.8946 64.7652 34 64.5 34ZM64.5 35.5C65.163 35.5 65.7989 35.2366 66.2678 34.7678C66.7366 34.2989 67 33.663 67 33C67 32.337 66.7366 31.7011 66.2678 31.2322C65.7989 30.7634 65.163 30.5 64.5 30.5C63.837 30.5 63.2011 30.7634 62.7322 31.2322C62.2634 31.7011 62 32.337 62 33C62 33.663 62.2634 34.2989 62.7322 34.7678C63.2011 35.2366 63.837 35.5 64.5 35.5Z" fill="#CFD4D9"/>
</svg>
