<svg width="200" height="110" viewBox="0 0 200 110" fill="none" xmlns="http://www.w3.org/2000/svg">
<path d="M0 8C0 3.58172 3.58172 0 8 0H192C196.418 0 200 3.58172 200 8V102C200 106.418 196.418 110 192 110H8C3.58173 110 0 106.418 0 102V8Z" fill="#F8F9FA"/>
<path d="M38.6665 60.6667C38.6665 52.4962 38.6665 48.4099 41.2058 45.8727C43.7452 43.3355 47.8293 43.3334 55.9998 43.3334C64.1703 43.3334 68.2567 43.3334 70.7938 45.8727C73.331 48.412 73.3332 52.4962 73.3332 60.6667V69.3334C73.3332 77.5039 73.3332 81.5902 70.7938 84.1274C68.2545 86.6645 64.1703 86.6667 55.9998 86.6667C47.8293 86.6667 43.743 86.6667 41.2058 84.1274C38.6687 81.588 38.6665 77.5039 38.6665 69.3334V60.6667Z" stroke="#0C0C0D" stroke-opacity="0.88" stroke-width="2.92188"/>
<path d="M62.5 49.4709H49.5" stroke="#0C0C0D" stroke-opacity="0.88" stroke-width="2.92188" stroke-linecap="round"/>
<ellipse cx="56.3755" cy="78.416" rx="2.52097" ry="2.80408" stroke="#0C0C0D" stroke-opacity="0.88" stroke-width="2.53229"/>
<path d="M139.667 83.3334C131.496 83.3334 127.41 83.3334 124.873 80.794C122.336 78.2547 122.333 74.1705 122.333 66C122.333 57.8295 122.333 53.7432 124.873 51.206C127.412 48.6689 131.496 48.6667 139.667 48.6667H148.333C156.504 48.6667 160.59 48.6667 163.127 51.206C165.665 53.7454 165.667 57.8295 165.667 66C165.667 74.1705 165.667 78.2569 163.127 80.794C160.588 83.3312 156.504 83.3334 148.333 83.3334H139.667Z" stroke="#A4A9AE" stroke-width="2.92188"/>
<path d="M128.471 59.4999V72.4999" stroke="#A4A9AE" stroke-width="2.92188" stroke-linecap="round"/>
<ellipse cx="157.416" cy="65.6245" rx="2.52097" ry="2.80408" transform="rotate(-90 157.416 65.6245)" stroke="#A4A9AE" stroke-width="2.53229"/>
<path d="M149 20.9L139 31.9M139 20.9L149 31.9" stroke="#EE444A" stroke-width="3.6" stroke-linecap="round"/>
<path d="M50.3545 27.5L54.3545 31.9L64.3545 20.9" stroke="#00AD7C" stroke-width="3.6" stroke-linecap="round" stroke-linejoin="round"/>
</svg>
