<svg width="82" height="68" viewBox="0 0 82 68" fill="none" xmlns="http://www.w3.org/2000/svg">
<g id="Group 3000">
<path id="Vector" d="M71.3333 29.9974C71.3333 17.1131 71.3299 10.6727 67.329 6.6684C63.3281 2.66406 56.8842 2.66406 44 2.66406H30.3333C17.4491 2.66406 11.0087 2.66748 7.00433 6.6684C3 10.6693 3 17.1131 3 29.9974C3 42.8816 3.00342 49.3221 7.00433 53.3264C11.0052 57.3307 17.4491 57.3307 30.3333 57.3307H44" stroke="#3F72FD" stroke-width="4.5" stroke-linecap="round"/>
<path id="Vector 57" d="M45.25 17.9375L59.625 17.9375" stroke="#3F72FD" stroke-width="5" stroke-linecap="round"/>
<path id="Vector 58" d="M51.5938 28L59.6256 28" stroke="#3F72FD" stroke-width="5" stroke-linecap="round"/>
<path id="Vector_2" d="M27.4036 26.2135C30.5347 26.2135 33.0729 23.6753 33.0729 20.5443C33.0729 17.4132 30.5347 14.875 27.4036 14.875C24.2726 14.875 21.7344 17.4132 21.7344 20.5443C21.7344 23.6753 24.2726 26.2135 27.4036 26.2135Z" fill="white" stroke="#3F72FD" stroke-width="4.5"/>
<path id="Vector_3" d="M39.0026 38.6146C39.0026 42.1094 39.0026 44.9401 27.4036 44.9401C15.8047 44.9401 15.8047 42.1094 15.8047 38.6146C15.8047 35.1197 20.9952 32.2891 27.4036 32.2891C33.8121 32.2891 39.0026 35.1197 39.0026 38.6146Z" fill="white" stroke="#3F72FD" stroke-width="4.5"/>
<g id="Group 3001">
<circle id="Ellipse 509" cx="65.4766" cy="51.4922" r="13.8828" fill="white" stroke="#3F72FD" stroke-width="4.5"/>
<g id="Group 2911">
<path id="Line 94" d="M65.4745 46.5205L65.4745 56.4711" stroke="#3F72FD" stroke-width="4.5" stroke-linecap="round"/>
<path id="Line 95" d="M60.4999 51.5173H70.4505" stroke="#3F72FD" stroke-width="4.5" stroke-linecap="round"/>
</g>
</g>
</g>
</svg>
