<svg width="82" height="72" viewBox="0 0 82 72" fill="none" xmlns="http://www.w3.org/2000/svg">
<g id="Group 3000">
<path id="Vector" d="M70.8333 29.9974C70.8333 17.1131 70.8299 10.6727 66.829 6.6684C62.8281 2.66406 56.3842 2.66406 43.5 2.66406H29.8333C16.9491 2.66406 10.5087 2.66748 6.50433 6.6684C2.5 10.6693 2.5 17.1131 2.5 29.9974C2.5 42.8816 2.50342 49.3221 6.50433 53.3264C10.5052 57.3307 16.9491 57.3307 29.8333 57.3307H43.5" stroke="#CFD4D9" stroke-width="4.5" stroke-linecap="round"/>
<path id="Vector 57" d="M43.875 17.9375H59.125" stroke="#CFD4D9" stroke-width="5" stroke-linecap="round"/>
<path id="Vector 58" d="M52.351 28L59.125 28" stroke="#CFD4D9" stroke-width="5" stroke-linecap="round"/>
<path id="Vector_2" d="M26.9036 26.2135C30.0347 26.2135 32.5729 23.6753 32.5729 20.5443C32.5729 17.4132 30.0347 14.875 26.9036 14.875C23.7726 14.875 21.2344 17.4132 21.2344 20.5443C21.2344 23.6753 23.7726 26.2135 26.9036 26.2135Z" fill="white" stroke="#CFD4D9" stroke-width="4.5"/>
<path id="Vector_3" d="M38.5026 38.6146C38.5026 42.1094 38.5026 44.9401 26.9036 44.9401C15.3047 44.9401 15.3047 42.1094 15.3047 38.6146C15.3047 35.1197 20.4952 32.2891 26.9036 32.2891C33.3121 32.2891 38.5026 35.1197 38.5026 38.6146Z" fill="white" stroke="#CFD4D9" stroke-width="4.5"/>
<g id="Group 3001">
<circle id="Ellipse 509" cx="64.9765" cy="51.4922" r="13.8828" transform="rotate(-45 64.9765 51.4922)" fill="white" stroke="#CFD4D9" stroke-width="4.5"/>
<g id="Group 2911">
<path id="Line 94" d="M61.4596 47.978L68.4957 55.0141" stroke="#CFD4D9" stroke-width="4.5" stroke-linecap="round"/>
<path id="Line 95" d="M61.4753 55.0289L68.5114 47.9928" stroke="#CFD4D9" stroke-width="4.5" stroke-linecap="round"/>
</g>
</g>
</g>
</svg>
