<svg width="40" height="40" viewBox="0 0 40 40" fill="none" xmlns="http://www.w3.org/2000/svg">
<path d="M22.5736 34.2425L21.7156 35.6926C20.951 36.9844 19.0402 36.9844 18.274 35.6926L17.416 34.2425C16.7511 33.1185 16.4186 32.555 15.8836 32.2447C15.3485 31.9328 14.6757 31.9217 13.3301 31.898C11.3417 31.8647 10.0958 31.7428 9.05101 31.3091C8.09066 30.9113 7.21807 30.3283 6.48306 29.5932C5.74804 28.8582 5.165 27.9856 4.76721 27.0253C4.16406 25.572 4.16406 23.7278 4.16406 20.0392V18.4561C4.16406 13.2747 4.16406 10.6832 5.33079 8.78038C5.98308 7.71528 6.87816 6.81966 7.94286 6.16672C9.84729 5 12.4404 5 17.6202 5H22.3694C27.5508 5 30.1423 5 32.0467 6.16672C33.1112 6.81921 34.0063 7.71428 34.6588 8.7788C35.8255 10.6832 35.8255 13.2763 35.8255 18.4561V20.0392C35.8255 23.7278 35.8255 25.572 35.224 27.0253C34.826 27.9858 34.2427 28.8585 33.5074 29.5935C32.7721 30.3285 31.8992 30.9115 30.9386 31.3091C29.8937 31.7428 28.6479 31.8632 26.6595 31.898C25.3139 31.9217 24.6411 31.9328 24.106 32.2447C23.571 32.555 23.2385 33.117 22.5736 34.2425Z" stroke="#0871F3" stroke-width="2.5"/>
<path d="M20.0022 25.5904V12.9258M13.6699 22.4242V16.0919M26.3345 22.4242V16.0919" stroke="#0871F3" stroke-width="2.8" stroke-linecap="round" stroke-linejoin="round"/>
</svg>
