<svg width="41" height="40" viewBox="0 0 41 40" fill="none" xmlns="http://www.w3.org/2000/svg">
<path d="M15.4646 20.0151C17.1946 20.0151 18.5971 18.6126 18.5971 16.8825C18.5971 15.1525 17.1946 13.75 15.4646 13.75C13.7345 13.75 12.332 15.1525 12.332 16.8825C12.332 18.6126 13.7345 20.0151 15.4646 20.0151Z" stroke="#0871F3" stroke-width="2.3"/>
<path d="M21.7372 23.6794C21.7372 25.4101 21.7372 26.8119 15.4721 26.8119C9.20703 26.8119 9.20703 25.4101 9.20703 23.6794C9.20703 21.9487 12.0106 20.5469 15.4721 20.5469C18.9335 20.5469 21.7372 21.9487 21.7372 23.6794Z" stroke="#0871F3" stroke-width="2.3"/>
<path d="M3.71484 20C3.71484 13.6696 3.71484 10.5035 5.68229 8.53776C7.64974 6.57199 10.8141 6.57031 17.1445 6.57031H23.8594C30.1898 6.57031 33.3558 6.57031 35.3216 8.53776C37.2874 10.5052 37.2891 13.6696 37.2891 20C37.2891 26.3304 37.2891 29.4965 35.3216 31.4622C33.3542 33.428 30.1898 33.4297 23.8594 33.4297H17.1445C10.8141 33.4297 7.64806 33.4297 5.68229 31.4622C3.71652 29.4948 3.71484 26.3304 3.71484 20Z" stroke="#0871F3" stroke-width="2.5"/>
<path d="M31.7473 15.5H24.3633" stroke="#0871F3" stroke-width="2.5" stroke-linecap="round"/>
<path d="M31.7471 20.2969H25.8398" stroke="#0871F3" stroke-width="2.5" stroke-linecap="round"/>
<path d="M31.7468 25.0938H27.3164" stroke="#0871F3" stroke-width="2.5" stroke-linecap="round"/>
</svg>
