<svg width="41" height="40" viewBox="0 0 41 40" fill="none" xmlns="http://www.w3.org/2000/svg">
<path fill-rule="evenodd" clip-rule="evenodd" d="M5 14.5C5 13.8096 5.55964 13.25 6.25 13.25H34.75C35.4404 13.25 36 13.8096 36 14.5C36 15.1904 35.4404 15.75 34.75 15.75H6.25C5.55964 15.75 5 15.1904 5 14.5Z" fill="#0871F3"/>
<path fill-rule="evenodd" clip-rule="evenodd" d="M29.9169 8.4586C28.3857 8.25266 26.3636 8.25 23.5 8.25H17.5C14.6366 8.25 12.6148 8.25303 11.0838 8.45914C9.58883 8.66041 8.74978 9.03451 8.14151 9.64226C7.53378 10.2495 7.1597 11.0879 6.9586 12.5831C6.75266 14.1143 6.75 16.1364 6.75 19V22C6.75 24.8634 6.75303 26.8852 6.95914 28.4162C7.16041 29.9112 7.53451 30.7502 8.14226 31.3585C8.74948 31.9662 9.58788 32.3403 11.0831 32.5414C12.6143 32.7473 14.6364 32.75 17.5 32.75H23.5C26.3634 32.75 28.3852 32.747 29.9162 32.5409C31.4112 32.3396 32.2502 31.9655 32.8585 31.3577C33.4662 30.7505 33.8403 29.9121 34.0414 28.4169C34.2473 26.8857 34.25 24.8636 34.25 22V19C34.25 16.1366 34.247 14.1148 34.0409 12.5838C33.8396 11.0888 33.4655 10.2498 32.8577 9.64151C32.2505 9.03378 31.4121 8.6597 29.9169 8.4586ZM30.2501 5.98091C32.0226 6.2193 33.477 6.72423 34.6263 7.8745C35.775 9.02422 36.2799 10.4779 36.5185 12.2503C36.75 13.9701 36.75 16.1644 36.75 18.9199V22.0932C36.75 24.8424 36.7501 27.0329 36.5191 28.7501C36.2807 30.5226 35.7758 31.977 34.6255 33.1263C33.4758 34.275 32.0221 34.7799 30.2497 35.0185C28.5299 35.25 26.3356 35.25 23.5801 35.25H17.4068C14.6576 35.25 12.4671 35.2501 10.7499 35.0191C8.97738 34.7807 7.52303 34.2758 6.37374 33.1255C5.225 31.9758 4.7201 30.5221 4.48149 28.7497C4.24996 27.0299 4.24998 24.8356 4.25 22.0801L4.25 18.9068C4.24997 16.1577 4.24995 13.9671 4.48091 12.2499C4.7193 10.4774 5.22423 9.02303 6.3745 7.87374C7.52422 6.725 8.97792 6.2201 10.7503 5.98149C12.4701 5.74996 14.6644 5.74998 17.4199 5.75L23.5932 5.75C26.3423 5.74997 28.5329 5.74995 30.2501 5.98091Z" fill="#0871F3"/>
<path d="M13 3C13.6904 3 14.25 3.55964 14.25 4.25V6.5C14.25 7.19036 13.6904 7.75 13 7.75C12.3096 7.75 11.75 7.19036 11.75 6.5V4.25C11.75 3.55964 12.3096 3 13 3Z" fill="#0871F3"/>
<path d="M28 3C28.6904 3 29.25 3.55964 29.25 4.25V6.5C29.25 7.19036 28.6904 7.75 28 7.75C27.3096 7.75 26.75 7.19036 26.75 6.5V4.25C26.75 3.55964 27.3096 3 28 3Z" fill="#0871F3"/>
<circle cx="13.5" cy="20.75" r="1.75" fill="#0871F3"/>
<circle cx="13.5" cy="26.75" r="1.75" fill="#0871F3"/>
<circle cx="20.5" cy="20.75" r="1.75" fill="#0871F3"/>
<circle cx="20.5" cy="26.75" r="1.75" fill="#0871F3"/>
<circle cx="27.5" cy="20.75" r="1.75" fill="#0871F3"/>
<circle cx="27.5" cy="26.75" r="1.75" fill="#0871F3"/>
</svg>
