<svg width="41" height="40" viewBox="0 0 41 40" fill="none" xmlns="http://www.w3.org/2000/svg">
<path d="M22 31.125H17.1484C10.818 31.125 7.65197 31.125 5.6862 29.3166C3.72043 27.5083 3.71875 24.5998 3.71875 18.7812C3.71875 12.9627 3.71875 10.0527 5.6862 8.24586C7.65365 6.43904 10.818 6.4375 17.1484 6.4375H23.8633C30.1937 6.4375 33.3597 6.4375 35.3255 8.24586C37.2913 10.0542 37.293 12.9627 37.293 18.7812C37.293 21.1806 37.293 24.25 36.9062 25.4062" stroke="#0871F3" stroke-width="2.5"/>
<path d="M15.4685 18.5151C17.1985 18.5151 18.601 17.1126 18.601 15.3825C18.601 13.6525 17.1985 12.25 15.4685 12.25C13.7384 12.25 12.3359 13.6525 12.3359 15.3825C12.3359 17.1126 13.7384 18.5151 15.4685 18.5151Z" stroke="#0871F3" stroke-width="2.3"/>
<path d="M21.7411 22.1794C21.7411 23.9101 21.7411 25.3119 15.476 25.3119C9.21094 25.3119 9.21094 23.9101 9.21094 22.1794C9.21094 20.4487 12.0146 19.0469 15.476 19.0469C18.9374 19.0469 21.7411 20.4487 21.7411 22.1794Z" stroke="#0871F3" stroke-width="2.3"/>
<path d="M31.7512 14H24.3672" stroke="#0871F3" stroke-width="2.5" stroke-linecap="round"/>
<path d="M31.751 18.7969H25.8438" stroke="#0871F3" stroke-width="2.5" stroke-linecap="round"/>
<path d="M29.757 24.1566V25.2941C28.3853 25.4576 26.4218 25.9552 24.5371 27.3981C22.5104 28.9495 21.795 31.0243 21.5642 32.5334C21.4381 33.3576 21.9036 34.0156 22.4808 34.309C23.0326 34.5896 23.755 34.5858 24.34 34.1665C25.5657 33.2881 27.5924 32.2097 29.757 32.0318V32.7431C29.757 34.2644 31.5643 35.0612 32.6874 34.035L37.6732 29.4794C38.4639 28.757 38.4259 27.5 37.593 26.8266L32.6072 22.7957C31.4628 21.8705 29.757 22.685 29.757 24.1566Z" stroke="#0871F3" stroke-width="2.5" stroke-linejoin="round"/>
</svg>
