<svg width="48" height="49" viewBox="0 0 48 49" fill="none" xmlns="http://www.w3.org/2000/svg">
<g id="solar:gallery-add-bold" filter="url(#filter0_dd_465_10929)">
<path id="Vector" d="M44 25.396C43.996 28.336 43.974 30.832 43.808 32.882C43.614 35.262 43.216 37.25 42.328 38.9C41.94 39.6231 41.4481 40.2855 40.868 40.866C39.202 42.532 37.082 43.286 34.394 43.646C31.768 44 28.4 44 24.106 44H23.894C19.598 44 16.234 44 13.606 43.646C10.92 43.286 8.79801 42.532 7.13401 40.866C5.65801 39.39 4.89401 37.554 4.49001 35.276C4.09001 33.036 4.01801 30.252 4.00401 26.794C4.00001 25.914 3.99868 24.9827 4.00001 24V23.892C4.00001 19.596 4.00001 16.232 4.35401 13.604C4.71401 10.918 5.46801 8.79599 7.13401 7.13199C8.80001 5.46799 10.92 4.71199 13.606 4.35199C15.942 4.03799 18.946 4.00199 22.604 3.99799C22.9743 3.99799 23.3293 4.14506 23.5911 4.40686C23.8529 4.66867 24 5.02374 24 5.39399C24 5.76423 23.8529 6.11931 23.5911 6.38111C23.3293 6.64291 22.9743 6.78999 22.604 6.78999C18.894 6.79399 16.136 6.82599 13.978 7.11599C11.6 7.43599 10.166 8.04399 9.10601 9.10399C8.04601 10.164 7.44001 11.6 7.12001 13.98C6.79401 16.4 6.79001 19.576 6.79001 24V25.568L8.65401 23.94C9.47107 23.2251 10.5293 22.8474 11.6143 22.8835C12.6994 22.9195 13.7302 23.3665 14.498 24.134L22.478 32.114C23.0971 32.7335 23.915 33.1147 24.7876 33.1904C25.6601 33.2661 26.5314 33.0315 27.248 32.528L27.804 32.138C28.8376 31.4115 30.0871 31.0573 31.3481 31.1332C32.6091 31.2092 33.8071 31.7108 34.746 32.556L40.012 37.296C40.542 36.182 40.858 34.72 41.026 32.656C41.184 30.712 41.206 28.352 41.208 25.396C41.208 25.0257 41.3551 24.6707 41.6169 24.4089C41.8787 24.1471 42.2338 24 42.604 24C42.9743 24 43.3293 24.1471 43.5911 24.4089C43.8529 24.6707 44 25.0257 44 25.396Z" fill="white"/>
<path id="Vector_2" fill-rule="evenodd" clip-rule="evenodd" d="M35 22C30.758 22 28.636 22 27.318 20.682C26 19.364 26 17.242 26 13C26 8.758 26 6.636 27.318 5.318C28.636 4 30.758 4 35 4C39.242 4 41.364 4 42.682 5.318C44 6.636 44 8.758 44 13C44 17.242 44 19.364 42.682 20.682C41.364 22 39.242 22 35 22ZM36.5 9C36.5 8.60218 36.342 8.22064 36.0607 7.93934C35.7794 7.65804 35.3978 7.5 35 7.5C34.6022 7.5 34.2206 7.65804 33.9393 7.93934C33.658 8.22064 33.5 8.60218 33.5 9V11.5H31C30.6022 11.5 30.2206 11.658 29.9393 11.9393C29.658 12.2206 29.5 12.6022 29.5 13C29.5 13.3978 29.658 13.7794 29.9393 14.0607C30.2206 14.342 30.6022 14.5 31 14.5H33.5V17C33.5 17.3978 33.658 17.7794 33.9393 18.0607C34.2206 18.342 34.6022 18.5 35 18.5C35.3978 18.5 35.7794 18.342 36.0607 18.0607C36.342 17.7794 36.5 17.3978 36.5 17V14.5H39C39.3978 14.5 39.7794 14.342 40.0607 14.0607C40.342 13.7794 40.5 13.3978 40.5 13C40.5 12.6022 40.342 12.2206 40.0607 11.9393C39.7794 11.658 39.3978 11.5 39 11.5H36.5V9Z" fill="white"/>
</g>
<defs>
<filter id="filter0_dd_465_10929" x="-3" y="-1" width="54" height="54" filterUnits="userSpaceOnUse" color-interpolation-filters="sRGB">
<feFlood flood-opacity="0" result="BackgroundImageFix"/>
<feColorMatrix in="SourceAlpha" type="matrix" values="0 0 0 0 0 0 0 0 0 0 0 0 0 0 0 0 0 0 127 0" result="hardAlpha"/>
<feMorphology radius="1" operator="erode" in="SourceAlpha" result="effect1_dropShadow_465_10929"/>
<feOffset dy="2"/>
<feGaussianBlur stdDeviation="2"/>
<feComposite in2="hardAlpha" operator="out"/>
<feColorMatrix type="matrix" values="0 0 0 0 0.0470588 0 0 0 0 0.0470588 0 0 0 0 0.0509804 0 0 0 0.12 0"/>
<feBlend mode="normal" in2="BackgroundImageFix" result="effect1_dropShadow_465_10929"/>
<feColorMatrix in="SourceAlpha" type="matrix" values="0 0 0 0 0 0 0 0 0 0 0 0 0 0 0 0 0 0 127 0" result="hardAlpha"/>
<feOffset dy="1"/>
<feComposite in2="hardAlpha" operator="out"/>
<feColorMatrix type="matrix" values="0 0 0 0 0.0470588 0 0 0 0 0.0470588 0 0 0 0 0.0509804 0 0 0 0.12 0"/>
<feBlend mode="normal" in2="effect1_dropShadow_465_10929" result="effect2_dropShadow_465_10929"/>
<feBlend mode="normal" in="SourceGraphic" in2="effect2_dropShadow_465_10929" result="shape"/>
</filter>
</defs>
</svg>
