<svg width="54" height="74" viewBox="0 0 54 74" fill="none" xmlns="http://www.w3.org/2000/svg">
<g id="Group">
<path id="Vector" d="M3.08301 2.83301H40.6663C43.3848 2.83301 45.9919 3.91292 47.9142 5.83516C49.8364 7.75741 50.9163 10.3645 50.9163 13.083V60.9163C50.9163 61.8225 50.5564 62.6915 49.9156 63.3323C49.2749 63.973 48.4058 64.333 47.4997 64.333H37.2497" stroke="#CFD4D9" stroke-width="5.5" stroke-linecap="round" stroke-linejoin="round"/>
<path id="Vector_2" d="M26.9997 36.9997V43.833M3.08301 2.83301L29.0087 8.01951C31.332 8.48389 33.4227 9.73879 34.9252 11.5708C36.4276 13.4027 37.249 15.6986 37.2497 18.0679V66.998C37.2494 67.5033 37.137 68.0022 36.9206 68.4589C36.7043 68.9155 36.3893 69.3185 35.9985 69.6387C35.6077 69.959 35.1506 70.1885 34.6604 70.3109C34.1701 70.4333 33.6588 70.4454 33.1633 70.3463L8.57701 65.4332C7.02735 65.1234 5.63296 64.2862 4.63124 63.0639C3.62951 61.8416 3.08238 60.31 3.08301 58.7297V2.83301Z" stroke="#CFD4D9" stroke-width="5.5" stroke-linecap="round" stroke-linejoin="round"/>
</g>
</svg>
