<svg width="24" height="24" viewBox="0 0 24 24" fill="none" xmlns="http://www.w3.org/2000/svg">
<g id="solar:star-broken">
<path id="Vector" d="M6.03999 7.772C3.57999 8.329 2.34999 8.607 2.05699 9.548C1.76499 10.488 2.60299 11.469 4.27999 13.43L4.71399 13.937C5.18999 14.494 5.42899 14.773 5.53599 15.117C5.64299 15.462 5.60699 15.834 5.53499 16.577L5.46899 17.254C5.21599 19.871 5.08899 21.179 5.85499 21.76C6.62099 22.341 7.77299 21.811 10.075 20.751L10.672 20.477C11.326 20.175 11.653 20.025 12 20.025C12.347 20.025 12.674 20.175 13.329 20.477L13.924 20.751C16.227 21.811 17.379 22.341 18.144 21.761C18.911 21.179 18.784 19.871 18.531 17.254M19.72 13.43C21.397 11.47 22.235 10.489 21.943 9.548C21.651 8.607 20.42 8.328 17.96 7.772L17.324 7.628C16.625 7.47 16.276 7.391 15.995 7.178C15.714 6.965 15.535 6.642 15.175 5.996L14.847 5.408C13.58 3.136 12.947 2 12 2C11.053 2 10.42 3.136 9.15299 5.408" stroke="#FEBB10" stroke-width="2" stroke-linecap="round"/>
</g>
</svg>
