<svg width="24" height="24" viewBox="0 0 24 24" fill="none" xmlns="http://www.w3.org/2000/svg">
<g id="General/ico_close_24_bk">
<path id="Vector" d="M5.56061 5.56439C5.68877 5.43624 5.859 5.35884 6.03981 5.34649C6.22063 5.33414 6.3998 5.38768 6.54419 5.49722L6.62127 5.56439L11.7485 10.6902L16.8771 5.56156C17.0116 5.42724 17.1919 5.34894 17.3819 5.34249C17.5718 5.33604 17.757 5.40192 17.9003 5.52681C18.0435 5.65171 18.1339 5.82631 18.1534 6.01534C18.1728 6.20436 18.1198 6.39372 18.005 6.54515L17.9378 6.62222L12.8092 11.7509L17.9371 16.876C18.0712 17.0105 18.1492 17.1909 18.1555 17.3807C18.1618 17.5706 18.0958 17.7557 17.9708 17.8988C17.8459 18.0418 17.6713 18.1322 17.4824 18.1515C17.2934 18.1709 17.1042 18.1179 16.9528 18.0031L16.8757 17.9359L11.7485 12.8115L6.62268 17.9373C6.48827 18.0717 6.30789 18.15 6.11797 18.1564C5.92806 18.1629 5.74278 18.097 5.59957 17.9721C5.45635 17.8472 5.36589 17.6726 5.34645 17.4836C5.32701 17.2945 5.38005 17.1052 5.49485 16.9538L5.56202 16.8767L10.6885 11.7502L5.56061 6.62505C5.41996 6.4844 5.34094 6.29363 5.34094 6.09472C5.34094 5.89581 5.41996 5.70504 5.56061 5.56439Z" fill="#0C0C0D" />
</g>
</svg>
