<svg width="16" height="16" viewBox="0 0 16 16" fill="none" xmlns="http://www.w3.org/2000/svg">
<g id="General/ico_close_16_bk">
<path id="Vector" d="M4.82111 4.11091C4.72734 4.01714 4.60016 3.96447 4.46756 3.96447C4.33495 3.96447 4.20777 4.01714 4.114 4.11091C4.02023 4.20468 3.96756 4.33186 3.96756 4.46447C3.96756 4.59707 4.02023 4.72425 4.114 4.81802L7.29598 8L4.114 11.182C4.02023 11.2757 3.96756 11.4029 3.96756 11.5355C3.96756 11.6681 4.02023 11.7953 4.114 11.8891C4.20777 11.9829 4.33495 12.0355 4.46756 12.0355C4.60016 12.0355 4.72734 11.9829 4.82111 11.8891L8.00309 8.70711L11.1851 11.8891C11.2788 11.9829 11.406 12.0355 11.5386 12.0355C11.6712 12.0355 11.7984 11.9829 11.8922 11.8891C11.9859 11.7953 12.0386 11.6681 12.0386 11.5355C12.0386 11.4029 11.9859 11.2757 11.8922 11.182L8.7102 8L11.8922 4.81802C11.9859 4.72425 12.0386 4.59707 12.0386 4.46447C12.0386 4.33186 11.9859 4.20468 11.8922 4.11091C11.7984 4.01714 11.6712 3.96447 11.5386 3.96447C11.406 3.96447 11.2788 4.01714 11.1851 4.11091L8.00309 7.29289L4.82111 4.11091Z" fill="#A4A9AE"/>
</g>
</svg>
