<svg width="20" height="20" viewBox="0 0 20 20" fill="none" xmlns="http://www.w3.org/2000/svg">
<path d="M3.75013 10C3.75013 8.68823 4.16287 7.40972 4.92987 6.34556C5.69687 5.2814 6.77926 4.48555 8.02371 4.07073C9.26816 3.65591 10.6116 3.64316 11.8637 4.03429C13.1158 4.42542 14.2131 5.20059 15.0001 6.25H12.5001C12.3344 6.25 12.1754 6.31585 12.0582 6.43306C11.941 6.55027 11.8751 6.70924 11.8751 6.875C11.8751 7.04076 11.941 7.19973 12.0582 7.31694C12.1754 7.43415 12.3344 7.5 12.5001 7.5H16.2501C16.4159 7.5 16.5749 7.43415 16.6921 7.31694C16.8093 7.19973 16.8751 7.04076 16.8751 6.875V3.125C16.8751 2.95924 16.8093 2.80027 16.6921 2.68306C16.5749 2.56585 16.4159 2.5 16.2501 2.5C16.0844 2.5 15.9254 2.56585 15.8082 2.68306C15.691 2.80027 15.6251 2.95924 15.6251 3.125V5.03875C14.4832 3.74439 12.9298 2.88351 11.2269 2.60137C9.52407 2.31922 7.776 2.63307 6.27765 3.48998C4.77929 4.34688 3.62237 5.69437 3.00205 7.30513C2.38173 8.91589 2.33599 10.6913 2.87254 12.3319C3.4091 13.9724 4.4951 15.3777 5.94735 16.3106C7.39959 17.2436 9.12917 17.647 10.8443 17.4529C12.5594 17.2588 14.1551 16.4791 15.3622 15.2453C16.5692 14.0114 17.3137 12.399 17.4701 10.68C17.4835 10.5156 17.4314 10.3527 17.3251 10.2266C17.2189 10.1005 17.0671 10.0215 16.9028 10.0068C16.7386 9.99212 16.5752 10.0429 16.4482 10.1482C16.3213 10.2535 16.2411 10.4046 16.2251 10.5688C16.0813 12.1724 15.3241 13.6587 14.1114 14.7179C12.8986 15.777 11.3239 16.3272 9.71547 16.2539C8.10703 16.1806 6.58893 15.4893 5.4776 14.3242C4.36627 13.1591 3.74746 11.6101 3.75013 10Z" fill="white"/>
</svg>
