<svg xmlns="http://www.w3.org/2000/svg" width="32" height="32" viewBox="0 0 32 32" fill="none">
  <path d="M24.4426 20.3403C24.6757 19.8866 25.3243 19.8866 25.5574 20.3403L26.3365 21.8567C26.7353 22.6329 27.3671 23.2647 28.1433 23.6635L29.6597 24.4426C30.1134 24.6757 30.1134 25.3243 29.6597 25.5574L28.1433 26.3365C27.3671 26.7353 26.7353 27.3671 26.3365 28.1433L25.5574 29.6597C25.3243 30.1134 24.6757 30.1134 24.4426 29.6597L23.6635 28.1433C23.2647 27.3671 22.6329 26.7353 21.8567 26.3365L20.3403 25.5574C19.8866 25.3243 19.8866 24.6757 20.3403 24.4426L21.8567 23.6635C22.6329 23.2647 23.2647 22.6329 23.6635 21.8567L24.4426 20.3403Z" fill="#CFD4D9"/>
  <path d="M11.7143 9.77783H20.2857M11.7143 15.5556H17.2857" stroke="#CFD4D9" stroke-width="2.25" stroke-linecap="round"/>
  <path d="M16 30C10.3432 30 7.516 30 5.7568 27.9504C4 25.9008 4 22.5996 4 16C4 9.4004 4 6.102 5.7568 4.0496C7.5148 2 10.3432 2 16 2C21.6568 2 24.4864 2 26.242 4.0496C28 6.1006 28 9.4004 28 16" stroke="#CFD4D9" stroke-width="2.25" stroke-linecap="round"/>
</svg>