<svg width="16" height="16" viewBox="0 0 16 16" fill="none" xmlns="http://www.w3.org/2000/svg">
<path d="M2.66992 14.6641H13.3366" stroke="#A4A9AE" stroke-linecap="round"/>
<path d="M12.2277 5.40524L12.7224 4.9119C12.9172 4.71715 13.0717 4.48594 13.1771 4.23147C13.2826 3.977 13.3369 3.70425 13.3369 3.42881C13.3369 3.15336 13.2827 2.8806 13.1773 2.6261C13.0719 2.37161 12.9175 2.14036 12.7227 1.94557C12.528 1.75078 12.2968 1.59625 12.0423 1.49081C11.7878 1.38537 11.5151 1.33109 11.2396 1.33105C10.9642 1.33102 10.6914 1.38525 10.4369 1.49063C10.1824 1.59601 9.95118 1.75049 9.75639 1.94524L9.26172 2.4399C9.26172 2.4399 9.32372 3.49057 10.2504 4.41724C11.1771 5.3439 12.2277 5.4059 12.2277 5.4059L7.68305 9.95057C7.37505 10.2586 7.22172 10.4119 7.05172 10.5446C6.85127 10.701 6.63594 10.8341 6.40572 10.9439C6.21172 11.0366 6.00505 11.1052 5.59238 11.2426L3.84172 11.8266M9.26172 2.43924L4.71705 6.98457C4.40905 7.29257 4.25505 7.4459 4.12305 7.6159C3.96668 7.81596 3.83277 8.03259 3.72372 8.2619C3.63105 8.4559 3.56238 8.66257 3.42438 9.07524L2.84105 10.8259M2.84105 10.8259L2.69905 11.2532C2.66576 11.3529 2.6609 11.4598 2.685 11.5621C2.7091 11.6643 2.76122 11.7578 2.8355 11.8321C2.90979 11.9064 3.0033 11.9585 3.10555 11.9826C3.2078 12.0067 3.31475 12.0019 3.41438 11.9686L3.84172 11.8266M2.84105 10.8259L3.84172 11.8266" stroke="#A4A9AE"/>
</svg>
