<svg xmlns="http://www.w3.org/2000/svg" width="24" height="24" viewBox="0 0 24 24" fill="none">
  <path d="M10.9967 3.61251C11.4163 2.79583 12.5837 2.79583 13.0033 3.61251L14.4058 6.34206C15.1236 7.73914 16.2609 8.87639 17.6579 9.59421L20.3875 10.9967C21.2042 11.4163 21.2042 12.5837 20.3875 13.0033L17.6579 14.4058C16.2609 15.1236 15.1236 16.2609 14.4058 17.6579L13.0033 20.3875C12.5837 21.2042 11.4163 21.2042 10.9967 20.3875L9.59421 17.6579C8.87639 16.2609 7.73914 15.1236 6.34206 14.4058L3.61251 13.0033C2.79583 12.5837 2.79583 11.4163 3.61251 10.9967L6.34206 9.59421C7.73914 8.87639 8.87639 7.73914 9.59421 6.34206L10.9967 3.61251Z" fill="url(#paint0_linear_15116_75259)"/>
  <circle cx="18.5" cy="18.5" r="1.5" fill="#7283ED"/>
  <defs>
    <linearGradient id="paint0_linear_15116_75259" x1="10.5228" y1="2.306" x2="26.0937" y2="12.6359" gradientUnits="userSpaceOnUse">
      <stop stop-color="#24CFFF"/>
      <stop offset="1" stop-color="#C12FFF"/>
    </linearGradient>
  </defs>
</svg>