<svg xmlns="http://www.w3.org/2000/svg" width="48" height="48" viewBox="0 0 48 48" fill="none">
  <path d="M32 8C36.35 8.024 38.706 8.218 40.242 9.754C42 11.512 42 14.34 42 19.996V31.996C42 37.654 42 40.482 40.242 42.24C38.486 43.996 35.656 43.996 30 43.996H18C12.344 43.996 9.514 43.996 7.758 42.24C6 40.48 6 37.654 6 31.996V19.996C6 14.34 6 11.512 7.758 9.754C9.294 8.218 11.65 8.024 16 8" stroke="#CFD4D9" stroke-width="3.5"/>
  <path d="M16 7C16 6.20435 16.3161 5.44129 16.8787 4.87868C17.4413 4.31607 18.2044 4 19 4H29C29.7956 4 30.5587 4.31607 31.1213 4.87868C31.6839 5.44129 32 6.20435 32 7V9C32 9.79565 31.6839 10.5587 31.1213 11.1213C30.5587 11.6839 29.7956 12 29 12H19C18.2044 12 17.4413 11.6839 16.8787 11.1213C16.3161 10.5587 16 9.79565 16 9V7Z" stroke="#CFD4D9" stroke-width="3.5"/>
  <path d="M21 31L27 25M27 31L21 25" stroke="#CFD4D9" stroke-width="3.94" stroke-linecap="round"/>
</svg>