<svg xmlns="http://www.w3.org/2000/svg" width="24" height="24" viewBox="0 0 24 24" fill="none">
  <path d="M19.5 21V10C19.5 5.85786 16.1421 2.5 12 2.5C7.85786 2.5 4.5 5.85786 4.5 10V21H19.5Z" fill="white"/>
  <path d="M12 13C12.5522 13.0001 13 13.4478 13 14C12.9999 14.5521 12.5521 14.9999 12 15C11.4479 14.9998 11.0001 14.5521 11 14C11 13.4478 11.4479 13.0002 12 13Z" fill="#942DCB"/>
  <path d="M12 6.5C12.5497 6.50012 12.9926 6.96575 12.9658 7.51465L12.71 11.3232C12.6912 11.7019 12.3791 11.9999 12 12C11.6208 12 11.3078 11.7019 11.2891 11.3232L11.0332 7.51465C11.0064 6.96542 11.4501 6.50001 12 6.5Z" fill="#942DCB"/>
  <path fill-rule="evenodd" clip-rule="evenodd" d="M12 2.5C16.1421 2.5 19.5 5.85786 19.5 10V17.209C20.3828 17.5948 21 18.475 21 19.5V20C21 20.5523 20.5523 21 20 21H4C3.44772 21 3 20.5523 3 20V19.5C3 18.475 3.61724 17.5948 4.5 17.209V10C4.5 5.85786 7.85786 2.5 12 2.5ZM12 4.09961C8.74152 4.09961 6.09961 6.74152 6.09961 10V17H17.9004V10C17.9004 6.74152 15.2585 4.09961 12 4.09961Z" fill="#942DCB"/>
</svg>