<svg xmlns="http://www.w3.org/2000/svg" width="24" height="24" viewBox="0 0 24 24" fill="none">
  <rect x="3.96094" y="2.75" width="15" height="18" rx="4" fill="white"/>
  <rect x="4.76094" y="3.55" width="13.4" height="16.4" rx="3.2" stroke="#23B138" stroke-width="1.6"/>
  <path fill-rule="evenodd" clip-rule="evenodd" d="M16.4892 11C17.0043 11 17.45 11.3589 17.56 11.8621L17.6911 12.4598C17.7194 12.5891 17.8049 12.6981 17.9196 12.7643C18.0343 12.8305 18.1711 12.8499 18.2974 12.8097L18.8823 12.6241C19.3729 12.4683 19.906 12.6748 20.1633 13.1206L20.7193 14.0844C20.9767 14.5305 20.8887 15.0957 20.5079 15.4425L20.0568 15.8535C19.9584 15.9431 19.907 16.0724 19.907 16.2056C19.907 16.338 19.9579 16.4663 20.0558 16.5555L20.509 16.9686C20.8895 17.3155 20.9773 17.8808 20.7198 18.3267L20.1633 19.2899C19.9058 19.736 19.3725 19.9428 18.8817 19.7865L18.2979 19.6003C18.1713 19.56 18.0341 19.5799 17.9191 19.6463C17.8041 19.7127 17.7183 19.8217 17.69 19.9513L17.5595 20.5485C17.4497 21.052 17.004 21.4111 16.4887 21.4111H15.3762C14.8613 21.4111 14.4156 21.0525 14.3055 20.5496L14.1738 19.9487C14.1456 19.82 14.0603 19.7119 13.9464 19.6458C13.8318 19.5794 13.6948 19.5595 13.5686 19.5998L12.9853 19.786C12.4944 19.9426 11.9602 19.7357 11.7027 19.2894L11.1467 18.3262C10.8894 17.8804 10.9773 17.3155 11.3575 16.9686L11.8113 16.555C11.9089 16.4659 11.9606 16.3377 11.9606 16.2056C11.9606 16.0731 11.9087 15.9443 11.8108 15.8551L11.3581 15.4425C10.9776 15.0956 10.8899 14.5308 11.1472 14.0849L11.7037 13.1212C11.9612 12.6752 12.4946 12.4683 12.9853 12.6246L13.5686 12.8103C13.6948 12.8505 13.8316 12.8309 13.9464 12.7648C14.0608 12.6989 14.1461 12.5904 14.1744 12.4614L14.306 11.8615C14.4162 11.3586 14.8619 11 15.3767 11H16.4892ZM15.9375 15.0278C15.2847 15.0279 14.7555 15.5575 14.7555 16.2104C14.7555 16.8633 15.2847 17.3923 15.9375 17.3924C16.5905 17.3924 17.1201 16.8633 17.1201 16.2104C17.1201 15.5574 16.5905 15.0278 15.9375 15.0278Z" fill="#23B138"/>
  <circle cx="16" cy="16" r="2" fill="white"/>
  <path d="M7.73242 7.2865H13.3315" stroke="#23B138" stroke-width="1.6" stroke-linecap="round"/>
  <path d="M7.73242 10.0292H11.2785" stroke="#23B138" stroke-width="1.6" stroke-linecap="round"/>
</svg>