<svg width="16" height="16" viewBox="0 0 16 16" fill="none" xmlns="http://www.w3.org/2000/svg">
<path d="M7.64062 3.6875H9.64062C9.64062 3.42228 9.53527 3.16793 9.34773 2.98039C9.1602 2.79286 8.90584 2.6875 8.64062 2.6875C8.37541 2.6875 8.12105 2.79286 7.93352 2.98039C7.74598 3.16793 7.64062 3.42228 7.64062 3.6875ZM6.64062 3.6875C6.64062 3.15707 6.85134 2.64836 7.22641 2.27329C7.60148 1.89821 8.11019 1.6875 8.64062 1.6875C9.17106 1.6875 9.67977 1.89821 10.0548 2.27329C10.4299 2.64836 10.6406 3.15707 10.6406 3.6875H14.6406C14.7732 3.6875 14.9004 3.74018 14.9942 3.83395C15.0879 3.92771 15.1406 4.05489 15.1406 4.1875C15.1406 4.32011 15.0879 4.44729 14.9942 4.54105C14.9004 4.63482 14.7732 4.6875 14.6406 4.6875H14.0766L12.8716 13.5255C12.7899 14.1244 12.4939 14.6735 12.0385 15.071C11.5831 15.4685 10.9991 15.6875 10.3946 15.6875H6.88662C6.28214 15.6875 5.69813 15.4685 5.24273 15.071C4.78732 14.6735 4.49135 14.1244 4.40963 13.5255L3.20462 4.6875H2.64062C2.50802 4.6875 2.38084 4.63482 2.28707 4.54105C2.1933 4.44729 2.14062 4.32011 2.14062 4.1875C2.14062 4.05489 2.1933 3.92771 2.28707 3.83395C2.38084 3.74018 2.50802 3.6875 2.64062 3.6875H6.64062ZM7.64062 7.1875C7.64062 7.05489 7.58795 6.92771 7.49418 6.83395C7.40041 6.74018 7.27323 6.6875 7.14062 6.6875C7.00802 6.6875 6.88084 6.74018 6.78707 6.83395C6.6933 6.92771 6.64062 7.05489 6.64062 7.1875V12.1875C6.64062 12.3201 6.6933 12.4473 6.78707 12.5411C6.88084 12.6348 7.00802 12.6875 7.14062 12.6875C7.27323 12.6875 7.40041 12.6348 7.49418 12.5411C7.58795 12.4473 7.64062 12.3201 7.64062 12.1875V7.1875ZM10.1406 6.6875C10.2732 6.6875 10.4004 6.74018 10.4942 6.83395C10.5879 6.92771 10.6406 7.05489 10.6406 7.1875V12.1875C10.6406 12.3201 10.5879 12.4473 10.4942 12.5411C10.4004 12.6348 10.2732 12.6875 10.1406 12.6875C10.008 12.6875 9.88084 12.6348 9.78707 12.5411C9.6933 12.4473 9.64062 12.3201 9.64062 12.1875V7.1875C9.64062 7.05489 9.6933 6.92771 9.78707 6.83395C9.88084 6.74018 10.008 6.6875 10.1406 6.6875ZM5.40063 13.3905C5.4497 13.7498 5.62727 14.0791 5.90047 14.3176C6.17367 14.556 6.524 14.6875 6.88662 14.6875H10.3946C10.7574 14.6877 11.108 14.5564 11.3814 14.3179C11.6548 14.0794 11.8325 13.75 11.8816 13.3905L13.0676 4.6875H4.21362L5.40063 13.3905Z" fill="black" fill-opacity="0.12"/>
<path d="M7 3H9C9 2.73478 8.89464 2.48043 8.70711 2.29289C8.51957 2.10536 8.26522 2 8 2C7.73478 2 7.48043 2.10536 7.29289 2.29289C7.10536 2.48043 7 2.73478 7 3ZM6 3C6 2.46957 6.21071 1.96086 6.58579 1.58579C6.96086 1.21071 7.46957 1 8 1C8.53043 1 9.03914 1.21071 9.41421 1.58579C9.78929 1.96086 10 2.46957 10 3H14C14.1326 3 14.2598 3.05268 14.3536 3.14645C14.4473 3.24021 14.5 3.36739 14.5 3.5C14.5 3.63261 14.4473 3.75979 14.3536 3.85355C14.2598 3.94732 14.1326 4 14 4H13.436L12.231 12.838C12.1493 13.4369 11.8533 13.986 11.3979 14.3835C10.9425 14.781 10.3585 15 9.754 15H6.246C5.64152 15 5.05751 14.781 4.6021 14.3835C4.14669 13.986 3.85073 13.4369 3.769 12.838L2.564 4H2C1.86739 4 1.74021 3.94732 1.64645 3.85355C1.55268 3.75979 1.5 3.63261 1.5 3.5C1.5 3.36739 1.55268 3.24021 1.64645 3.14645C1.74021 3.05268 1.86739 3 2 3H6ZM7 6.5C7 6.36739 6.94732 6.24021 6.85355 6.14645C6.75979 6.05268 6.63261 6 6.5 6C6.36739 6 6.24021 6.05268 6.14645 6.14645C6.05268 6.24021 6 6.36739 6 6.5V11.5C6 11.6326 6.05268 11.7598 6.14645 11.8536C6.24021 11.9473 6.36739 12 6.5 12C6.63261 12 6.75979 11.9473 6.85355 11.8536C6.94732 11.7598 7 11.6326 7 11.5V6.5ZM9.5 6C9.63261 6 9.75979 6.05268 9.85355 6.14645C9.94732 6.24021 10 6.36739 10 6.5V11.5C10 11.6326 9.94732 11.7598 9.85355 11.8536C9.75979 11.9473 9.63261 12 9.5 12C9.36739 12 9.24021 11.9473 9.14645 11.8536C9.05268 11.7598 9 11.6326 9 11.5V6.5C9 6.36739 9.05268 6.24021 9.14645 6.14645C9.24021 6.05268 9.36739 6 9.5 6ZM4.76 12.703C4.80908 13.0623 4.98664 13.3916 5.25984 13.6301C5.53304 13.8685 5.88337 14 6.246 14H9.754C10.1168 14.0002 10.4674 13.8689 10.7408 13.6304C11.0142 13.3919 11.1919 13.0625 11.241 12.703L12.427 4H3.573L4.76 12.703Z" fill="white"/>
</svg>
