
<svg xmlns="http://www.w3.org/2000/svg" width="24" height="24" viewBox="0 0 24 24" fill="none">
  <rect x="2.8" y="4.8" width="18.4" height="14.4" rx="3.2" fill="#D3F2EE" stroke="#00A38D" stroke-width="1.6"/>
  <path d="M2.7998 8.2002V8C2.7998 6.23269 4.23269 4.7998 6 4.7998H18C19.7673 4.7998 21.2002 6.23269 21.2002 8V8.2002H2.7998Z" fill="#00A38D" stroke="#00A38D" stroke-width="1.6"/>
  <path d="M9.48746 12L10.7434 15.5883L11.9993 12L13.2552 15.5883L14.5111 12M8.94922 13.7942H9.84629M15.0494 13.7942H14.1523" stroke="#00A38D" stroke-width="1.4" stroke-linecap="round" stroke-linejoin="round"/>
  <path d="M2 8C2 5.79086 3.79086 4 6 4H18C20.2091 4 22 5.79086 22 8V16C22 18.2091 20.2091 20 18 20H6C3.79086 20 2 18.2091 2 16V8Z" fill="white"/>
  <path d="M12 11.2998C12.2973 11.2999 12.5629 11.4879 12.6611 11.7686L13.2559 13.4688L13.8516 11.7686C13.9794 11.404 14.3784 11.2114 14.7432 11.3389C15.1079 11.4667 15.3005 11.8666 15.1729 12.2314L14.8711 13.0938H15.0508C15.437 13.0941 15.7499 13.4077 15.75 13.7939C15.75 14.1803 15.4371 14.4938 15.0508 14.4941H14.3809L13.917 15.8193C13.8188 16.1 13.5532 16.288 13.2559 16.2881C12.9586 16.288 12.694 16.1 12.5957 15.8193L12 14.1182L11.4053 15.8193C11.307 16.1 11.0415 16.288 10.7441 16.2881C10.4468 16.288 10.1823 16.1 10.084 15.8193L9.62012 14.4941H8.9502C8.5636 14.4941 8.25 14.1805 8.25 13.7939C8.25012 13.4074 8.56367 13.0938 8.9502 13.0938H9.12988L8.82812 12.2314C8.70043 11.8666 8.89206 11.4666 9.25684 11.3389C9.62164 11.2113 10.0217 11.4038 10.1494 11.7686L10.7441 13.4688L11.3398 11.7686L11.3838 11.668C11.5044 11.444 11.7398 11.2999 12 11.2998Z" fill="#3EAFF2"/>
  <path fill-rule="evenodd" clip-rule="evenodd" d="M18.2061 4.00488C18.3404 4.0117 18.473 4.02517 18.6035 4.04492C18.6202 4.04745 18.6367 4.05098 18.6533 4.05371C18.8262 4.08213 18.9955 4.12105 19.1602 4.1709L19.1895 4.17969C19.2131 4.18703 19.2363 4.19536 19.2598 4.20312C19.2955 4.21498 19.3309 4.22741 19.3662 4.24023C19.3789 4.24484 19.3917 4.24917 19.4043 4.25391C19.4523 4.2719 19.4998 4.29078 19.5469 4.31055C19.5583 4.31535 19.5697 4.32029 19.5811 4.3252C19.629 4.34587 19.6766 4.36717 19.7236 4.38965C19.7416 4.39826 19.7595 4.40714 19.7773 4.41602C19.8118 4.43314 19.846 4.45067 19.8799 4.46875C19.9055 4.48241 19.9308 4.49655 19.9561 4.51074C19.9893 4.52941 20.0221 4.54877 20.0547 4.56836C20.072 4.57873 20.0893 4.58898 20.1064 4.59961C20.1461 4.62421 20.1849 4.64985 20.2236 4.67578C20.2361 4.68413 20.2484 4.69269 20.2607 4.70117C20.2958 4.72527 20.331 4.74924 20.3652 4.77441C20.3903 4.79285 20.4148 4.81206 20.4395 4.83105C20.4637 4.84975 20.4879 4.86846 20.5117 4.8877C20.5358 4.90717 20.5594 4.92725 20.583 4.94727C20.61 4.9701 20.6368 4.99307 20.6631 5.0166C20.6791 5.03089 20.6952 5.04503 20.7109 5.05957C20.7868 5.12954 20.8595 5.20274 20.9297 5.27832C20.951 5.30128 20.9724 5.3242 20.9932 5.34766C21.0137 5.3708 21.0337 5.39435 21.0537 5.41797C21.0707 5.43808 21.0879 5.45807 21.1045 5.47852C21.132 5.51232 21.1592 5.54635 21.1855 5.58105C21.1924 5.59012 21.1992 5.59927 21.2061 5.6084C21.2364 5.64898 21.2652 5.69067 21.2939 5.73242C21.3078 5.75249 21.3215 5.77264 21.335 5.79297C21.3523 5.81908 21.369 5.84553 21.3857 5.87207C21.4019 5.89767 21.418 5.92323 21.4336 5.94922C21.4543 5.98375 21.4745 6.01852 21.4941 6.05371C21.5051 6.0733 21.5167 6.09251 21.5273 6.1123C21.5453 6.14577 21.5621 6.17984 21.5791 6.21387C21.5917 6.23912 21.6041 6.26449 21.6162 6.29004C21.6297 6.31846 21.6425 6.34719 21.6553 6.37598C21.6685 6.40579 21.6818 6.43563 21.6943 6.46582C21.7024 6.48524 21.71 6.50485 21.7178 6.52441C21.733 6.56286 21.7476 6.6016 21.7617 6.64062C21.7737 6.6739 21.7847 6.70754 21.7959 6.74121C21.8055 6.7702 21.8162 6.79885 21.8252 6.82812C21.8363 6.86433 21.8464 6.90087 21.8564 6.9375C21.8632 6.96214 21.8697 6.98689 21.876 7.01172C21.8857 7.04991 21.8947 7.08833 21.9033 7.12695C21.9093 7.15359 21.9155 7.18019 21.9209 7.20703C21.9404 7.30377 21.9554 7.40185 21.9678 7.50098C21.9881 7.66452 22 7.83095 22 8V16L21.9951 16.2061C21.8913 18.2512 20.2512 19.8913 18.2061 19.9951L18 20H6L5.79395 19.9951C3.68056 19.8879 2 18.14 2 16V8C2 7.83099 2.0109 7.66448 2.03125 7.50098C2.04358 7.40187 2.05868 7.30375 2.07812 7.20703C2.08352 7.1802 2.08977 7.15359 2.0957 7.12695C2.1043 7.08834 2.11334 7.04991 2.12305 7.01172C2.12936 6.98689 2.13581 6.96214 2.14258 6.9375C2.15264 6.90088 2.16276 6.86432 2.17383 6.82812C2.18278 6.79885 2.19352 6.77019 2.20312 6.74121C2.21428 6.70754 2.22529 6.67389 2.2373 6.64062C2.25144 6.6015 2.26691 6.56296 2.28223 6.52441C2.28995 6.50496 2.29667 6.48512 2.30469 6.46582C2.31729 6.43551 2.33141 6.4059 2.34473 6.37598C2.35748 6.34732 2.36941 6.31834 2.38281 6.29004C2.39497 6.26436 2.40821 6.23924 2.4209 6.21387C2.43791 6.17984 2.45471 6.14577 2.47266 6.1123C2.4832 6.09265 2.49403 6.07317 2.50488 6.05371C2.52452 6.01852 2.54478 5.98374 2.56543 5.94922C2.58098 5.92323 2.59716 5.89767 2.61328 5.87207C2.62999 5.84554 2.64676 5.81908 2.66406 5.79297C2.67055 5.78318 2.67702 5.7734 2.68359 5.76367L2.74805 5.66992C2.76297 5.64913 2.77864 5.62889 2.79395 5.6084C2.80065 5.59943 2.8067 5.58997 2.81348 5.58105C2.83985 5.54636 2.86706 5.51231 2.89453 5.47852C2.91115 5.45807 2.9283 5.43807 2.94531 5.41797C2.96529 5.39435 2.98534 5.3708 3.00586 5.34766C3.02665 5.3242 3.04801 5.30128 3.06934 5.27832C3.13955 5.20274 3.21227 5.12954 3.28809 5.05957C3.30384 5.04503 3.31995 5.03089 3.33594 5.0166C3.36226 4.99307 3.38907 4.9701 3.41602 4.94727C3.43964 4.92725 3.46321 4.90717 3.4873 4.8877C3.5111 4.86845 3.53533 4.84976 3.55957 4.83105C3.58421 4.81205 3.6087 4.79285 3.63379 4.77441C3.66805 4.74923 3.7032 4.72527 3.73828 4.70117C3.75063 4.69269 3.76294 4.68413 3.77539 4.67578C3.81406 4.64984 3.85297 4.62422 3.89258 4.59961C3.90969 4.58898 3.92705 4.57874 3.94434 4.56836C3.97696 4.54877 4.00975 4.52942 4.04297 4.51074C4.06823 4.49654 4.09355 4.48241 4.11914 4.46875C4.15327 4.45053 4.18794 4.43327 4.22266 4.41602C4.24025 4.40728 4.25765 4.39814 4.27539 4.38965C4.32237 4.36716 4.36999 4.34588 4.41797 4.3252C4.42935 4.32029 4.44072 4.31535 4.45215 4.31055C4.49922 4.29077 4.54676 4.27191 4.59473 4.25391C4.60735 4.24917 4.62013 4.24485 4.63281 4.24023C4.66808 4.2274 4.70353 4.21498 4.73926 4.20312C4.76912 4.19322 4.79894 4.18305 4.8291 4.17383C4.99685 4.12255 5.16939 4.08273 5.3457 4.05371C5.36232 4.05098 5.37882 4.04745 5.39551 4.04492C5.52634 4.02509 5.65927 4.01172 5.79395 4.00488C5.86219 4.00142 5.9309 4 6 4H18L18.2061 4.00488ZM3.59961 16C3.59961 17.3255 4.67452 18.4004 6 18.4004H18C19.3255 18.4004 20.4004 17.3255 20.4004 16V9H3.59961V16Z" fill="#3EAFF2"/>
</svg>