<svg xmlns="http://www.w3.org/2000/svg" width="24" height="24" viewBox="0 0 24 24" fill="none">
  <path d="M3 7C3 4.79086 4.79086 3 7 3H17C19.2091 3 21 4.79086 21 7V17C21 19.2091 19.2091 21 17 21H7C4.79086 21 3 19.2091 3 17V7Z" fill="white"/>
  <path d="M13.5 10.8008C13.7063 10.5944 16.0144 10.7483 16.2686 10.8535C16.354 10.889 16.4307 10.9415 16.4951 11.0059L16.585 11.1152C16.5968 11.1331 16.6043 11.1532 16.6143 11.1719C16.6255 11.1929 16.6383 11.2131 16.6475 11.2354C16.6822 11.3203 16.7002 11.4106 16.7002 11.501V14.001C16.7002 14.3876 16.3866 14.7011 16 14.7012C15.6134 14.7011 15.2998 14.3876 15.2998 14.001V13.1914L12.9951 15.4961C12.7218 15.7694 12.2782 15.7694 12.0049 15.4961L10.5 13.9912L8.49512 15.9961C8.22177 16.2694 7.77825 16.2694 7.50488 15.9961C7.23155 15.7227 7.23155 15.2792 7.50488 15.0059L10.0049 12.5059C10.2782 12.2325 10.7218 12.2325 10.9951 12.5059L12.5 14.0107L14.3096 12.2012H13.5C13.1134 12.2011 12.7998 11.8876 12.7998 11.501C12.7998 11.1144 13.1134 10.8008 13.5 10.8008Z" fill="#36B0CF"/>
  <path fill-rule="evenodd" clip-rule="evenodd" d="M17 3C19.2091 3 21 4.79086 21 7V17C21 19.14 19.3194 20.8879 17.2061 20.9951L17 21H7L6.79395 20.9951C4.7488 20.8913 3.10865 19.2512 3.00488 17.2061L3 17V7C3 4.79086 4.79086 3 7 3H17ZM4.59961 17C4.59961 18.3255 5.67452 19.4004 7 19.4004H17C18.3255 19.4004 19.4004 18.3255 19.4004 17V7.7998H4.59961V17ZM5.59961 5C5.15794 5.00011 4.79991 5.35813 4.7998 5.7998C4.7998 6.24157 5.15787 6.5995 5.59961 6.59961C6.04144 6.59961 6.39941 6.24163 6.39941 5.7998C6.39931 5.35807 6.04137 5 5.59961 5ZM8 5C7.55824 5 7.2003 5.35807 7.2002 5.7998C7.2002 6.24163 7.55817 6.59961 8 6.59961C8.44169 6.59945 8.7998 6.24153 8.7998 5.7998C8.7997 5.35816 8.44163 5.00016 8 5Z" fill="#36B0CF"/>
</svg>