<svg xmlns="http://www.w3.org/2000/svg" width="24" height="24" viewBox="0 0 24 24" fill="none">
  <path d="M19.4911 13.4509L16.2562 7.21875H7.73331L4.50937 13.4509C2.59843 16.5104 5.16881 20.2204 9.19948 20.2204H14.801C18.8317 20.2204 21.402 16.5104 19.4911 13.4509Z" fill="white"/>
  <path d="M14.9941 11.2998C15.3806 11.3 15.6943 11.6135 15.6943 12V14.4209C15.6941 14.8072 15.3804 15.1209 14.9941 15.1211C14.6076 15.1211 14.2941 14.8073 14.2939 14.4209V13.6445L12.122 15.7324C11.8511 15.9928 11.4223 15.9927 11.1513 15.7324L9.95796 14.585L8.4853 16.002C8.20669 16.2696 7.76296 16.2608 7.49507 15.9824C7.22717 15.7038 7.23608 15.2602 7.5146 14.9922L9.47261 13.1094C9.74357 12.8488 10.1723 12.8489 10.4433 13.1094L11.6367 14.2568L13.2558 12.7002H12.4765C12.09 12.7002 11.7765 12.3864 11.7763 12C11.7763 11.6134 12.0899 11.2998 12.4765 11.2998H14.9941Z" fill="#88B60B"/>
  <path fill-rule="evenodd" clip-rule="evenodd" d="M17.0449 3C17.9301 3 18.5106 3.92578 18.125 4.72266L17.0332 6.97949L20.1992 13.0791C21.3026 14.8895 21.0956 16.9033 20.0322 18.4385C18.967 19.9757 17.0637 21.0205 14.8007 21.0205H9.19917C6.9363 21.0204 5.03383 19.9756 3.9687 18.4385C2.90564 16.9041 2.69822 14.8918 3.79976 13.082L6.93062 7.02637L5.84273 4.70996C5.46889 3.91418 6.04937 3 6.92866 3H17.0449ZM5.20503 13.8467L5.18745 13.875C4.41609 15.1107 4.54286 16.4574 5.28413 17.5273C6.03416 18.6096 7.43204 19.4198 9.19917 19.4199H14.8007C16.5681 19.4199 17.9667 18.6097 18.7168 17.5273C19.458 16.4574 19.584 15.1107 18.8125 13.875L18.7959 13.8477L18.7812 13.8193L15.7695 8.01855H8.22066L5.20503 13.8467Z" fill="#88B60B"/>
</svg>