<svg width="12" height="12" viewBox="0 0 12 12" fill="none" xmlns="http://www.w3.org/2000/svg">
<g id="Arrow/ico_link_12_gr">
<path id="Vector" d="M4.47001 2.22032C4.32956 2.36094 4.25067 2.55157 4.25067 2.75032C4.25067 2.94907 4.32956 3.13969 4.47001 3.28032L7.19001 6.00032L4.47001 8.72032C4.33753 8.86249 4.26541 9.05054 4.26884 9.24484C4.27226 9.43914 4.35098 9.62453 4.48839 9.76194C4.6258 9.89935 4.81119 9.97806 5.00549 9.98149C5.19979 9.98492 5.38784 9.9128 5.53001 9.78032L8.78001 6.53032C8.92046 6.38969 8.99935 6.19907 8.99935 6.00032C8.99935 5.80157 8.92046 5.61094 8.78001 5.47032L5.53001 2.22032C5.38939 2.07987 5.19876 2.00098 5.00001 2.00098C4.80126 2.00098 4.61064 2.07987 4.47001 2.22032Z" fill="#CFD4D9"/>
</g>
</svg>
