<svg width="20" height="20" viewBox="0 0 20 20" fill="none" xmlns="http://www.w3.org/2000/svg">
<path d="M17.7084 9.99999H7.41252M3.77835 9.99999H2.29169M3.77835 9.99999C3.77835 9.51818 3.96975 9.0561 4.31044 8.71541C4.65113 8.37472 5.11321 8.18332 5.59502 8.18332C6.07683 8.18332 6.53891 8.37472 6.8796 8.71541C7.22029 9.0561 7.41169 9.51818 7.41169 9.99999C7.41169 10.4818 7.22029 10.9439 6.8796 11.2846C6.53891 11.6253 6.07683 11.8167 5.59502 11.8167C5.11321 11.8167 4.65113 11.6253 4.31044 11.2846C3.96975 10.9439 3.77835 10.4818 3.77835 9.99999ZM17.7084 15.5058H12.9184M12.9184 15.5058C12.9184 15.9877 12.7265 16.4503 12.3857 16.7911C12.045 17.1319 11.5828 17.3233 11.1009 17.3233C10.619 17.3233 10.157 17.1311 9.81628 16.7904C9.47558 16.4497 9.28419 15.9876 9.28419 15.5058M12.9184 15.5058C12.9184 15.0239 12.7265 14.5621 12.3857 14.2214C12.045 13.8806 11.5828 13.6892 11.1009 13.6892C10.619 13.6892 10.157 13.8806 9.81628 14.2212C9.47558 14.5619 9.28419 15.024 9.28419 15.5058M9.28419 15.5058H2.29169M17.7084 4.49416H15.1209M11.4867 4.49416H2.29169M11.4867 4.49416C11.4867 4.01235 11.6781 3.55027 12.0188 3.20958C12.3595 2.86889 12.8215 2.67749 13.3034 2.67749C13.5419 2.67749 13.7782 2.72448 13.9986 2.81578C14.219 2.90707 14.4192 3.04089 14.5879 3.20958C14.7566 3.37827 14.8904 3.57854 14.9817 3.79895C15.073 4.01936 15.12 4.25559 15.12 4.49416C15.12 4.73272 15.073 4.96896 14.9817 5.18937C14.8904 5.40977 14.7566 5.61004 14.5879 5.77873C14.4192 5.94743 14.219 6.08124 13.9986 6.17254C13.7782 6.26383 13.5419 6.31082 13.3034 6.31082C12.8215 6.31082 12.3595 6.11943 12.0188 5.77873C11.6781 5.43804 11.4867 4.97597 11.4867 4.49416Z" stroke="#777E85" stroke-width="1.2" stroke-miterlimit="10" stroke-linecap="round"/>
</svg>
