<svg width="28" height="28" viewBox="0 0 28 28" fill="none" xmlns="http://www.w3.org/2000/svg">
<path d="M2.3125 13.0208C2.3125 8.62133 2.3125 6.421 3.67983 5.05483C5.04717 3.68867 7.24633 3.6875 11.6458 3.6875H16.3125C20.712 3.6875 22.9123 3.6875 24.2785 5.05483C25.6447 6.42217 25.6458 8.62133 25.6458 13.0208V15.3542C25.6458 19.7537 25.6458 21.954 24.2785 23.3202C22.9112 24.6863 20.712 24.6875 16.3125 24.6875H11.6458C7.24633 24.6875 5.046 24.6875 3.67983 23.3202C2.31367 21.9528 2.3125 19.7537 2.3125 15.3542V13.0208Z" stroke="white" stroke-width="1.75"/>
<path d="M20.9873 17.6875H18.6539M18.6539 17.6875H16.3206M18.6539 17.6875V15.3542M18.6539 17.6875V20.0208M8.15393 3.6875V1.9375M19.8206 3.6875V1.9375M2.90393 9.52083H25.0706" stroke="white" stroke-width="1.75" stroke-linecap="round"/>
</svg>
