<svg width="16" height="16" viewBox="0 0 16 16" fill="none" xmlns="http://www.w3.org/2000/svg">
<path d="M8.49998 2C8.69889 2 8.88965 2.07902 9.03031 2.21967C9.17096 2.36032 9.24998 2.55109 9.24998 2.75V11.537L12.191 8.25C12.2565 8.17593 12.3359 8.11555 12.4248 8.0723C12.5137 8.02906 12.6103 8.00382 12.709 7.99804C12.8077 7.99225 12.9065 8.00603 12.9999 8.03859C13.0932 8.07115 13.1792 8.12183 13.2529 8.18774C13.3266 8.25365 13.3865 8.33347 13.4292 8.42262C13.4719 8.51177 13.4966 8.60849 13.5018 8.70721C13.5071 8.80593 13.4927 8.90471 13.4596 8.99786C13.4265 9.09101 13.3753 9.1767 13.309 9.25L9.05898 14C8.98863 14.0786 8.90248 14.1416 8.80615 14.1846C8.70983 14.2277 8.60549 14.25 8.49998 14.25C8.39446 14.25 8.29013 14.2277 8.1938 14.1846C8.09748 14.1416 8.01132 14.0786 7.94098 14L3.69098 9.25C3.62464 9.1767 3.57345 9.09101 3.54036 8.99786C3.50726 8.90471 3.4929 8.80593 3.49811 8.70721C3.50333 8.60849 3.528 8.51177 3.57073 8.42262C3.61345 8.33347 3.67338 8.25365 3.74706 8.18774C3.82075 8.12183 3.90673 8.07115 4.00008 8.03859C4.09342 8.00603 4.19228 7.99225 4.29097 7.99804C4.38965 8.00382 4.48623 8.02906 4.57513 8.0723C4.66403 8.11555 4.7435 8.17593 4.80898 8.25L7.74998 11.537V2.75C7.74998 2.65151 7.76938 2.55398 7.80707 2.46299C7.84476 2.37199 7.9 2.28931 7.96965 2.21967C8.03929 2.15003 8.12197 2.09478 8.21296 2.05709C8.30396 2.0194 8.40148 2 8.49998 2Z" fill="#2589F4"/>
</svg>
