<svg width="14" height="14" viewBox="0 0 14 14" fill="none" xmlns="http://www.w3.org/2000/svg">
<g id="fluent:grid-16-filled">
<path id="Vector" d="M3.3125 1.75C2.9644 1.75 2.63056 1.88828 2.38442 2.13442C2.13828 2.38056 2 2.7144 2 3.0625V4.8125C2 5.1606 2.13828 5.49444 2.38442 5.74058C2.63056 5.98672 2.9644 6.125 3.3125 6.125H5.0625C5.4106 6.125 5.74444 5.98672 5.99058 5.74058C6.23672 5.49444 6.375 5.1606 6.375 4.8125V3.0625C6.375 2.7144 6.23672 2.38056 5.99058 2.13442C5.74444 1.88828 5.4106 1.75 5.0625 1.75H3.3125ZM9.4375 1.75C9.0894 1.75 8.75556 1.88828 8.50942 2.13442C8.26328 2.38056 8.125 2.7144 8.125 3.0625V4.8125C8.125 5.1606 8.26328 5.49444 8.50942 5.74058C8.75556 5.98672 9.0894 6.125 9.4375 6.125H11.1875C11.5356 6.125 11.8694 5.98672 12.1156 5.74058C12.3617 5.49444 12.5 5.1606 12.5 4.8125V3.0625C12.5 2.7144 12.3617 2.38056 12.1156 2.13442C11.8694 1.88828 11.5356 1.75 11.1875 1.75H9.4375ZM3.3125 7.875C2.9644 7.875 2.63056 8.01328 2.38442 8.25942C2.13828 8.50556 2 8.8394 2 9.1875V10.9375C2 11.2856 2.13828 11.6194 2.38442 11.8656C2.63056 12.1117 2.9644 12.25 3.3125 12.25H5.0625C5.4106 12.25 5.74444 12.1117 5.99058 11.8656C6.23672 11.6194 6.375 11.2856 6.375 10.9375V9.1875C6.375 8.8394 6.23672 8.50556 5.99058 8.25942C5.74444 8.01328 5.4106 7.875 5.0625 7.875H3.3125ZM9.4375 7.875C9.0894 7.875 8.75556 8.01328 8.50942 8.25942C8.26328 8.50556 8.125 8.8394 8.125 9.1875V10.9375C8.125 11.2856 8.26328 11.6194 8.50942 11.8656C8.75556 12.1117 9.0894 12.25 9.4375 12.25H11.1875C11.5356 12.25 11.8694 12.1117 12.1156 11.8656C12.3617 11.6194 12.5 11.2856 12.5 10.9375V9.1875C12.5 8.8394 12.3617 8.50556 12.1156 8.25942C11.8694 8.01328 11.5356 7.875 11.1875 7.875H9.4375Z" stroke="#A4A9AE" stroke-width="1.25"/>
</g>
</svg>
