<svg width="20" height="20" viewBox="0 0 20 20" fill="none" xmlns="http://www.w3.org/2000/svg">
<path d="M16.7549 17.7508C16.6755 17.7508 16.5873 17.7332 16.5079 17.7067C16.1638 17.5744 16.005 17.1862 16.1374 16.851C17.1607 14.2662 17.6724 11.5402 17.6724 8.73491C17.6724 7.48222 17.3371 6.25598 16.6931 5.18855C16.0491 4.11228 15.1317 3.23893 14.0289 2.64786C12.9262 2.0568 11.6912 1.77451 10.4385 1.82744C9.18577 1.88037 7.97719 2.27735 6.93621 2.96545C6.62745 3.16835 6.22165 3.08013 6.01875 2.78019C5.81584 2.47143 5.90406 2.06562 6.204 1.86272C7.46552 1.0423 8.90348 0.57474 10.3855 0.504165C11.8764 0.433591 13.3497 0.777641 14.6641 1.47456C15.9786 2.18031 17.0725 3.2301 17.8311 4.50927C18.5986 5.78843 18.9956 7.24403 18.9956 8.73491C18.9956 11.7079 18.4487 14.6014 17.3636 17.3362C17.2577 17.592 17.0107 17.7508 16.7461 17.7508H16.7549Z" fill="white"/>
<path d="M2.02399 13.4351C1.90048 13.4351 1.77698 13.3998 1.67111 13.3292C1.36235 13.1351 1.26531 12.7293 1.46821 12.4117C2.16513 11.309 2.52683 10.0387 2.52683 8.73303C2.52683 7.10982 2.99438 5.53954 3.89421 4.1898C4.09711 3.88104 4.51174 3.80164 4.81168 4.00454C5.12044 4.20745 5.19984 4.61325 4.99693 4.92201C4.24708 6.06003 3.8501 7.37448 3.8501 8.73303C3.8501 10.2857 3.41783 11.803 2.58858 13.1263C2.46508 13.3292 2.24453 13.4351 2.03281 13.4351H2.02399Z" fill="white"/>
<path d="M4.02999 17.0259C3.87119 17.0259 3.7124 16.9729 3.5889 16.8494C3.31542 16.6024 3.29778 16.1878 3.54479 15.9143C5.33561 13.9471 6.32366 11.3887 6.31483 8.72454C6.31483 7.5336 6.77357 6.41323 7.62046 5.57516C8.46735 4.73709 9.5789 4.26953 10.7698 4.26953C11.9608 4.26953 13.0723 4.72827 13.9192 5.57516C14.7573 6.41323 15.2249 7.5336 15.2249 8.72454C15.2249 9.2715 15.1984 9.82727 15.1543 10.3566C15.1278 10.7183 14.8014 10.9917 14.4397 10.9653C14.078 10.9388 13.8045 10.6124 13.831 10.2507C13.8751 9.74787 13.8928 9.23621 13.8928 8.72454C13.8928 7.88647 13.5664 7.10133 12.9753 6.51027C11.7932 5.32815 9.73769 5.32815 8.55557 6.51027C7.96451 7.10133 7.6381 7.88647 7.6381 8.72454C7.6381 11.7151 6.53538 14.5822 4.52401 16.8053C4.39168 16.9465 4.21524 17.0259 4.02999 17.0259Z" fill="white"/>
<path d="M7.12571 19.2534C6.97574 19.2534 6.81695 19.2005 6.69344 19.0946C6.41997 18.8564 6.38468 18.4418 6.62287 18.1595C8.87243 15.5394 10.1075 12.196 10.0987 8.73781C10.0987 8.37611 10.3898 8.07617 10.7603 8.07617C11.122 8.07617 11.4219 8.36729 11.4219 8.73781C11.4219 12.5047 10.081 16.1569 7.62855 19.024C7.49623 19.174 7.31097 19.2534 7.12571 19.2534Z" fill="white"/>
<path d="M11.3275 19.9877C11.204 19.9877 11.0716 19.9525 10.957 19.8731C10.657 19.6702 10.5776 19.2555 10.7805 18.9556C11.8568 17.3588 12.6772 15.6121 13.2065 13.7595C13.3036 13.4067 13.6741 13.1949 14.0269 13.3096C14.3798 13.4067 14.5827 13.7772 14.4769 14.1301C13.9123 16.115 13.0301 17.994 11.8744 19.7054C11.7509 19.8907 11.5392 19.9966 11.3275 19.9966V19.9877Z" fill="white"/>
</svg>
