<svg xmlns="http://www.w3.org/2000/svg" width="24" height="24" viewBox="0 0 24 24" fill="none">
  <path d="M15 3C17.2091 3 19 4.79086 19 7V10.8037C20.7932 11.8412 22 13.7793 22 16C22 19.3137 19.3137 22 16 22C14.7737 22 13.6337 21.6315 12.6836 21H8C5.79086 21 4 19.2091 4 17V7C4 4.79086 5.79086 3 8 3H15Z" fill="white"/>
  <path d="M11.3174 9.47949C11.7592 9.47949 12.1172 9.83747 12.1172 10.2793C12.1171 10.7211 11.7592 11.0791 11.3174 11.0791H7.77148C7.32981 11.079 6.97175 10.721 6.97168 10.2793C6.97168 9.83755 7.32977 9.47962 7.77148 9.47949H11.3174Z" fill="#F78718"/>
  <path d="M13.3701 6.73633C13.8118 6.73633 14.1707 7.09447 14.1709 7.53613C14.1709 7.97796 13.8119 8.33594 13.3701 8.33594H7.77148C7.32977 8.33581 6.97168 7.97788 6.97168 7.53613C6.97188 7.09455 7.32989 6.73646 7.77148 6.73633H13.3701Z" fill="#F78718"/>
  <path fill-rule="evenodd" clip-rule="evenodd" d="M15.001 3C17.2099 3.00026 19.001 4.79102 19.001 7V10.8047C18.9939 10.8006 18.9866 10.797 18.9795 10.793C20.7837 11.8276 22 13.7711 22 16C22 19.3137 19.3137 22 16 22C14.7737 22 13.6337 21.6315 12.6836 21H8.00098L7.79492 20.9951C5.74979 20.8913 4.10964 19.2512 4.00586 17.2061L4 17V7C4 4.79086 5.79184 3 8.00098 3H15.001ZM8.00098 4.59961C6.67549 4.59961 5.60059 5.67452 5.60059 7V17C5.60059 18.3255 6.67549 19.4004 8.00098 19.4004H11.0576C10.3913 18.4338 10 17.2628 10 16C10 12.6863 12.6863 10 16 10C16.4827 10 16.9517 10.0584 17.4014 10.166V7C17.4014 5.67468 16.3262 4.59987 15.001 4.59961H8.00098ZM18.9941 14.0049C18.7354 13.7182 18.3035 13.7064 18.0303 13.9795L15 17.0107L13.9688 15.9785C13.6955 15.7057 13.2636 15.7173 13.0049 16.0039C12.7462 16.291 12.7582 16.7461 13.0312 17.0195L14.499 18.4873C14.501 18.4895 14.5029 18.4928 14.5049 18.4951C14.511 18.5019 14.519 18.5072 14.5254 18.5137L14.5312 18.5195C14.5328 18.5211 14.5354 18.5228 14.5371 18.5244C14.5679 18.5546 14.6003 18.5814 14.6348 18.6045C14.642 18.6094 14.6499 18.6136 14.6572 18.6182C14.6877 18.6368 14.7186 18.6537 14.751 18.667C14.7633 18.6721 14.7765 18.6754 14.7891 18.6797C14.8175 18.6894 14.8458 18.6985 14.875 18.7041C14.8924 18.7076 14.9101 18.7089 14.9277 18.7109C14.9518 18.7136 14.9758 18.7159 15 18.7158C15.0239 18.7159 15.0475 18.7135 15.0713 18.7109C15.0889 18.7089 15.1065 18.7076 15.124 18.7041C15.1533 18.6985 15.1815 18.6893 15.21 18.6797C15.2226 18.6753 15.2356 18.6721 15.248 18.667C15.2805 18.6537 15.3112 18.6368 15.3418 18.6182C15.3492 18.6136 15.357 18.6094 15.3643 18.6045C15.3988 18.5814 15.431 18.5546 15.4619 18.5244C15.4638 18.5227 15.467 18.5213 15.4688 18.5195L15.4736 18.5137C15.4802 18.507 15.4888 18.5021 15.4951 18.4951C15.4969 18.493 15.4982 18.4894 15.5 18.4873L18.9688 15.0195C19.2416 14.7461 19.2528 14.2919 18.9941 14.0049Z" fill="#F78718"/>
</svg>