<svg xmlns="http://www.w3.org/2000/svg" width="24" height="24" viewBox="0 0 24 24" fill="none">
  <path d="M17.1807 3.77734C17.7328 3.77753 18.1807 4.22517 18.1807 4.77734V10.4102C20.4159 11.2828 22 13.4558 22 16C22 19.3137 19.3137 22 16 22C13.8357 22 11.9392 20.854 10.8838 19.1357H3.81055V10.7988C3.81055 10.2465 4.25826 9.79883 4.81055 9.79883H7.60059C8.15283 9.79888 8.60059 10.2466 8.60059 10.7988V7.52734C8.60059 6.97506 9.0483 6.52734 9.60059 6.52734H12.3906C12.9429 6.5274 13.3906 6.97509 13.3906 7.52734V4.77734C13.3906 4.22506 13.8383 3.77734 14.3906 3.77734H17.1807Z" fill="white"/>
  <path d="M13.3906 4.77734C13.3906 4.22506 13.8383 3.77734 14.3906 3.77734H17.1806C17.7329 3.77734 18.1806 4.22506 18.1806 4.77734V19.1352H13.3906V4.77734Z" stroke="#F66876" stroke-width="1.6"/>
  <path d="M8.60156 7.52734C8.60156 6.97506 9.04928 6.52734 9.60156 6.52734H12.3915C12.9438 6.52734 13.3915 6.97506 13.3915 7.52734V19.1365H8.60156V7.52734Z" stroke="#F66876" stroke-width="1.6"/>
  <path d="M3.81055 10.7988C3.81055 10.2465 4.25826 9.79883 4.81055 9.79883H7.60049C8.15277 9.79883 8.60049 10.2465 8.60049 10.7988V19.1357H3.81055V10.7988Z" stroke="#F66876" stroke-width="1.6"/>
  <path d="M2.78711 19.1367L20.0002 19.1934" stroke="#F66876" stroke-width="1.6" stroke-linecap="round"/>
  <circle cx="16" cy="16" r="5.2" fill="#F66876" stroke="#F66876" stroke-width="1.6"/>
  <path d="M14.011 14.9258L15.0439 17.8769L16.0768 14.9258L17.1097 17.8769L18.1425 14.9258M13.5684 16.4013H14.3061M18.5852 16.4013H17.8474" stroke="white" stroke-width="1.4" stroke-linecap="round" stroke-linejoin="round"/>
</svg>