<svg width="48" height="48" viewBox="0 0 48 48" fill="none" xmlns="http://www.w3.org/2000/svg">
<g id="solar:camera-bold">
<path id="Vector" fill-rule="evenodd" clip-rule="evenodd" d="M19.556 42.0001H28.444C34.686 42.0001 37.808 42.0001 40.05 40.5301C41.0176 39.8964 41.8509 39.0781 42.502 38.1221C44 35.9221 44 32.8561 44 26.7281C44 20.6001 44 17.5341 42.502 15.3341C41.8509 14.3781 41.0176 13.5598 40.05 12.9261C38.61 11.9801 36.806 11.6421 34.044 11.5221C32.726 11.5221 31.592 10.5421 31.334 9.27209C31.1368 8.34183 30.6245 7.50817 29.8837 6.91199C29.1429 6.31582 28.2189 5.99371 27.268 6.00009H20.732C18.756 6.00009 17.054 7.37009 16.666 9.27209C16.408 10.5421 15.274 11.5221 13.956 11.5221C11.196 11.6421 9.392 11.9821 7.95 12.9261C6.98307 13.56 6.15055 14.3783 5.5 15.3341C4 17.5341 4 20.5981 4 26.7281C4 32.8581 4 35.9201 5.498 38.1221C6.146 39.0741 6.978 39.8921 7.95 40.5301C10.192 42.0001 13.314 42.0001 19.556 42.0001ZM24 18.5461C19.398 18.5461 15.666 22.2081 15.666 26.7261C15.666 31.2441 19.4 34.9121 24 34.9121C28.6 34.9121 32.334 31.2481 32.334 26.7301C32.334 22.2121 28.6 18.5461 24 18.5461ZM24 21.8181C21.24 21.8181 19 24.0161 19 26.7281C19 29.4381 21.24 31.6361 24 31.6361C26.76 31.6361 29 29.4381 29 26.7281C29 24.0181 26.76 21.8181 24 21.8181ZM33.444 20.1821C33.444 19.2781 34.19 18.5461 35.112 18.5461H37.332C38.252 18.5461 39 19.2781 39 20.1821C38.9958 20.6199 38.8179 21.0381 38.5056 21.3449C38.1932 21.6516 37.7718 21.8218 37.334 21.8181H35.112C34.8951 21.8202 34.6798 21.7796 34.4786 21.6985C34.2773 21.6174 34.094 21.4975 33.9392 21.3456C33.7843 21.1937 33.6608 21.0127 33.5759 20.8131C33.4909 20.6135 33.4461 20.399 33.444 20.1821Z" fill="#C5CBD1"/>
</g>
</svg>
