<svg width="21" height="20" viewBox="0 0 21 20" fill="none" xmlns="http://www.w3.org/2000/svg">
<path fill-rule="evenodd" clip-rule="evenodd" d="M11.4375 3.75C11.4375 3.23223 11.0178 2.8125 10.5 2.8125C9.98223 2.8125 9.5625 3.23223 9.5625 3.75V9.0625H4.25C3.73223 9.0625 3.3125 9.48223 3.3125 10C3.3125 10.5178 3.73223 10.9375 4.25 10.9375H9.5625V16.2546C9.5625 16.7724 9.98223 17.1921 10.5 17.1921C11.0178 17.1921 11.4375 16.7724 11.4375 16.2546V10.9375H16.7546C17.2724 10.9375 17.6921 10.5178 17.6921 10C17.6921 9.48223 17.2724 9.0625 16.7546 9.0625H11.4375V3.75Z" fill="white"/>
</svg>
