<svg width="20" height="20" viewBox="0 0 20 20" fill="none" xmlns="http://www.w3.org/2000/svg">
<g id="General/ico_faceId_24_bk_ios">
<g id="Group 2926">
<path id="Vector 48 (Stroke)" fill-rule="evenodd" clip-rule="evenodd" d="M6.55691 12.5538C6.74298 12.2631 7.1295 12.1782 7.42024 12.3643L7.50631 12.4194C9.06201 13.415 11.0594 13.396 12.5958 12.3708C12.8829 12.1792 13.271 12.2567 13.4626 12.5438C13.6542 12.8309 13.5767 13.219 13.2896 13.4106C11.3403 14.7112 8.80622 14.7354 6.83249 13.4722L6.74642 13.4171C6.45569 13.2311 6.37084 12.8445 6.55691 12.5538Z" fill="white"/>
<path id="Vector 47 (Stroke)" fill-rule="evenodd" clip-rule="evenodd" d="M9.83982 6.06301C10.1735 5.97457 10.5157 6.17336 10.6041 6.50701L11.2458 8.92805C11.4473 9.68837 11.1037 10.488 10.4134 10.865L9.4662 11.3823C9.16326 11.5478 8.78355 11.4363 8.6181 11.1334C8.45265 10.8305 8.5641 10.4507 8.86704 10.2853L9.8142 9.768C9.9994 9.66685 10.0916 9.45231 10.0375 9.24832L9.39582 6.82728C9.30738 6.49362 9.50617 6.15145 9.83982 6.06301Z" fill="white"/>
<path id="Vector 41 (Stroke)" fill-rule="evenodd" clip-rule="evenodd" d="M1.04163 3.33366C1.04163 2.06801 2.06764 1.04199 3.33329 1.04199H6.66663C7.0118 1.04199 7.29163 1.32181 7.29163 1.66699C7.29163 2.01217 7.0118 2.29199 6.66663 2.29199H3.33329C2.758 2.29199 2.29163 2.75836 2.29163 3.33366V6.66699C2.29163 7.01217 2.0118 7.29199 1.66663 7.29199C1.32145 7.29199 1.04163 7.01217 1.04163 6.66699V3.33366Z" fill="white"/>
<path id="Vector 42 (Stroke)" fill-rule="evenodd" clip-rule="evenodd" d="M3.33329 18.959C2.06764 18.959 1.04163 17.933 1.04163 16.6673L1.04163 13.334C1.04163 12.9888 1.32145 12.709 1.66663 12.709C2.0118 12.709 2.29163 12.9888 2.29163 13.334L2.29163 16.6673C2.29163 17.2426 2.758 17.709 3.33329 17.709H6.66663C7.0118 17.709 7.29163 17.9888 7.29163 18.334C7.29163 18.6792 7.0118 18.959 6.66663 18.959H3.33329Z" fill="white"/>
<path id="Vector 43 (Stroke)" fill-rule="evenodd" clip-rule="evenodd" d="M18.9583 16.6673C18.9583 17.933 17.9322 18.959 16.6666 18.959H13.3333C12.9881 18.959 12.7083 18.6792 12.7083 18.334C12.7083 17.9888 12.9881 17.709 13.3333 17.709H16.6666C17.2419 17.709 17.7083 17.2426 17.7083 16.6673V13.334C17.7083 12.9888 17.9881 12.709 18.3333 12.709C18.6784 12.709 18.9583 12.9888 18.9583 13.334V16.6673Z" fill="white"/>
<path id="Vector 44 (Stroke)" fill-rule="evenodd" clip-rule="evenodd" d="M16.6666 1.04199C17.9322 1.04199 18.9583 2.06801 18.9583 3.33366V6.66699C18.9583 7.01217 18.6784 7.29199 18.3333 7.29199C17.9881 7.29199 17.7083 7.01217 17.7083 6.66699V3.33366C17.7083 2.75836 17.2419 2.29199 16.6666 2.29199L13.3333 2.29199C12.9881 2.29199 12.7083 2.01217 12.7083 1.66699C12.7083 1.32181 12.9881 1.04199 13.3333 1.04199L16.6666 1.04199Z" fill="white"/>
<path id="Vector 45 (Stroke)" fill-rule="evenodd" clip-rule="evenodd" d="M13.3333 5.50781C13.6784 5.50781 13.9583 5.78763 13.9583 6.13281V7.68229C13.9583 8.02747 13.6784 8.30729 13.3333 8.30729C12.9881 8.30729 12.7083 8.02747 12.7083 7.68229V6.13281C12.7083 5.78763 12.9881 5.50781 13.3333 5.50781Z" fill="white"/>
<path id="Vector 46 (Stroke)" fill-rule="evenodd" clip-rule="evenodd" d="M6.66663 5.50781C7.0118 5.50781 7.29163 5.78763 7.29163 6.13281V7.68229C7.29163 8.02747 7.0118 8.30729 6.66663 8.30729C6.32145 8.30729 6.04163 8.02747 6.04163 7.68229V6.13281C6.04163 5.78763 6.32145 5.50781 6.66663 5.50781Z" fill="white"/>
</g>
</g>
</svg>
