<svg width="16" height="16" viewBox="0 0 16 16" fill="none" xmlns="http://www.w3.org/2000/svg">
<g id="General/ico_memo" clip-path="url(#clip0_1298_12459)">
<path id="Vector" fill-rule="evenodd" clip-rule="evenodd" d="M7.96167 0.833252H8.99967C9.13228 0.833252 9.25946 0.88593 9.35323 0.979699C9.447 1.07347 9.49967 1.20064 9.49967 1.33325C9.49967 1.46586 9.447 1.59304 9.35323 1.68681C9.25946 1.78057 9.13228 1.83325 8.99967 1.83325H7.99967C6.41434 1.83325 5.27567 1.83459 4.40901 1.95059C3.55634 2.06525 3.04234 2.28392 2.66234 2.66325C2.28301 3.04325 2.06501 3.55659 1.95034 4.40925C1.83434 5.27592 1.83301 6.41459 1.83301 7.99992C1.83301 9.58525 1.83434 10.7239 1.95034 11.5906C2.06501 12.4433 2.28367 12.9573 2.66301 13.3373C3.04301 13.7166 3.55634 13.9346 4.40901 14.0493C5.27567 14.1653 6.41434 14.1666 7.99967 14.1666C9.58501 14.1666 10.7237 14.1653 11.5903 14.0493C12.443 13.9346 12.957 13.7159 13.337 13.3366C13.7163 12.9566 13.9343 12.4433 14.049 11.5906C14.165 10.7239 14.1663 9.58525 14.1663 7.99992V6.99992C14.1663 6.86731 14.219 6.74013 14.3128 6.64637C14.4066 6.5526 14.5337 6.49992 14.6663 6.49992C14.7989 6.49992 14.9261 6.5526 15.0199 6.64637C15.1137 6.74013 15.1663 6.86731 15.1663 6.99992V8.03792C15.1663 9.57725 15.1663 10.7833 15.0397 11.7246C14.9103 12.6873 14.6397 13.4473 14.0437 14.0439C13.447 14.6406 12.687 14.9106 11.7237 15.0399C10.783 15.1666 9.57701 15.1666 8.03767 15.1666H7.96167C6.42234 15.1666 5.21634 15.1666 4.27501 15.0399C3.31234 14.9106 2.55234 14.6399 1.95567 14.0439C1.35901 13.4473 1.08901 12.6873 0.959675 11.7239C0.833008 10.7833 0.833008 9.57725 0.833008 8.03792V7.96192C0.833008 6.42259 0.833008 5.21659 0.959675 4.27525C1.08901 3.31259 1.35967 2.55259 1.95567 1.95592C2.55234 1.35925 3.31234 1.08925 4.27567 0.959919C5.21634 0.833252 6.42234 0.833252 7.96167 0.833252ZM11.1797 1.51725C11.6196 1.08942 12.2103 0.85195 12.824 0.856204C13.4376 0.860458 14.025 1.10609 14.4589 1.53998C14.8929 1.97388 15.1387 2.56116 15.1431 3.17482C15.1474 3.78849 14.9101 4.37921 14.4823 4.81925L10.0503 9.25192C9.80301 9.49859 9.64767 9.65459 9.47501 9.78925C9.27122 9.94848 9.05056 10.0849 8.81701 10.1959C8.61901 10.2899 8.41034 10.3593 8.07901 10.4699L6.14234 11.1153C5.96713 11.1736 5.77912 11.182 5.59939 11.1396C5.41966 11.0971 5.2553 11.0055 5.12471 10.8749C4.99413 10.7443 4.90247 10.5799 4.86002 10.4002C4.81757 10.2205 4.82599 10.0325 4.88434 9.85725L5.52967 7.92059C5.64034 7.58859 5.70967 7.38059 5.80367 7.18259C5.91567 6.94881 6.05123 6.72947 6.21034 6.52459C6.34501 6.35125 6.50034 6.19659 6.74767 5.94925L11.1797 1.51725ZM13.775 2.22392C13.5246 1.97363 13.1851 1.83303 12.831 1.83303C12.477 1.83303 12.1374 1.97363 11.887 2.22392L11.6363 2.47525C11.6506 2.5397 11.6723 2.61481 11.7017 2.70059C11.797 2.97592 11.9783 3.33859 12.3197 3.67992C12.6521 4.01243 13.0684 4.24858 13.5243 4.36325L13.775 4.11259C14.0253 3.86218 14.1659 3.52263 14.1659 3.16859C14.1659 2.81454 14.0253 2.47432 13.775 2.22392ZM12.7363 5.15192C12.3166 4.97093 11.9351 4.71164 11.6123 4.38792C11.2886 4.06516 11.0293 3.68369 10.8483 3.26392L7.47834 6.63325C7.20034 6.91125 7.09167 7.02125 6.99834 7.13992C6.88501 7.28712 6.78737 7.44576 6.70701 7.61325C6.64167 7.74859 6.59234 7.89525 6.46767 8.26792L6.18034 9.13125L6.86834 9.81992L7.73167 9.53192C8.10501 9.40725 8.25101 9.35792 8.38701 9.29325C8.55501 9.21325 8.71279 9.1157 8.86034 9.00059C8.97834 8.90792 9.08834 8.79925 9.36634 8.52192L12.7363 5.15192Z" fill="#A4A9AE"/>
</g>
<defs>
<clipPath id="clip0_1298_12459">
<rect width="16" height="16" fill="white"/>
</clipPath>
</defs>
</svg>
