<svg width="16" height="16" viewBox="0 0 16 16" fill="none" xmlns="http://www.w3.org/2000/svg">
<g id="Arrow/ico_dropdown_16_gr">
<path id="Vector" d="M3.14604 6.14598C3.19248 6.09941 3.24766 6.06247 3.30841 6.03727C3.36915 6.01206 3.43427 5.99908 3.50004 5.99908C3.56581 5.99908 3.63093 6.01206 3.69167 6.03727C3.75242 6.06247 3.80759 6.09941 3.85404 6.14598L8.00004 10.293L12.146 6.14598C12.2399 6.05209 12.3673 5.99935 12.5 5.99935C12.6328 5.99935 12.7602 6.05209 12.854 6.14598C12.9479 6.23986 13.0007 6.3672 13.0007 6.49998C13.0007 6.63275 12.9479 6.76009 12.854 6.85398L8.35404 11.354C8.30759 11.4005 8.25242 11.4375 8.19167 11.4627C8.13093 11.4879 8.06581 11.5009 8.00004 11.5009C7.93427 11.5009 7.86915 11.4879 7.80841 11.4627C7.74766 11.4375 7.69248 11.4005 7.64604 11.354L3.14604 6.85398C3.09948 6.80753 3.06253 6.75236 3.03733 6.69161C3.01212 6.63087 2.99915 6.56575 2.99915 6.49998C2.99915 6.43421 3.01212 6.36909 3.03733 6.30834C3.06253 6.2476 3.09948 6.19242 3.14604 6.14598Z" fill="#A4A9AE"/>
</g>
</svg>
