<svg width="28" height="28" viewBox="0 0 28 28" fill="none" xmlns="http://www.w3.org/2000/svg">
<path d="M24.5815 6.10019C24.82 6.35363 24.9481 6.69142 24.9375 7.03929C24.927 7.38715 24.7788 7.7166 24.5255 7.95519L10.648 21.0347C10.3651 21.3011 9.98914 21.4462 9.60061 21.439C9.21208 21.4318 8.84179 21.2729 8.56896 20.9962L3.87896 16.2362C3.75476 16.1142 3.65609 15.9686 3.58868 15.8081C3.52127 15.6476 3.48648 15.4752 3.48633 15.3011C3.48618 15.127 3.52067 14.9546 3.5878 14.7939C3.65493 14.6333 3.75335 14.4876 3.87734 14.3654C4.00132 14.2431 4.14839 14.1468 4.30997 14.0819C4.47156 14.0171 4.64443 13.985 4.81853 13.9876C4.99262 13.9902 5.16446 14.0275 5.32402 14.0971C5.48359 14.1668 5.6277 14.2675 5.74796 14.3934L9.65746 18.3607L22.7265 6.04419C22.9799 5.80568 23.3177 5.6776 23.6656 5.6881C24.0134 5.6986 24.3429 5.84683 24.5815 6.10019Z" fill="#2589F4"/>
</svg>
