<svg xmlns="http://www.w3.org/2000/svg" width="24" height="24" viewBox="0 0 24 24" fill="none">
  <path d="M12 14C13.1046 14 14 13.1046 14 12C14 10.8954 13.1046 10 12 10C10.8954 10 10 10.8954 10 12C10 13.1046 10.8954 14 12 14Z" stroke="#0C0C0D" stroke-opacity="0.88" stroke-width="1.5"/>
  <path d="M13.3104 4.614C13.038 4.5 12.692 4.5 12 4.5C11.308 4.5 10.962 4.5 10.6896 4.614C10.5093 4.68938 10.3455 4.79992 10.2075 4.93929C10.0695 5.07866 9.96012 5.24414 9.88549 5.42625C9.81718 5.5935 9.78971 5.78925 9.77932 6.0735C9.77448 6.27895 9.71814 6.4798 9.61556 6.65727C9.51298 6.83473 9.36752 6.98302 9.19278 7.08825C9.01519 7.18858 8.8153 7.24175 8.61183 7.2428C8.40836 7.24385 8.20795 7.19274 8.02935 7.09425C7.77989 6.96075 7.59947 6.88725 7.42054 6.86325C7.03025 6.8114 6.63554 6.91823 6.32319 7.16025C6.09006 7.3425 5.91633 7.64475 5.57034 8.25C5.22436 8.85525 5.05062 9.1575 5.01276 9.45375C4.98724 9.64909 5.00008 9.84759 5.05053 10.0379C5.10097 10.2282 5.18805 10.4067 5.30677 10.563C5.41665 10.707 5.57034 10.8277 5.80867 10.9792C6.15985 11.202 6.38556 11.5815 6.38556 12C6.38556 12.4185 6.15985 12.798 5.80867 13.02C5.57034 13.1722 5.41591 13.293 5.30677 13.437C5.18805 13.5933 5.10097 13.7718 5.05053 13.9621C5.00008 14.1524 4.98724 14.3509 5.01276 14.5463C5.05137 14.8418 5.22436 15.1448 5.5696 15.75C5.91633 16.3552 6.08932 16.6575 6.32319 16.8397C6.47795 16.9597 6.65457 17.0476 6.84299 17.0986C7.0314 17.1496 7.22791 17.1625 7.42128 17.1368C7.59947 17.1128 7.77989 17.0393 8.02935 16.9058C8.20795 16.8073 8.40836 16.7561 8.61183 16.7572C8.8153 16.7582 9.01519 16.8114 9.19278 16.9117C9.55138 17.1217 9.76447 17.508 9.77932 17.9265C9.78971 18.2115 9.81644 18.4065 9.88549 18.5737C9.96012 18.7559 10.0695 18.9213 10.2075 19.0607C10.3455 19.2001 10.5093 19.3106 10.6896 19.386C10.962 19.5 11.308 19.5 12 19.5C12.692 19.5 13.038 19.5 13.3104 19.386C13.4907 19.3106 13.6545 19.2001 13.7925 19.0607C13.9305 18.9213 14.0399 18.7559 14.1145 18.5737C14.1828 18.4065 14.2103 18.2115 14.2207 17.9265C14.2355 17.508 14.4486 17.121 14.8072 16.9117C14.9848 16.8114 15.1847 16.7582 15.3882 16.7572C15.5916 16.7561 15.7921 16.8073 15.9706 16.9058C16.2201 17.0393 16.4005 17.1128 16.5787 17.1368C16.7721 17.1625 16.9686 17.1496 17.157 17.0986C17.3454 17.0476 17.5221 16.9597 17.6768 16.8397C17.9107 16.6582 18.0837 16.3552 18.4297 15.75C18.7756 15.1448 18.9494 14.8425 18.9872 14.5463C19.0128 14.3509 18.9999 14.1524 18.9495 13.9621C18.899 13.7718 18.812 13.5933 18.6932 13.437C18.5833 13.293 18.4297 13.1723 18.1913 13.0208C18.0175 12.9138 17.8735 12.7641 17.7726 12.5855C17.6717 12.407 17.6173 12.2055 17.6144 12C17.6144 11.5815 17.8401 11.202 18.1913 10.98C18.4297 10.8278 18.5841 10.707 18.6932 10.563C18.812 10.4067 18.899 10.2282 18.9495 10.0379C18.9999 9.84759 19.0128 9.64909 18.9872 9.45375C18.9486 9.15825 18.7756 8.85525 18.4304 8.25C18.0837 7.64475 17.9107 7.3425 17.6768 7.16025C17.5221 7.04032 17.3454 6.95236 17.157 6.9014C16.9686 6.85044 16.7721 6.83748 16.5787 6.86325C16.4005 6.88725 16.2201 6.96075 15.9699 7.09425C15.7914 7.19261 15.5911 7.24365 15.3878 7.2426C15.1845 7.24155 14.9847 7.18844 14.8072 7.08825C14.6325 6.98302 14.487 6.83473 14.3844 6.65727C14.2819 6.4798 14.2255 6.27895 14.2207 6.0735C14.2103 5.7885 14.1836 5.5935 14.1145 5.42625C14.0399 5.24414 13.9305 5.07866 13.7925 4.93929C13.6545 4.79992 13.4907 4.68938 13.3104 4.614Z" stroke="#0C0C0D" stroke-opacity="0.88" stroke-width="1.5"/>
</svg>