<svg width="21" height="20" viewBox="0 0 21 20" fill="none" xmlns="http://www.w3.org/2000/svg">
<path fill-rule="evenodd" clip-rule="evenodd" d="M4.58301 9.07116C4.58301 6.32653 6.80797 4.10156 9.5526 4.10156C12.2972 4.10156 14.5222 6.32653 14.5222 9.07116C14.5222 11.8158 12.2972 14.0408 9.5526 14.0408C6.80797 14.0408 4.58301 11.8158 4.58301 9.07116ZM9.5526 2.10156C5.7034 2.10156 2.58301 5.22196 2.58301 9.07116C2.58301 12.9204 5.7034 16.0408 9.5526 16.0408C11.1488 16.0408 12.6197 15.5042 13.7946 14.6016L16.6955 17.5991C17.0795 17.9959 17.7126 18.0063 18.1095 17.6222C18.5064 17.2382 18.5167 16.6051 18.1327 16.2082L15.1911 13.1686C16.0283 12.0186 16.5222 10.6025 16.5222 9.07116C16.5222 5.22196 13.4018 2.10156 9.5526 2.10156Z" fill="white"/>
</svg>
