<svg width="20" height="20" viewBox="0 0 20 20" fill="none" xmlns="http://www.w3.org/2000/svg">
<g clip-path="url(#clip0_1086_6412)">
<path d="M10.5029 17.8124C12.5741 17.8124 14.5605 16.9896 16.0251 15.5251C17.4897 14.0605 18.3125 12.0741 18.3125 10.0029C18.3125 7.93167 17.4897 5.94529 16.0251 4.48072C14.5605 3.01615 12.5741 2.19336 10.5029 2.19336" stroke="#1E1E1E" stroke-width="1.5" stroke-linecap="round"/>
<path d="M2.69336 10.0028H12.4553M12.4553 10.0028L9.52669 7.07422M12.4553 10.0028L9.52669 12.9314" stroke="#1E1E1E" stroke-width="1.5" stroke-linecap="round" stroke-linejoin="round"/>
<path fill-rule="evenodd" clip-rule="evenodd" d="M9.76807 2.19015C9.76807 1.7858 10.0959 1.45801 10.5002 1.45801C12.7656 1.45801 14.9382 2.35793 16.5401 3.9598C18.142 5.56168 19.0419 7.73428 19.0419 9.99967C19.0419 12.2651 18.142 14.4377 16.5401 16.0395C14.9382 17.6414 12.7656 18.5413 10.5002 18.5413C10.0959 18.5413 9.76807 18.2135 9.76807 17.8092C9.76807 17.4048 10.0959 17.0771 10.5002 17.0771C12.3772 17.0771 14.1774 16.3314 15.5047 15.0041C16.8319 13.6769 17.5776 11.8767 17.5776 9.99967C17.5776 8.12264 16.8319 6.32248 15.5047 4.99521C14.1774 3.66794 12.3772 2.92229 10.5002 2.92229C10.0959 2.92229 9.76807 2.5945 9.76807 2.19015Z" fill="white"/>
<path fill-rule="evenodd" clip-rule="evenodd" d="M9.00627 6.55331C9.29219 6.26739 9.75576 6.26739 10.0417 6.55331L12.9702 9.48188C13.2562 9.7678 13.2562 10.2314 12.9702 10.5173L10.0417 13.4459C9.75576 13.7318 9.29219 13.7318 9.00627 13.4459C8.72035 13.1599 8.72035 12.6964 9.00627 12.4104L10.685 10.7317H2.69064C2.28629 10.7317 1.9585 10.4039 1.9585 9.99958C1.9585 9.59523 2.28629 9.26744 2.69064 9.26744H10.685L9.00627 7.58871C8.72035 7.30279 8.72035 6.83923 9.00627 6.55331Z" fill="white"/>
</g>
<defs>
<clipPath id="clip0_1086_6412">
<rect width="20" height="20" fill="white" transform="translate(0.5)"/>
</clipPath>
</defs>
</svg>
