<svg width="30" height="30" viewBox="0 0 30 30" fill="none" xmlns="http://www.w3.org/2000/svg">
<g id="ico_user_26">
<rect width="30" height="30" rx="9.23077" fill="#EAF4FF"/>
<g id="Group 3019">
<path id="Union" fill-rule="evenodd" clip-rule="evenodd" d="M12.9149 11.4928C12.9149 10.34 13.8495 9.40547 15.0023 9.40547C16.1551 9.40547 17.0896 10.34 17.0896 11.4928C17.0896 12.6456 16.1551 13.5801 15.0023 13.5801C13.8495 13.5801 12.9149 12.6456 12.9149 11.4928ZM15.0023 7.10547C12.5792 7.10547 10.6149 9.06974 10.6149 11.4928C10.6149 12.6594 11.0703 13.7197 11.813 14.5056C11.1178 14.6806 10.4761 14.913 9.91012 15.196C8.61596 15.8431 7.37856 16.9497 7.37856 18.514L7.37837 18.6127C7.37608 19.4401 7.37232 20.8004 8.66364 21.735C9.26452 22.1699 10.0612 22.4498 11.0565 22.6288C12.0605 22.8094 13.3496 22.9013 15.0032 22.9013C16.6568 22.9013 17.9459 22.8094 18.9499 22.6288C19.9452 22.4498 20.7419 22.1699 21.3428 21.735C22.6341 20.8004 22.6303 19.4401 22.628 18.6127L22.6278 18.514C22.6278 16.9497 21.3904 15.8431 20.0963 15.196C19.5299 14.9128 18.8876 14.6803 18.1919 14.5052C18.9344 13.7194 19.3896 12.6592 19.3896 11.4928C19.3896 9.06974 17.4253 7.10547 15.0023 7.10547ZM9.67856 18.514C9.67856 18.2896 9.88986 17.7776 10.9387 17.2532C11.9191 16.763 13.3543 16.4266 15.0032 16.4266C16.6521 16.4266 18.0873 16.763 19.0677 17.2532C20.1165 17.7776 20.3278 18.2896 20.3278 18.514C20.3278 19.4884 20.2688 19.6731 19.9943 19.8718C19.7858 20.0226 19.3685 20.2166 18.5428 20.3651C17.7258 20.5121 16.5869 20.6013 15.0032 20.6013C13.4195 20.6013 12.2806 20.5121 11.4636 20.3651C10.6379 20.2166 10.2206 20.0226 10.0121 19.8718C9.73761 19.6731 9.67856 19.4884 9.67856 18.514Z" fill="#0871F3" fill-opacity="0.8"/>
</g>
</g>
</svg>
