<svg width="16" height="16" viewBox="0 0 16 16" fill="none" xmlns="http://www.w3.org/2000/svg">
<g id="fluent:edit-16-regular">
<path id="Vector" d="M14.236 1.76399C13.9927 1.52044 13.7037 1.32722 13.3857 1.1954C13.0677 1.06358 12.7268 0.995728 12.3825 0.995728C12.0382 0.995728 11.6973 1.06358 11.3793 1.1954C11.0613 1.32722 10.7723 1.52044 10.529 1.76399L2.657 9.63599C2.28333 10.0102 2.01675 10.4778 1.885 10.99L1.015 14.376C0.993425 14.4602 0.994198 14.5487 1.01724 14.6325C1.04028 14.7164 1.0848 14.7928 1.1464 14.8542C1.20799 14.9156 1.28454 14.9598 1.36847 14.9826C1.4524 15.0054 1.54082 15.0058 1.625 14.984L5.01 14.115C5.52238 13.9837 5.99004 13.7171 6.364 13.343L14.236 5.47099C14.4796 5.22767 14.6728 4.93873 14.8046 4.62069C14.9364 4.30266 15.0043 3.96176 15.0043 3.61749C15.0043 3.27322 14.9364 2.93232 14.8046 2.61428C14.6728 2.29625 14.4796 2.00731 14.236 1.76399ZM11.236 2.47099C11.5401 2.16692 11.9525 1.99609 12.3825 1.99609C12.8125 1.99609 13.2249 2.16692 13.529 2.47099C13.8331 2.77506 14.0039 3.18747 14.0039 3.61749C14.0039 4.04751 13.8331 4.45992 13.529 4.76399L12.75 5.54299L10.457 3.24999L11.236 2.47099ZM9.75 3.95699L12.043 6.24999L5.657 12.636C5.4095 12.8833 5.10001 13.0595 4.761 13.146L2.194 13.806L2.854 11.239C2.94008 10.8998 3.1163 10.5902 3.364 10.343L9.75 3.95699Z" fill="#989FA7"/>
</g>
</svg>
