<svg width="21" height="20" viewBox="0 0 21 20" fill="none" xmlns="http://www.w3.org/2000/svg">
<path d="M10.8276 1.00242C10.6712 0.937761 10.4991 0.920927 10.333 0.954049C10.167 0.987172 10.0146 1.06876 9.89489 1.18852L5.0428 6.0406C4.89156 6.20292 4.80921 6.41761 4.81313 6.63943C4.81704 6.86126 4.90691 7.07291 5.06379 7.22979C5.22067 7.38667 5.43231 7.47653 5.65414 7.48045C5.87597 7.48436 6.09066 7.40202 6.25297 7.25077L9.64373 3.86002V12.6394C9.64373 12.8665 9.73394 13.0843 9.89452 13.2449C10.0551 13.4055 10.2729 13.4957 10.5 13.4957C10.7271 13.4957 10.9449 13.4055 11.1054 13.2449C11.266 13.0843 11.3562 12.8665 11.3562 12.6394V3.86002L14.747 7.25077C14.8254 7.3349 14.9199 7.40237 15.0249 7.44917C15.13 7.49597 15.2434 7.52114 15.3583 7.52316C15.4733 7.52519 15.5875 7.50404 15.6941 7.46098C15.8007 7.41791 15.8976 7.35382 15.9789 7.27251C16.0602 7.1912 16.1243 7.09435 16.1674 6.98773C16.2104 6.88111 16.2316 6.76691 16.2295 6.65194C16.2275 6.53697 16.2023 6.42359 16.1556 6.31856C16.1088 6.21352 16.0413 6.11899 15.9571 6.0406L11.1051 1.18852C11.0248 1.10996 10.9308 1.04687 10.8276 1.00242ZM3.36455 8.92902C3.59164 8.92902 3.80943 9.01924 3.97001 9.17981C4.13059 9.34039 4.2208 9.55818 4.2208 9.78527V14.3519C4.2208 15.4548 5.11587 16.3499 6.21872 16.3499H14.7812C15.3111 16.3499 15.8193 16.1394 16.194 15.7647C16.5687 15.39 16.7792 14.8818 16.7792 14.3519V9.78527C16.7792 9.55818 16.8694 9.34039 17.0299 9.17981C17.1905 9.01924 17.4083 8.92902 17.6354 8.92902C17.8625 8.92902 18.0803 9.01924 18.2409 9.17981C18.4014 9.34039 18.4917 9.55818 18.4917 9.78527V14.3519C18.4917 15.336 18.1007 16.2798 17.4049 16.9756C16.7091 17.6714 15.7653 18.0624 14.7812 18.0624H6.21872C5.23466 18.0624 4.2909 17.6714 3.59506 16.9756C2.89922 16.2798 2.5083 15.336 2.5083 14.3519V9.78527C2.5083 9.55818 2.59851 9.34039 2.75909 9.17981C2.91967 9.01924 3.13746 8.92902 3.36455 8.92902Z" fill="white"/>
</svg>
