<svg width="18" height="18" viewBox="0 0 18 18" fill="none" xmlns="http://www.w3.org/2000/svg">
<g id="solar:volume-loud-linear">
<path id="Vector" d="M0.90865 8.29122C0.960501 7.43318 0.986783 7.00345 1.20982 6.59076C1.43578 6.19102 1.77752 5.86909 2.19003 5.66737C2.61692 5.47062 3.1049 5.47062 4.08014 5.47062C4.44381 5.47062 4.62565 5.47062 4.8018 5.44079C4.97603 5.41128 5.14591 5.36022 5.30754 5.28878C5.47091 5.21704 5.62291 5.11689 5.92621 4.91659L6.08247 4.8143C7.88735 3.62313 8.79085 3.02719 9.54945 3.28645C9.69506 3.33617 9.8357 3.4072 9.96142 3.49599C10.6163 3.95626 10.6667 5.0281 10.7662 7.17108C10.7986 7.78764 10.8192 8.40477 10.828 9.02212C10.828 9.4 10.8031 10.079 10.7662 10.8724C10.6667 13.0161 10.617 14.0873 9.96142 14.5482C9.83472 14.6373 9.69601 14.7078 9.54945 14.7578C8.79156 15.0163 7.88806 14.4211 6.08176 13.2299L5.92692 13.1277C5.62362 12.9273 5.47233 12.8272 5.30825 12.7547C5.14659 12.6835 4.97671 12.6327 4.80251 12.6034C4.62565 12.5736 4.44381 12.5736 4.08014 12.5736C3.10419 12.5736 2.61692 12.5736 2.19074 12.3769C1.77797 12.1753 1.43597 11.8533 1.20982 11.4535C0.986783 11.0401 0.961212 10.6111 0.90865 9.75231C0.892999 9.50922 0.884709 9.26571 0.883789 9.02212C0.883789 8.79269 0.893023 8.54551 0.90865 8.29122Z" stroke="#495057" stroke-width="1.54286"/>
<path id="Vector 63" d="M16.1904 5.46094C16.499 5.77959 17.116 6.90423 17.116 8.85361C17.116 10.803 16.499 12.1338 16.1904 12.5556" stroke="#495057" stroke-width="1.54286" stroke-linecap="round"/>
<path id="Vector 64" d="M13.8311 6.85938C14.0181 7.05258 14.3923 7.7345 14.3923 8.91649C14.3923 10.0985 14.0181 10.9054 13.8311 11.1611" stroke="#495057" stroke-width="1.54286" stroke-linecap="round"/>
</g>
</svg>
