<svg width="20" height="20" viewBox="0 0 20 20" fill="none" xmlns="http://www.w3.org/2000/svg">
<path fill-rule="evenodd" clip-rule="evenodd" d="M10 17.6C14.1974 17.6 17.6 14.1974 17.6 10C17.6 5.80264 14.1974 2.4 10 2.4C5.80264 2.4 2.4 5.80264 2.4 10C2.4 14.1974 5.80264 17.6 10 17.6ZM10 19C14.9706 19 19 14.9706 19 10C19 5.02944 14.9706 1 10 1C5.02944 1 1 5.02944 1 10C1 14.9706 5.02944 19 10 19Z" fill="#CFD4D9"/>
<path d="M10 5.19531C9.20435 5.19531 8.44129 5.51138 7.87868 6.07399C7.31607 6.6366 7 7.39966 7 8.19531C7 8.35444 7.06321 8.50705 7.17574 8.61958C7.28826 8.7321 7.44087 8.79531 7.6 8.79531C7.75913 8.79531 7.91174 8.7321 8.02426 8.61958C8.13679 8.50705 8.2 8.35444 8.2 8.19531C8.2 7.20051 9.0052 6.39531 10 6.39531C10.9948 6.39531 11.8 7.20051 11.8 8.19531C11.8 8.68491 11.6806 8.97171 11.5372 9.17271C11.38 9.39171 11.1622 9.55551 10.8604 9.76371L10.7908 9.81051C10.5226 9.99411 10.177 10.2299 9.9094 10.5587C9.5932 10.9475 9.4 11.4389 9.4 12.0953V12.3953C9.4 12.5544 9.46321 12.7071 9.57574 12.8196C9.68826 12.9321 9.84087 12.9953 10 12.9953C10.1591 12.9953 10.3117 12.9321 10.4243 12.8196C10.5368 12.7071 10.6 12.5544 10.6 12.3953V12.0953C10.6 11.7017 10.7068 11.4809 10.84 11.3159C10.9942 11.1275 11.2018 10.9847 11.5084 10.7741L11.5402 10.7519C11.8378 10.5479 12.22 10.2803 12.5122 9.87111C12.82 9.44391 13 8.90511 13 8.19531C13 7.39966 12.6839 6.6366 12.1213 6.07399C11.5587 5.51138 10.7957 5.19531 10 5.19531ZM10 15.5453C10.1989 15.5453 10.3897 15.4663 10.5303 15.3256C10.671 15.185 10.75 14.9942 10.75 14.7953C10.75 14.5964 10.671 14.4056 10.5303 14.265C10.3897 14.1243 10.1989 14.0453 10 14.0453C9.80109 14.0453 9.61032 14.1243 9.46967 14.265C9.32902 14.4056 9.25 14.5964 9.25 14.7953C9.25 14.9942 9.32902 15.185 9.46967 15.3256C9.61032 15.4663 9.80109 15.5453 10 15.5453Z" fill="#CFD4D9"/>
</svg>
