<svg xmlns="http://www.w3.org/2000/svg" width="16" height="16" viewBox="0 0 16 16" fill="none">
  <g clip-path="url(#clip0_15331_2506)">
    <path d="M8.00065 15.2916C12.0277 15.2916 15.2923 12.0271 15.2923 7.99998C15.2923 3.9729 12.0277 0.708313 8.00065 0.708313C3.97357 0.708313 0.708984 3.9729 0.708984 7.99998C0.708984 12.0271 3.97357 15.2916 8.00065 15.2916Z" stroke="#1AA3C1" stroke-width="1.3125"/>
    <path d="M6.32031 5.79534C6.32035 5.54291 6.39782 5.29492 6.54496 5.07618C6.69211 4.85743 6.90377 4.67561 7.15877 4.54889C7.41377 4.42218 7.70317 4.35502 7.998 4.35413C8.29284 4.35325 8.58278 4.41867 8.83881 4.54385C9.09484 4.66903 9.30799 4.84958 9.45692 5.06744C9.60585 5.28529 9.68535 5.53281 9.68746 5.78523C9.68956 6.03765 9.61421 6.28612 9.46893 6.50578C9.32365 6.72543 9.11354 6.90857 8.85962 7.03687C8.43311 7.25289 8.00391 7.58115 8.00391 8.0055V8.96643" stroke="#1AA3C1" stroke-width="1.3125" stroke-linecap="round"/>
    <path d="M7.99727 12.0427C8.42183 12.0427 8.76602 11.6985 8.76602 11.2739C8.76602 10.8494 8.42183 10.5052 7.99727 10.5052C7.5727 10.5052 7.22852 10.8494 7.22852 11.2739C7.22852 11.6985 7.5727 12.0427 7.99727 12.0427Z" fill="#1AA3C1"/>
  </g>
  <defs>
    <clipPath id="clip0_15331_2506">
      <rect width="16" height="16" fill="white"/>
    </clipPath>
  </defs>
</svg>