<svg width="22" height="22" viewBox="0 0 22 22" fill="none" xmlns="http://www.w3.org/2000/svg">
<g id="solar:home-2-linear" clip-path="url(#clip0_6073_80486)">
<g id="Group">
<path id="Vector" d="M1.83594 11.1896C1.83594 9.09135 1.83594 8.04269 2.3126 7.17369C2.78744 6.30377 3.65735 5.76477 5.39627 4.68494L7.2296 3.54735C9.06752 2.4061 9.98694 1.83594 11.0026 1.83594C12.0183 1.83594 12.9368 2.4061 14.7756 3.54735L16.6089 4.68494C18.3479 5.76477 19.2178 6.30377 19.6935 7.17369C20.1693 8.0436 20.1693 9.09135 20.1693 11.1887V12.5839C20.1693 16.1589 20.1693 17.9473 19.0949 19.0583C18.0206 20.1693 16.2927 20.1693 12.8359 20.1693H9.16927C5.71252 20.1693 3.98369 20.1693 2.91027 19.0583C1.83685 17.9473 1.83594 16.1598 1.83594 12.5839V11.1896Z" stroke="#0C0C0D" stroke-opacity="0.88" stroke-width="2"/>
<path id="Vector_2" d="M11.0078 13.7578V16.5078" stroke="#0C0C0D" stroke-opacity="0.88" stroke-width="2" stroke-linecap="round"/>
</g>
</g>
<defs>
<clipPath id="clip0_6073_80486">
<rect width="22" height="22" fill="white"/>
</clipPath>
</defs>
</svg>
