<svg width="24" height="24" viewBox="0 0 24 24" fill="none" xmlns="http://www.w3.org/2000/svg">
<g id="Header/ico_back_24_bk">
<path id="Vector" d="M15.53 4.22001C15.6704 4.36064 15.7493 4.55126 15.7493 4.75001C15.7493 4.94876 15.6704 5.13939 15.53 5.28001L8.81 12L15.53 18.72C15.6037 18.7887 15.6628 18.8715 15.7038 18.9635C15.7448 19.0555 15.7668 19.1548 15.7686 19.2555C15.7704 19.3562 15.7518 19.4562 15.7141 19.5496C15.6764 19.643 15.6203 19.7278 15.549 19.799C15.4778 19.8703 15.393 19.9264 15.2996 19.9641C15.2062 20.0019 15.1062 20.0204 15.0055 20.0186C14.9048 20.0168 14.8055 19.9948 14.7135 19.9538C14.6215 19.9128 14.5387 19.8537 14.47 19.78L7.22 12.53C7.07955 12.3894 7.00066 12.1988 7.00066 12C7.00066 11.8013 7.07955 11.6106 7.22 11.47L14.47 4.22001C14.6106 4.07956 14.8012 4.00067 15 4.00067C15.1987 4.00067 15.3894 4.07956 15.53 4.22001Z" fill="#0C0C0D" fill-opacity="0.88"/>
</g>
</svg>
