<svg width="24" height="24" viewBox="0 0 24 24" fill="none" xmlns="http://www.w3.org/2000/svg">
<g id="General/ico_close_24_bk">
<path id="Vector" d="M5.8147 5.56439C5.94286 5.43624 6.11309 5.35884 6.2939 5.34649C6.47472 5.33414 6.65389 5.38768 6.79828 5.49722L6.87536 5.56439L12.0026 10.6902L17.1312 5.56156C17.2656 5.42724 17.446 5.34894 17.6359 5.34249C17.8259 5.33604 18.0111 5.40192 18.1544 5.52681C18.2976 5.65171 18.388 5.82631 18.4075 6.01534C18.4269 6.20436 18.3739 6.39372 18.2591 6.54515L18.1919 6.62222L13.0632 11.7509L18.1912 16.876C18.3253 17.0105 18.4033 17.1909 18.4096 17.3807C18.4158 17.5706 18.3498 17.7557 18.2249 17.8988C18.1 18.0418 17.9254 18.1322 17.7365 18.1515C17.5475 18.1709 17.3583 18.1179 17.2069 18.0031L17.1298 17.9359L12.0026 12.8115L6.87677 17.9373C6.74236 18.0717 6.56198 18.15 6.37206 18.1564C6.18215 18.1629 5.99687 18.097 5.85365 17.9721C5.71044 17.8472 5.61998 17.6726 5.60054 17.4836C5.5811 17.2945 5.63414 17.1052 5.74894 16.9538L5.81611 16.8767L10.9426 11.7502L5.8147 6.62505C5.67405 6.4844 5.59503 6.29363 5.59503 6.09472C5.59503 5.89581 5.67405 5.70504 5.8147 5.56439Z" fill="#222236" fill-opacity="0.88"/>
</g>
</svg>
