<svg width="12" height="12" viewBox="0 0 12 12" fill="none" xmlns="http://www.w3.org/2000/svg">
<g id="General/ico_close_12_bk">
<path id="Vector" d="M3.27483 2.31802C3.18106 2.22425 3.05388 2.17157 2.92128 2.17157C2.78867 2.17157 2.66149 2.22425 2.56772 2.31802C2.47395 2.41179 2.42128 2.53896 2.42128 2.67157C2.42128 2.80418 2.47395 2.93136 2.56772 3.02513L5.0426 5.5L2.56772 7.97487C2.47395 8.06864 2.42128 8.19582 2.42128 8.32843C2.42128 8.46104 2.47395 8.58821 2.56772 8.68198C2.66149 8.77575 2.78867 8.82843 2.92128 8.82843C3.05388 8.82843 3.18106 8.77575 3.27483 8.68198L5.7497 6.20711L8.22458 8.68198C8.31835 8.77575 8.44552 8.82843 8.57813 8.82843C8.71074 8.82843 8.83792 8.77575 8.93168 8.68198C9.02545 8.58821 9.07813 8.46104 9.07813 8.32843C9.07813 8.19582 9.02545 8.06864 8.93168 7.97487L6.45681 5.5L8.93168 3.02513C9.02545 2.93136 9.07813 2.80418 9.07813 2.67157C9.07813 2.53896 9.02545 2.41179 8.93168 2.31802C8.83792 2.22425 8.71074 2.17157 8.57813 2.17157C8.44552 2.17157 8.31835 2.22425 8.22458 2.31802L5.7497 4.79289L3.27483 2.31802Z" fill="#A4A9AE"/>
</g>
</svg>
