<svg width="46" height="59" viewBox="0 0 46 59" fill="none" xmlns="http://www.w3.org/2000/svg">
<rect y="0.703125" width="46" height="58" fill="#F1F3F5"/>
<rect x="0.5" y="1.20312" width="45" height="57" stroke="#0C0C0D" stroke-opacity="0.08"/>
<path d="M23.0001 28.0364C24.841 28.0364 26.3334 26.544 26.3334 24.7031C26.3334 22.8621 24.841 21.3698 23.0001 21.3698C21.1591 21.3698 19.6667 22.8621 19.6667 24.7031C19.6667 26.544 21.1591 28.0364 23.0001 28.0364Z" stroke="#CFD4D9" stroke-width="1.5"/>
<path d="M29.6667 34.7031C29.6667 36.5448 29.6667 38.0364 23 38.0364C16.3334 38.0364 16.3334 36.5448 16.3334 34.7031C16.3334 32.8614 19.3167 31.3698 23 31.3698C26.6834 31.3698 29.6667 32.8614 29.6667 34.7031Z" stroke="#CFD4D9" stroke-width="1.5"/>
</svg>
