
<svg width="24" height="24" viewBox="0 0 24 24" fill="none" xmlns="http://www.w3.org/2000/svg">
<g id="solar:calendar-linear">
<g id="Group">
<path id="Vector" d="M1.99805 12.0039C1.99805 8.23291 1.99805 6.34691 3.17005 5.17591C4.34205 4.00491 6.22705 4.00391 9.99805 4.00391H13.998C17.769 4.00391 19.655 4.00391 20.826 5.17591C21.997 6.34791 21.998 8.23291 21.998 12.0039V14.0039C21.998 17.7749 21.998 19.6609 20.826 20.8319C19.654 22.0029 17.769 22.0039 13.998 22.0039H9.99805C6.22705 22.0039 4.34105 22.0039 3.17005 20.8319C1.99905 19.6599 1.99805 17.7749 1.99805 14.0039V12.0039Z" stroke="#0C0C0D" stroke-opacity="0.88" stroke-width="1.75"/>
<path id="Vector_2" d="M6.99805 4.00391V2.50391M16.998 4.00391V2.50391M2.49805 9.00391H21.498" stroke="#0C0C0D" stroke-opacity="0.88" stroke-width="1.75" stroke-linecap="round"/>
<path id="Vector_3" d="M17.998 17.0039C17.998 17.2691 17.8927 17.5235 17.7052 17.711C17.5176 17.8985 17.2633 18.0039 16.998 18.0039C16.7328 18.0039 16.4785 17.8985 16.2909 17.711C16.1034 17.5235 15.998 17.2691 15.998 17.0039C15.998 16.7387 16.1034 16.4843 16.2909 16.2968C16.4785 16.1093 16.7328 16.0039 16.998 16.0039C17.2633 16.0039 17.5176 16.1093 17.7052 16.2968C17.8927 16.4843 17.998 16.7387 17.998 17.0039ZM17.998 13.0039C17.998 13.2691 17.8927 13.5235 17.7052 13.711C17.5176 13.8985 17.2633 14.0039 16.998 14.0039C16.7328 14.0039 16.4785 13.8985 16.2909 13.711C16.1034 13.5235 15.998 13.2691 15.998 13.0039C15.998 12.7387 16.1034 12.4843 16.2909 12.2968C16.4785 12.1093 16.7328 12.0039 16.998 12.0039C17.2633 12.0039 17.5176 12.1093 17.7052 12.2968C17.8927 12.4843 17.998 12.7387 17.998 13.0039ZM12.998 17.0039C12.998 17.2691 12.8927 17.5235 12.7052 17.711C12.5176 17.8985 12.2633 18.0039 11.998 18.0039C11.7328 18.0039 11.4785 17.8985 11.2909 17.711C11.1034 17.5235 10.998 17.2691 10.998 17.0039C10.998 16.7387 11.1034 16.4843 11.2909 16.2968C11.4785 16.1093 11.7328 16.0039 11.998 16.0039C12.2633 16.0039 12.5176 16.1093 12.7052 16.2968C12.8927 16.4843 12.998 16.7387 12.998 17.0039ZM12.998 13.0039C12.998 13.2691 12.8927 13.5235 12.7052 13.711C12.5176 13.8985 12.2633 14.0039 11.998 14.0039C11.7328 14.0039 11.4785 13.8985 11.2909 13.711C11.1034 13.5235 10.998 13.2691 10.998 13.0039C10.998 12.7387 11.1034 12.4843 11.2909 12.2968C11.4785 12.1093 11.7328 12.0039 11.998 12.0039C12.2633 12.0039 12.5176 12.1093 12.7052 12.2968C12.8927 12.4843 12.998 12.7387 12.998 13.0039ZM7.99805 17.0039C7.99805 17.2691 7.89269 17.5235 7.70515 17.711C7.51762 17.8985 7.26326 18.0039 6.99805 18.0039C6.73283 18.0039 6.47848 17.8985 6.29094 17.711C6.1034 17.5235 5.99805 17.2691 5.99805 17.0039C5.99805 16.7387 6.1034 16.4843 6.29094 16.2968C6.47848 16.1093 6.73283 16.0039 6.99805 16.0039C7.26326 16.0039 7.51762 16.1093 7.70515 16.2968C7.89269 16.4843 7.99805 16.7387 7.99805 17.0039ZM7.99805 13.0039C7.99805 13.2691 7.89269 13.5235 7.70515 13.711C7.51762 13.8985 7.26326 14.0039 6.99805 14.0039C6.73283 14.0039 6.47848 13.8985 6.29094 13.711C6.1034 13.5235 5.99805 13.2691 5.99805 13.0039C5.99805 12.7387 6.1034 12.4843 6.29094 12.2968C6.47848 12.1093 6.73283 12.0039 6.99805 12.0039C7.26326 12.0039 7.51762 12.1093 7.70515 12.2968C7.89269 12.4843 7.99805 12.7387 7.99805 13.0039Z" fill="#0C0C0D" fill-opacity="0.88"/>
</g>
</g>
</svg>