<svg width="24" height="24" viewBox="0 0 24 24" fill="none" xmlns="http://www.w3.org/2000/svg">
<g id="Arrow/ico_dropdown_down_20_bk">
<path id="Vector" d="M4.72034 8.47034C4.79001 8.4005 4.87277 8.34508 4.96389 8.30727C5.05501 8.26946 5.15269 8.25 5.25134 8.25C5.34999 8.25 5.44767 8.26946 5.53879 8.30727C5.62991 8.34508 5.71267 8.4005 5.78234 8.47034L12.0013 14.6908L18.2203 8.47034C18.3612 8.32951 18.5522 8.25039 18.7513 8.25039C18.9505 8.25039 19.1415 8.32951 19.2823 8.47034C19.4232 8.61117 19.5023 8.80218 19.5023 9.00134C19.5023 9.2005 19.4232 9.39151 19.2823 9.53234L12.5323 16.2823C12.4627 16.3522 12.3799 16.4076 12.2888 16.4454C12.1977 16.4832 12.1 16.5027 12.0013 16.5027C11.9027 16.5027 11.805 16.4832 11.7139 16.4454C11.6228 16.4076 11.54 16.3522 11.4703 16.2823L4.72034 9.53234C4.6505 9.46267 4.59508 9.37991 4.55727 9.28879C4.51946 9.19767 4.5 9.09999 4.5 9.00134C4.5 8.90269 4.51946 8.80501 4.55727 8.71389C4.59508 8.62277 4.6505 8.54001 4.72034 8.47034Z" fill="#0C0C0D" fill-opacity="0.88"/>
</g>
</svg>
