<svg width="24" height="24" viewBox="0 0 24 24" fill="none" xmlns="http://www.w3.org/2000/svg">
<path d="M19.2797 15.5297C19.21 15.5995 19.1272 15.6549 19.0361 15.6927C18.945 15.7305 18.8473 15.75 18.7487 15.75C18.65 15.75 18.5523 15.7305 18.4612 15.6927C18.3701 15.6549 18.2873 15.5995 18.2177 15.5297L11.9987 9.30916L5.77966 15.5297C5.63883 15.6705 5.44782 15.7496 5.24866 15.7496C5.0495 15.7496 4.85849 15.6705 4.71766 15.5297C4.57683 15.3888 4.49771 15.1978 4.49771 14.9987C4.49771 14.7995 4.57683 14.6085 4.71766 14.4677L11.4677 7.71766C11.5373 7.64781 11.6201 7.5924 11.7112 7.55459C11.8023 7.51678 11.9 7.49732 11.9987 7.49732C12.0973 7.49732 12.195 7.51678 12.2861 7.55459C12.3772 7.5924 12.46 7.64781 12.5297 7.71766L19.2797 14.4677C19.3495 14.5373 19.4049 14.6201 19.4427 14.7112C19.4805 14.8023 19.5 14.9 19.5 14.9987C19.5 15.0973 19.4805 15.195 19.4427 15.2861C19.4049 15.3772 19.3495 15.46 19.2797 15.5297Z" fill="#0C0C0D" fill-opacity="0.88"/>
</svg>
