<svg width="24" height="24" viewBox="0 0 24 24" fill="none" xmlns="http://www.w3.org/2000/svg">
<mask id="mask0_3862_19502" style="mask-type:luminance" maskUnits="userSpaceOnUse" x="0" y="0" width="24" height="24">
<path d="M12 24C18.6274 24 24 18.6274 24 12C24 5.37258 18.6274 0 12 0C5.37258 0 0 5.37258 0 12C0 18.6274 5.37258 24 12 24Z" fill="white"/>
</mask>
<g mask="url(#mask0_3862_19502)">
<path d="M0 0H24V24H0V0Z" fill="#0052B4"/>
<path d="M7.21875 14.0625L7.875 15.4688L9.375 15.0938L8.71875 16.5L9.89062 17.4375L8.39062 17.7656L8.4375 19.3125L7.21875 18.3281L6 19.3125L6.04688 17.7656L4.5 17.4375L5.71875 16.5L5.0625 15.0938L6.5625 15.4688L7.21875 14.0625ZM17.625 12.7969H19.8281L18.0469 14.0625L18.75 12L19.4062 14.0625L17.625 12.7969ZM17.9531 5.20312L18.2812 5.90625L19.0312 5.71875L18.7031 6.42188L19.2656 6.89062L18.5625 7.03125V7.82812L17.9531 7.3125L17.3438 7.82812V7.03125L16.6406 6.89062L17.2031 6.42188L16.875 5.71875L17.625 5.90625L17.9531 5.20312ZM20.625 8.34375L20.9531 9.04688L21.7031 8.85938L21.375 9.5625L21.9375 10.0312L21.2344 10.1719V10.9219L20.625 10.4531L20.0156 10.9688V10.1719L19.3125 10.0312L19.875 9.5625L19.5469 8.85938L20.2969 9.04688L20.625 8.34375ZM14.9062 9.375L15.2344 10.0781L15.9844 9.89062L15.6562 10.5938L16.2188 11.0625L15.5156 11.2031V11.9531L14.9062 11.4844L14.2969 12V11.2031L13.5938 11.0625L14.1562 10.5938L13.8281 9.89062L14.5781 10.0781L14.9062 9.375ZM17.9531 16.6875L18.2812 17.3906L19.0312 17.2031L18.7031 17.9062L19.2656 18.375L18.5625 18.5156V19.3125L17.9531 18.7969L17.3438 19.3125V18.5156L16.6406 18.375L17.2031 17.9062L16.875 17.2031L17.625 17.3906L17.9531 16.6875ZM0 0V1.5L1.5 3L0 4.5V12H1.5L3 10.5L4.5 12H6V8.10938L9.89062 12H12L11.625 11.25L12 10.5469V9.89062L8.10938 6H12V4.5L10.5 3L12 1.5V0H4.5L3 1.5L1.5 0H0Z" fill="#EEEEEE"/>
<path d="M1.5 0V1.5H0V4.5H1.5V12H4.5V4.5H12V1.5H4.5V0H1.5ZM6 6L12 12V10.5469L7.45312 6H6Z" fill="#D80027"/>
</g>
</svg>
