<svg width="18" height="18" viewBox="0 0 18 18" fill="none" xmlns="http://www.w3.org/2000/svg">
<g clip-path="url(#clip0_3768_15989)">
<path d="M17.4248 7.83189C17.4156 7.7529 17.4055 7.67403 17.3943 7.59529C17.3919 7.59286 17.3892 7.591 17.3867 7.58868C17.0816 5.80689 16.2224 4.21452 14.993 2.99467C14.852 3.14971 14.6585 3.17245 14.347 3.08994C14.0799 3.01921 13.8327 2.87616 13.568 2.79234C12.7941 2.54724 12.2699 2.77951 11.9196 3.50609C11.9095 3.52704 11.8964 3.54729 11.8905 3.5694C11.7541 4.08265 11.1354 4.11383 10.9197 4.52242C10.715 4.91012 10.5678 5.29252 10.1822 5.58421C9.80889 5.86655 9.51681 6.28375 9.26411 6.68854C9.08639 6.9732 9.15607 7.32079 9.38227 7.59884C9.44017 7.66999 9.52272 7.72048 9.58786 7.78643C10.171 8.37656 10.1842 8.90215 9.5873 9.46363C9.30049 9.73342 9.08172 9.9665 8.9876 10.4042C8.88488 10.8818 8.42521 10.9694 7.93921 10.9274C7.85438 10.92 7.77686 10.8746 7.73274 10.8017C7.53607 10.4771 7.28949 10.2033 6.81618 10.1945C6.65421 10.1914 6.50519 9.93673 6.33538 9.81864C5.99595 9.58263 5.67022 9.30486 5.2957 9.14592C4.51696 8.81538 3.7946 9.15897 3.5368 9.9819C3.39291 10.4412 3.3503 10.9337 3.2784 11.4136C3.23442 11.7073 3.29264 12.0704 2.93887 12.1836C2.5584 12.3053 2.35534 11.9886 2.15137 11.7343C1.75934 11.2456 1.59547 10.6707 1.52906 10.0609C1.51651 9.94569 1.52418 9.82841 1.51528 9.71264C1.45211 8.88939 1.25924 8.6814 0.49765 8.68745C0.49293 8.80329 0.490538 8.91921 0.490479 9.03515C0.490479 13.7348 4.30033 17.5447 9.00001 17.5447C13.6997 17.5447 17.5096 13.7348 17.5096 9.03508C17.5096 8.62663 17.4805 8.22497 17.4248 7.83189Z" fill="#CACACA"/>
<path d="M0.497559 8.68721C0.571492 6.84949 1.22842 5.16206 2.28814 3.80422C2.56469 3.44958 2.86876 3.11729 3.19752 2.81042C3.49743 2.53068 3.81709 2.27289 4.15402 2.03906C4.69888 1.66101 5.28618 1.34813 5.90389 1.10682C6.23327 0.977897 6.57044 0.869812 6.9134 0.783208C7.30237 0.685207 7.6978 0.614953 8.09672 0.572974C8.14886 0.56749 8.2011 0.562322 8.25348 0.557751C8.78763 0.511318 9.32495 0.514861 9.85844 0.568333C10.0478 0.587318 10.2353 0.612736 10.4208 0.643955C10.8212 0.71119 11.2163 0.807121 11.6029 0.931005C12.4376 1.1989 13.216 1.59226 13.9161 2.0887C14.0153 2.15906 14.1128 2.23145 14.2087 2.30586C14.2587 2.34401 14.3083 2.38252 14.3577 2.42138C14.3783 2.43772 14.3982 2.45488 14.4174 2.47282C14.6171 2.6379 14.8091 2.81197 14.9929 2.9945C14.8519 3.14954 14.6584 3.17229 14.3469 3.08977C14.0798 3.01904 13.8325 2.87599 13.5679 2.79218C12.794 2.54707 12.2697 2.77935 11.9194 3.50592C11.9093 3.52687 11.8963 3.54712 11.8904 3.56924C11.754 4.08248 11.1353 4.11367 10.9196 4.52225C10.7148 4.90995 10.5677 5.29235 10.1821 5.58404C9.80876 5.86638 9.51668 6.28358 9.26398 6.68837C9.08627 6.97303 9.15595 7.32062 9.38214 7.59867C9.44004 7.66983 9.52259 7.72031 9.58773 7.78626C10.1708 8.3764 10.1841 8.90198 9.58717 9.46346C9.30037 9.73325 9.08159 9.96634 8.98748 10.404C8.88475 10.8816 8.42508 10.9693 7.93908 10.9272C7.85425 10.9198 7.77673 10.8744 7.73261 10.8016C7.53595 10.4769 7.28936 10.2031 6.81605 10.1943C6.65409 10.1913 6.50506 9.93656 6.33525 9.81847C5.99582 9.58247 5.6701 9.3047 5.29558 9.14576C4.51683 8.81522 3.79448 9.1588 3.53668 9.98174C3.39278 10.4411 3.35017 10.9335 3.27828 11.4134C3.2343 11.7071 3.29252 12.0702 2.93874 12.1834C2.55828 12.3052 2.35521 11.9884 2.15124 11.7341C1.75921 11.2455 1.59535 10.6705 1.52894 10.0607C1.51639 9.94552 1.52405 9.82824 1.51516 9.71247C1.45202 8.88915 1.25915 8.68113 0.497559 8.68721ZM11.9951 12.2407C11.6078 12.4587 11.2561 12.4995 10.9024 12.2126C10.5742 11.9465 10.2548 12.0059 9.9465 12.2317C9.62866 12.4646 9.32188 12.7127 9.01328 12.958C8.95977 13.0005 8.91583 13.0582 8.87663 13.1151C8.52109 13.6314 8.77756 14.27 9.40309 14.2867C10.0648 14.3043 10.6809 14.3935 11.2772 14.6957C11.5158 14.8167 11.8154 14.8172 11.9519 14.8449C12.8728 14.8678 13.3509 14.4702 13.341 13.6917C13.3359 13.2933 13.2038 12.8667 13.0211 12.5077C12.7714 12.0171 12.4916 11.9611 11.9951 12.2407ZM10.6134 7.78665C10.6806 7.75817 10.7488 7.73374 10.8189 7.71718C11.1015 7.65035 11.216 7.50705 11.3119 7.22682C11.4569 6.80277 11.6698 6.38704 11.9282 6.02022C12.2373 5.58161 12.2914 5.41754 11.9687 5.13766C11.8336 5.02049 11.6401 4.99549 11.4806 5.07631C11.2267 5.20502 11.0221 5.36505 11.2017 5.79508C11.2425 5.89282 11.1629 6.06062 11.1021 6.1767C11.0161 6.34067 10.9115 6.49487 10.7909 6.67983C10.7346 6.76628 10.6493 6.8297 10.5511 6.86127C10.2028 6.97317 10.0222 7.12413 9.99829 7.34495C9.96264 7.67475 10.3081 7.91617 10.6134 7.78665ZM9.43164 11.1128C9.95266 11.189 10.4737 11.271 10.9979 11.3144C11.0818 11.3214 11.2322 11.1631 11.2618 11.0562C11.3219 10.8391 11.1744 10.681 10.9701 10.6701C10.5322 10.6468 10.0904 10.6447 9.65397 10.6799C9.57068 10.6867 9.49373 10.7716 9.41807 10.8543C9.35859 10.9194 9.34959 11.0185 9.40197 11.0894C9.41202 11.103 9.42134 11.1113 9.43164 11.1128ZM3.91489 11.7757C3.76611 11.8496 3.58962 11.9581 3.53189 12.0978C3.49396 12.1895 3.53485 12.3139 3.57584 12.4648C3.5983 12.5475 3.69186 12.5881 3.76727 12.5475C3.89784 12.4772 3.99184 12.4331 4.04272 12.3592C4.12329 12.2423 4.16559 12.0772 4.16221 11.9345C4.16084 11.8753 3.96389 11.7514 3.91489 11.7757ZM11.6148 10.4996C11.51 10.554 11.4893 10.6956 11.5727 10.7792C11.7557 10.9627 11.9595 10.9682 12.1791 10.9088C12.2747 10.8829 12.3324 10.7839 12.3031 10.6893C12.1957 10.3424 12.0167 10.291 11.6148 10.4996Z" fill="#13A047"/>
</g>
<defs>
<clipPath id="clip0_3768_15989">
<rect width="18" height="18" fill="white"/>
</clipPath>
</defs>
</svg>
