<svg width="18" height="18" viewBox="0 0 18 18" fill="none" xmlns="http://www.w3.org/2000/svg">
<g clip-path="url(#clip0_3768_16063)">
<path d="M14.9553 3.04486C13.3646 1.45418 11.2497 0.578125 9.00009 0.578125C6.75051 0.578125 4.63558 1.45418 3.04486 3.04486C1.45415 4.63554 0.578125 6.75051 0.578125 9.00009C0.578125 11.2497 1.45415 13.3646 3.04486 14.9553C4.63558 16.546 6.75051 17.422 9.00009 17.422C11.2497 17.422 13.3646 16.546 14.9553 14.9553C16.546 13.3646 17.422 11.2497 17.422 9.00009C17.422 6.75051 16.546 4.63558 14.9553 3.04486ZM13.5713 8.52548C13.5312 7.16194 13.3187 5.85807 12.9538 4.70733C13.5487 4.5389 14.1018 4.32982 14.6184 4.07867C15.6745 5.28288 16.3504 6.82813 16.4573 8.52548H13.5713ZM8.52548 16.4053C7.78758 16.1962 7.08868 15.5034 6.51988 14.402C6.44716 14.2609 6.37864 14.1176 6.31443 13.9724C6.722 13.895 7.14693 13.8341 7.58979 13.7911C7.90098 13.761 8.21302 13.7406 8.52548 13.7299V16.4053ZM9.4747 13.7282C10.2244 13.7512 10.9631 13.8328 11.6856 13.9727C11.6214 14.1178 11.5529 14.2609 11.4803 14.4019C10.9115 15.5034 10.2126 16.1962 9.4747 16.4053V13.7282ZM8.52548 12.7803C8.18446 12.7913 7.8419 12.8129 7.49803 12.8463C6.96679 12.8978 6.45783 12.9736 5.97148 13.0723C5.62266 11.9987 5.41858 10.7688 5.37839 9.4747H8.52548V12.7803ZM5.37843 8.52548C5.41861 7.23116 5.62277 6.00108 5.97166 4.92741C6.80528 5.09862 7.65877 5.19681 8.52548 5.22184V8.52548H5.37843ZM8.52548 4.27238C7.7757 4.24928 7.03703 4.16747 6.31446 4.02773C6.37869 3.88255 6.44719 3.73931 6.51988 3.59819C7.08868 2.49674 7.78755 1.80392 8.52548 1.59481V4.27238ZM9.4747 1.59484C10.2126 1.80395 10.9115 2.49678 11.4803 3.59822C11.5534 3.74007 11.6222 3.88406 11.6867 4.03001C11.3205 4.09885 10.9378 4.15415 10.5375 4.1963C10.1842 4.23334 9.82973 4.25792 9.47473 4.26999L9.4747 1.59484ZM12.3237 3.16271C12.091 2.71214 11.8348 2.31681 11.5597 1.97903C12.4266 2.29604 13.2187 2.76934 13.9021 3.36457C13.5028 3.53948 13.0781 3.68836 12.6264 3.81299C12.532 3.58799 12.4311 3.37076 12.3237 3.16271ZM5.67648 3.16271C5.56957 3.36971 5.4692 3.58581 5.3752 3.80962C4.91757 3.68397 4.49372 3.53628 4.09811 3.36457C4.78148 2.76938 5.57362 2.29607 6.4405 1.97907C6.16537 2.31681 5.90915 2.71214 5.67648 3.16271ZM5.04747 4.70396C4.68191 5.8555 4.46897 7.16061 4.42882 8.52548H1.54285C1.64976 6.82863 2.32521 5.28379 3.38085 4.07972C3.89248 4.32719 4.44408 4.53405 5.04747 4.70396ZM4.42882 9.4747C4.46897 10.8392 4.68181 12.144 5.04719 13.2954C4.4503 13.4646 3.89484 13.674 3.38222 13.922C2.32581 12.7177 1.64979 11.1722 1.54285 9.4747H4.42882ZM5.37484 14.1897C5.46684 14.4095 5.56747 14.6256 5.67648 14.8375C5.90915 15.288 6.16537 15.6834 6.44046 16.0211C5.57397 15.7042 4.78211 15.2312 4.09892 14.6364C4.49654 14.4634 4.92256 14.3147 5.37484 14.1897ZM12.6246 14.1915C13.0743 14.3162 13.5005 14.4656 13.8994 14.6381C13.2166 15.2321 12.4254 15.7046 11.5597 16.0211C11.8348 15.6834 12.091 15.288 12.3237 14.8375C12.4305 14.6307 12.5307 14.415 12.6246 14.1915ZM12.0286 13.0727C11.195 12.9013 10.3414 12.8035 9.4747 12.7785V9.4747H12.6217C12.5815 10.769 12.3774 11.999 12.0286 13.0727ZM9.4747 8.52548V5.21998C9.86291 5.20747 10.2505 5.18089 10.6368 5.14028C11.1239 5.08902 11.5869 5.0185 12.0292 4.92959C12.3777 6.00273 12.5816 7.23204 12.6218 8.52548H9.4747ZM14.6143 13.9261L14.6167 13.9212C14.1035 13.6748 13.5457 13.4658 12.9524 13.2971C13.3182 12.1453 13.5312 10.8399 13.5713 9.47466H16.4573C16.3502 11.1742 15.6728 12.7212 14.6143 13.9261Z" fill="#0096D1"/>
</g>
<defs>
<clipPath id="clip0_3768_16063">
<rect width="18" height="18" fill="white"/>
</clipPath>
</defs>
</svg>
