<svg width="24" height="24" viewBox="0 0 24 24" fill="none" xmlns="http://www.w3.org/2000/svg">
<g clip-path="url(#clip0_3862_20401)">
<mask id="mask0_3862_20401" style="mask-type:luminance" maskUnits="userSpaceOnUse" x="0" y="0" width="24" height="24">
<path d="M12 24C18.6274 24 24 18.6274 24 12C24 5.37258 18.6274 0 12 0C5.37258 0 0 5.37258 0 12C0 18.6274 5.37258 24 12 24Z" fill="white"/>
</mask>
<g mask="url(#mask0_3862_20401)">
<path d="M0 0H24V24H0V0Z" fill="#0052B4"/>
<path d="M11.9984 4.69922L12.3875 5.89453H13.6391L12.6219 6.63047L13.0109 7.83047L11.9937 7.08984L10.9766 7.83047L11.3656 6.63047L10.3484 5.89453H11.6047L11.9984 4.69922ZM6.83281 6.83672L7.95781 7.40859L8.84375 6.51797L8.64688 7.76016L9.76719 8.33203L8.525 8.52891L8.32812 9.77109L7.75625 8.64609L6.51406 8.84766L7.40469 7.95703L6.83281 6.83672ZM4.69531 12.0023L5.89062 11.6133V10.3617L6.62656 11.3789L7.82656 10.9898L7.08594 12.007L7.82656 13.0242L6.62656 12.6352L5.89062 13.6523V12.3961L4.69531 12.0023ZM6.83281 17.168L7.40469 16.043L6.51406 15.157L7.75625 15.3539L8.32812 14.2336L8.525 15.4758L9.76719 15.6727L8.64219 16.2445L8.84375 17.4867L7.95312 16.5961L6.83281 17.168ZM11.9984 19.3055L11.6094 18.1102H10.3578L11.375 17.3742L10.9859 16.1742L12.0031 16.9148L13.0203 16.1742L12.6313 17.3742L13.6484 18.1102H12.3922L11.9984 19.3055ZM17.1641 17.168L16.0391 16.5961L15.1531 17.4867L15.35 16.2445L14.2297 15.6727L15.4719 15.4758L15.6687 14.2336L16.2406 15.3586L17.4828 15.157L16.5922 16.0477L17.1641 17.168ZM19.3016 12.0023L18.1062 12.3914V13.643L17.3703 12.6258L16.1703 13.0148L16.9109 11.9977L16.1703 10.9805L17.3703 11.3695L18.1062 10.3523V11.6086L19.3016 12.0023ZM17.1641 6.83672L16.5922 7.96172L17.4828 8.84766L16.2406 8.65078L15.6687 9.77109L15.4719 8.52891L14.2297 8.33203L15.3547 7.76016L15.1531 6.51797L16.0437 7.40859L17.1641 6.83672Z" fill="#FFDA44"/>
</g>
</g>
<defs>
<clipPath id="clip0_3862_20401">
<rect width="24" height="24" fill="white"/>
</clipPath>
</defs>
</svg>
