<svg width="24" height="24" viewBox="0 0 24 24" fill="none" xmlns="http://www.w3.org/2000/svg">
<g clip-path="url(#clip0_3862_3346)">
<mask id="mask0_3862_3346" style="mask-type:luminance" maskUnits="userSpaceOnUse" x="0" y="0" width="24" height="24">
<path d="M12 24C18.6274 24 24 18.6274 24 12C24 5.37258 18.6274 0 12 0C5.37258 0 0 5.37258 0 12C0 18.6274 5.37258 24 12 24Z" fill="white"/>
</mask>
<g mask="url(#mask0_3862_3346)">
<path d="M0 0H24V12L11.5781 14.1188L0 0Z" fill="#0052B4"/>
<path d="M9.84375 12H24V24H0L9.84375 12Z" fill="#D80027"/>
<path d="M0 0V24L12 12L0 0Z" fill="#EEEEEE"/>
<path d="M8.2168 11.9984L6.74961 11.3094L7.53242 9.88906L5.93867 10.1938L5.73711 8.58594L4.63086 9.76719L3.51523 8.58594L3.31367 10.1938L1.71992 9.88906L2.50273 11.3094L1.04492 11.9984L2.50742 12.6875L1.73398 14.1078L3.32773 13.8031L3.52461 15.4109L4.63555 14.2297L5.7418 15.4109L5.94336 13.8031L7.53711 14.1078L6.7543 12.6875L8.2168 11.9984ZM3.20117 4.69531L3.68867 5.375L4.48555 5.12188L3.98867 5.79688L4.47617 6.47656L3.6793 6.21406L3.18711 6.88906L3.19648 6.05L2.39961 5.7875L3.19648 5.53438L3.20117 4.69531ZM3.20117 17.1078L3.68867 17.7922L4.48555 17.5391L3.98867 18.2094L4.47617 18.8938L3.6793 18.6266L3.18711 19.3016L3.19648 18.4625L2.39961 18.2L3.19648 17.9469L3.20117 17.1078ZM10.1574 10.9016L9.66992 11.5766L8.87305 11.3234L9.36523 11.9984L8.87773 12.6828L9.67461 12.4156L10.1715 13.0906L10.1668 12.2516L10.9637 11.9891L10.1621 11.7359L10.1574 10.9016Z" fill="#FFDA44"/>
</g>
</g>
<defs>
<clipPath id="clip0_3862_3346">
<rect width="24" height="24" fill="white"/>
</clipPath>
</defs>
</svg>
