<svg width="24" height="24" viewBox="0 0 24 24" fill="none" xmlns="http://www.w3.org/2000/svg">
<g clip-path="url(#clip0_3676_40599)">
<mask id="mask0_3676_40599" style="mask-type:luminance" maskUnits="userSpaceOnUse" x="0" y="0" width="24" height="24">
<path d="M12 24C18.6274 24 24 18.6274 24 12C24 5.37258 18.6274 0 12 0C5.37258 0 0 5.37258 0 12C0 18.6274 5.37258 24 12 24Z" fill="white"/>
</mask>
<g mask="url(#mask0_3676_40599)">
<path d="M0 0H24V24H0V0Z" fill="#D80027"/>
<path d="M13.2366 9.08456C12.9648 10.2189 12.4819 10.0033 12.2429 10.9924C11.5818 10.8195 11.0149 10.3943 10.6637 9.80807C10.3126 9.22186 10.2053 8.52136 10.3648 7.85692C10.5243 7.19247 10.9379 6.61704 11.5169 6.25413C12.0959 5.89122 12.7941 5.76976 13.4616 5.91581C12.9882 7.89394 13.4804 8.07206 13.2366 9.08456ZM9.60851 9.92363C10.6023 10.533 10.246 10.9268 11.1132 11.4611C10.739 12.0239 10.161 12.4197 9.50101 12.5651C8.84097 12.7106 8.15024 12.5945 7.57409 12.2411C6.99793 11.8878 6.58124 11.3248 6.41166 10.6705C6.24207 10.0163 6.3328 9.32174 6.66476 8.733C8.39914 9.79706 8.71789 9.37988 9.60851 9.92363ZM9.28039 13.6408C10.171 12.8814 10.4382 13.3408 11.2116 12.6846C11.6257 13.2151 11.819 13.885 11.7511 14.5545C11.6832 15.2241 11.3594 15.8416 10.8473 16.2782C10.3351 16.7147 9.67415 16.9367 9.00228 16.8977C8.33042 16.8587 7.69956 16.5618 7.24132 16.0689C8.7882 14.7471 8.4882 14.3158 9.28507 13.6408H9.28039ZM12.721 15.0939C12.271 14.0158 12.7913 13.908 12.4023 12.9705C13.0337 12.7429 13.7286 12.7673 14.3426 13.0386C14.9566 13.3099 15.4425 13.8072 15.6995 14.4273C15.9564 15.0474 15.9647 15.7426 15.7226 16.3687C15.4804 16.9947 15.0065 17.5035 14.3991 17.7893C13.621 15.9143 13.1194 16.0596 12.721 15.0986V15.0939ZM15.1679 12.2814C14.0007 12.3752 14.0569 11.8455 13.0444 11.9252C13.0136 11.2482 13.2472 10.5858 13.6959 10.0779C14.1445 9.56996 14.7731 9.2564 15.4487 9.20345C16.1243 9.15049 16.794 9.3623 17.3163 9.7941C17.8386 10.2259 18.1726 10.8439 18.2476 11.5174C16.2179 11.6768 16.2038 12.1971 15.1679 12.2814Z" fill="#EEEEEE"/>
</g>
</g>
<defs>
<clipPath id="clip0_3676_40599">
<rect width="24" height="24" fill="white"/>
</clipPath>
</defs>
</svg>
