<svg width="24" height="24" viewBox="0 0 24 24" fill="none" xmlns="http://www.w3.org/2000/svg">
<g clip-path="url(#clip0_3862_23818)">
<mask id="mask0_3862_23818" style="mask-type:luminance" maskUnits="userSpaceOnUse" x="0" y="0" width="24" height="24">
<path d="M12 24C18.6274 24 24 18.6274 24 12C24 5.37258 18.6274 0 12 0C5.37258 0 0 5.37258 0 12C0 18.6274 5.37258 24 12 24Z" fill="white"/>
</mask>
<g mask="url(#mask0_3862_23818)">
<path d="M0 12L12.0797 9.60938L24 12V24H0V12Z" fill="#EEEEEE"/>
<path d="M0 0H24V12H0V0Z" fill="#D80027"/>
<path d="M7.30359 6.26114C7.30433 5.42882 7.58903 4.62166 8.11064 3.97305C8.63225 3.32445 9.35955 2.87323 10.1723 2.69396C9.91519 2.63781 9.65274 2.60952 9.38953 2.60958C8.87288 2.60408 8.36092 2.70814 7.88742 2.91491C7.41391 3.12167 6.98961 3.42645 6.64247 3.80915C6.29534 4.19184 6.03325 4.64377 5.8735 5.13513C5.71374 5.62649 5.65994 6.14613 5.71565 6.6598C5.77135 7.17347 5.93529 7.6695 6.19666 8.1152C6.45803 8.56089 6.8109 8.94613 7.232 9.24552C7.65311 9.54491 8.13288 9.75164 8.6397 9.8521C9.14652 9.95256 9.66888 9.94446 10.1723 9.82833C9.35955 9.64906 8.63225 9.19784 8.11064 8.54924C7.58903 7.90063 7.30433 7.09347 7.30359 6.26114ZM12.0005 2.86739L12.2583 3.66427H13.102L12.4177 4.15646L12.6802 4.95333L12.0005 4.46114L11.3208 4.95333L11.5833 4.15646L10.9036 3.66427H11.7427L12.0005 2.86739Z" fill="#EEEEEE"/>
<path d="M9.96602 4.43359L10.2285 5.23047H11.0629L10.3879 5.72266L10.6457 6.51953L9.96602 6.02734L9.29102 6.51953L9.54883 5.72266L8.86914 5.23047H9.7082L9.96602 4.43359ZM14.0348 4.43359L14.2926 5.23047H15.1316L14.452 5.72266L14.7098 6.51953L14.0348 6.02734L13.3551 6.51953L13.6129 5.72266L12.9379 5.23047H13.7723L14.0348 4.43359ZM13.252 6.78203L13.5098 7.57891H14.3488L13.6691 8.07109L13.927 8.86797L13.252 8.37578L12.5723 8.86797L12.8301 8.07109L12.1551 7.57891H12.9941L13.252 6.78203ZM10.7488 6.78203L11.0066 7.57891H11.8504L11.1707 8.07109L11.4285 8.86797L10.7488 8.37578L10.0738 8.86797L10.3316 8.07109L9.65195 7.57891H10.491L10.7488 6.78203Z" fill="#EEEEEE"/>
</g>
</g>
<defs>
<clipPath id="clip0_3862_23818">
<rect width="24" height="24" fill="white"/>
</clipPath>
</defs>
</svg>
