<svg width="24" height="24" viewBox="0 0 24 24" fill="none" xmlns="http://www.w3.org/2000/svg">
<g clip-path="url(#clip0_3862_31118)">
<mask id="mask0_3862_31118" style="mask-type:luminance" maskUnits="userSpaceOnUse" x="0" y="0" width="24" height="24">
<path d="M12 24C18.6274 24 24 18.6274 24 12C24 5.37258 18.6274 0 12 0C5.37258 0 0 5.37258 0 12C0 18.6274 5.37258 24 12 24Z" fill="white"/>
</mask>
<g mask="url(#mask0_3862_31118)">
<path d="M12 0H24V24H0V12L12 0Z" fill="#0052B4"/>
<path d="M0 0V1.5L1.5 3L0 4.5V12H1.5L3 10.5L4.5 12H6V8.10938L9.89062 12H12L11.625 11.25L12 10.5469V9.89062L8.10938 6H12V4.5L10.5 3L12 1.5V0H4.5L3 1.5L1.5 0H0ZM17.9062 4.3125L17.3906 5.95312H15.6562L17.0625 6.9375L16.5 8.57812L17.9062 7.54688L19.3125 8.57812L18.75 6.9375L20.1562 5.95312H18.4219L17.9062 4.3125ZM20.7656 7.6875L20.25 9.32812H18.5156L19.9219 10.3125L19.4062 11.9531L20.7656 10.9688L22.1719 11.9531L21.6094 10.3125L23.0156 9.32812H21.2812L20.7656 7.6875ZM15 8.15625L14.4844 9.79688H12.75L14.1562 10.8281L13.6406 12.4688L15 11.4375L16.4062 12.4688L15.8906 10.8281L17.25 9.79688H15.5625L15 8.15625ZM17.7656 14.25L17.25 15.8906H15.5156L16.9219 16.875L16.4062 18.5156L17.7656 17.5312L19.1719 18.5156L18.6562 16.875L20.0156 15.8906H18.3281L17.7656 14.25Z" fill="#EEEEEE"/>
<path d="M1.5 0V1.5H0V4.5H1.5V12H4.5V4.5H12V1.5H4.5V0H1.5ZM6 6L12 12V10.5469L7.45312 6H6ZM17.7656 15.4219L17.5312 16.2656H16.6406L17.3438 16.7344L17.0625 17.5781L17.7656 17.0625L18.4688 17.5781L18.2344 16.7344L18.8906 16.2656H18.0469L17.7656 15.4219ZM15 9.375L14.7656 10.1719H13.875L14.5781 10.6875L14.2969 11.4844L15 10.9688L15.7031 11.4844L15.4219 10.6875L16.125 10.1719H15.2812L15 9.375ZM20.7656 8.85938L20.4844 9.70312H19.6406L20.3438 10.2188L20.0625 11.0156L20.7656 10.5L21.4688 11.0156L21.1875 10.2188L21.8906 9.70312H21.0469L20.7656 8.85938ZM17.9062 5.48438L17.625 6.28125H16.7812L17.4844 6.79688L17.2031 7.59375L17.9062 7.125L18.6094 7.59375L18.3281 6.79688L19.0312 6.28125H18.1875L17.9062 5.48438Z" fill="#D80027"/>
</g>
</g>
<defs>
<clipPath id="clip0_3862_31118">
<rect width="24" height="24" fill="white"/>
</clipPath>
</defs>
</svg>
