<svg width="24" height="24" viewBox="0 0 24 24" fill="none" xmlns="http://www.w3.org/2000/svg">
<g clip-path="url(#clip0_3862_24306)">
<mask id="mask0_3862_24306" style="mask-type:luminance" maskUnits="userSpaceOnUse" x="0" y="0" width="24" height="24">
<path d="M12 24C18.6274 24 24 18.6274 24 12C24 5.37258 18.6274 0 12 0C5.37258 0 0 5.37258 0 12C0 18.6274 5.37258 24 12 24Z" fill="white"/>
</mask>
<g mask="url(#mask0_3862_24306)">
<path d="M0 0H4.69687L7.79531 2.50781L10.9547 0H24V8.87344L21.8578 12.0469L24 15.1312V24H10.9547L7.76719 21.6234L4.69687 24H0V15.1312L2.40938 11.9203L0 8.87344V0Z" fill="#D80027"/>
<path d="M4.69687 0V8.87344H0V10.4391L1.15313 11.9859L0 13.5703V15.1359H4.69687V24H6.2625L7.69687 22.7672L9.38906 24H10.9547V15.1312H24V13.5656L22.8469 11.9859L24 10.4391V8.87344H10.9547V0H9.38906L7.80469 1.18594L6.2625 0H4.69687Z" fill="#EEEEEE"/>
<path d="M6.2625 0V10.4391H0V13.5656H6.2625V24H9.38906V13.5656H24V10.4391H9.38906V0H6.2625Z" fill="#0052B4"/>
</g>
</g>
<defs>
<clipPath id="clip0_3862_24306">
<rect width="24" height="24" fill="white"/>
</clipPath>
</defs>
</svg>
